<svg version="1.0" id="Layer_1" xmlns="http://www.w3.org/2000/svg" xmlns:xlink="http://www.w3.org/1999/xlink" x="0px" y="0px"
	 width="385px" height="326px" viewBox="0 0 385 326" enable-background="new 0 0 385 326" xml:space="preserve">
<g>
	<g>
		<path fill="#F1F1F1" d="M229.31,0v46.404c-12.273,6.903-21.668,15.532-28.188,25.885c-6.521,10.355-11.445,21.226-14.764,32.599
			c-3.326,11.378-4.987,24.1-4.987,38.158h47.938V244.29H128.065v-62.894c0-37.836,3.578-66.663,10.739-86.478
			c7.156-19.811,18.217-38.027,33.171-54.65C186.934,23.652,206.042,10.229,229.31,0z"/>
		<path fill="#F1F1F1" d="M101.245,0v46.404C88.972,53.307,79.576,61.937,73.058,72.29c-6.521,10.355-11.445,21.226-14.764,32.599
			c-3.326,11.378-4.987,24.1-4.987,38.158h47.938V244.29H0v-62.894c0-37.836,3.579-66.663,10.739-86.478
			c7.155-19.811,18.216-38.027,33.171-54.65C58.868,23.652,77.977,10.229,101.245,0z"/>
	</g>
	<path opacity="0.3" fill="#E883A0" d="M291.62,325.079H166.812v-41.327h101.846c28.608,0,51.8-23.192,51.8-51.799v-27.769
		c0-28.609-23.191-51.801-51.801-51.801h-39.346v91.904h-62.499V112.168H291.62c51.25,0,92.795,41.546,92.795,92.796v27.319
		C384.415,283.533,342.87,325.079,291.62,325.079z"/>
</g>
</svg>
