<?xml version="1.0" encoding="utf-8"?>
<!-- Generator: Adobe Illustrator 16.0.4, SVG Export Plug-In . SVG Version: 6.00 Build 0)  -->
<!DOCTYPE svg PUBLIC "-//W3C//DTD SVG 1.0//EN" "http://www.w3.org/TR/2001/REC-SVG-20010904/DTD/svg10.dtd">
<svg version="1.0" id="Layer_1" xmlns="http://www.w3.org/2000/svg" xmlns:xlink="http://www.w3.org/1999/xlink" x="0px" y="0px"
	 width="157px" height="167px" viewBox="0 0 157 167" enable-background="new 0 0 157 167" xml:space="preserve">
<g opacity="0.08">
	<path fill="#1C2330" d="M156.029,0v31.575c-8.352,4.697-14.744,10.569-19.18,17.613c-4.438,7.046-7.787,14.442-10.047,22.182
		c-2.262,7.742-3.393,16.398-3.393,25.964h32.619v68.888h-68.89v-42.794c0-25.745,2.435-45.359,7.307-58.843
		c4.869-13.479,12.396-25.875,22.571-37.185C127.195,16.094,140.197,6.959,156.029,0z"/>
	<path fill="#1C2330" d="M68.89,0v31.575c-8.352,4.697-14.745,10.569-19.18,17.613c-4.437,7.046-7.788,14.442-10.046,22.182
		c-2.263,7.742-3.393,16.398-3.393,25.964H68.89v68.888H0v-42.794c0-25.745,2.435-45.359,7.307-58.843
		c4.869-13.479,12.395-25.875,22.571-37.185C40.056,16.094,53.058,6.959,68.89,0z"/>
</g>
</svg>
