<?xml version="1.0" encoding="utf-8"?>
<!-- Generator: Adobe Illustrator 16.0.4, SVG Export Plug-In . SVG Version: 6.00 Build 0)  -->
<!DOCTYPE svg PUBLIC "-//W3C//DTD SVG 1.0//EN" "http://www.w3.org/TR/2001/REC-SVG-20010904/DTD/svg10.dtd">
<svg version="1.0" id="Layer_1" xmlns="http://www.w3.org/2000/svg" xmlns:xlink="http://www.w3.org/1999/xlink" x="0px" y="0px"
	 width="115px" height="115px" viewBox="0 0 115 115" enable-background="new 0 0 115 115" xml:space="preserve">
<path fill="#FFFFFF" d="M57.5,0.301C25.911,0.301,0.301,25.91,0.301,57.5c0,31.591,25.609,57.199,57.199,57.199
	s57.198-25.608,57.198-57.199C114.699,25.91,89.09,0.301,57.5,0.301z M70.913,57.5h-7.598v27.583H51.9V57.5h-5.691v-9.507H51.9
	V42.27c0-4.062,0.958-7.136,2.88-9.224c1.917-2.086,5.074-3.129,9.472-3.129h7.6v9.508h-4.755c-0.87,0-1.566,0.072-2.092,0.217
	c-0.523,0.146-0.903,0.407-1.138,0.785c-0.234,0.381-0.386,0.766-0.453,1.156c-0.066,0.392-0.099,0.943-0.099,1.657v4.753h8.603
	L70.913,57.5z"/>
</svg>
