<svg version="1.0" id="Layer_1" xmlns="http://www.w3.org/2000/svg" xmlns:xlink="http://www.w3.org/1999/xlink" x="0px" y="0px"
	 width="118px" height="98px" viewBox="0 0 118 98" enable-background="new 0 0 118 98" xml:space="preserve">
<path fill="#4D4E5E" d="M59.278,97.598c-9.682,0-19.364-1.398-28.777-4.196c-0.424-0.126-0.715-0.516-0.715-0.959V74.534
	c0-12.641,10.285-22.925,22.925-22.925h13.133c12.641,0,22.926,10.285,22.926,22.925v17.909c0,0.443-0.291,0.833-0.715,0.959
	C78.642,96.2,68.96,97.598,59.278,97.598z M31.786,91.694c18.004,5.206,36.98,5.206,54.984,0v-17.16
	c0-11.539-9.387-20.925-20.926-20.925H52.711c-11.538,0-20.925,9.387-20.925,20.925V91.694z M87.771,92.443h0.01H87.771z
	 M26.011,80.323c-0.012,0-0.023,0-0.036,0c-8.562-0.298-17.061-1.685-25.261-4.122C0.291,76.075,0,75.685,0,75.242v-17.91
	c0-12.641,10.283-22.925,22.924-22.925h13.134c0.807,0,1.639,0.045,2.471,0.134c0.549,0.059,0.947,0.552,0.888,1.101
	c-0.059,0.549-0.554,0.949-1.101,0.888c-0.762-0.082-1.521-0.123-2.258-0.123H22.924C11.386,36.408,2,45.794,2,57.333v17.16
	c7.816,2.259,15.901,3.547,24.045,3.831c0.552,0.019,0.984,0.482,0.964,1.035C26.991,79.898,26.547,80.323,26.011,80.323z
	 M92.545,80.257c-0.531,0-0.973-0.417-0.998-0.952c-0.026-0.552,0.399-1.02,0.951-1.046c7.735-0.369,15.39-1.636,22.764-3.766
	v-17.16c0-11.538-9.387-20.925-20.925-20.925H81.204c-0.34,0-0.677,0.009-1.013,0.025c-0.557,0.022-1.021-0.398-1.047-0.95
	c-0.026-0.552,0.399-1.021,0.95-1.047c0.368-0.018,0.738-0.028,1.11-0.028h13.133c12.641,0,22.925,10.284,22.925,22.925v17.91
	c0,0.442-0.291,0.833-0.715,0.958c-7.749,2.302-15.808,3.666-23.954,4.055C92.577,80.256,92.561,80.257,92.545,80.257z
	 M59.279,51.438c-9.439,0-17.119-7.68-17.119-17.119s7.68-17.118,17.119-17.118c9.439,0,17.118,7.679,17.118,17.118
	S68.718,51.438,59.279,51.438z M59.279,19.202c-8.336,0-15.119,6.782-15.119,15.118c0,8.337,6.783,15.119,15.119,15.119
	c8.336,0,15.118-6.782,15.118-15.119C74.397,25.983,67.615,19.202,59.279,19.202z M87.771,34.237c-2.904,0-5.781-0.748-8.319-2.162
	c-0.482-0.269-0.655-0.878-0.387-1.36c0.269-0.482,0.878-0.655,1.361-0.387c2.241,1.25,4.78,1.909,7.345,1.909
	c8.335,0,15.118-6.782,15.118-15.119C102.888,8.782,96.106,2,87.771,2c-8.336,0-15.119,6.782-15.119,15.118
	c0,0.049,0.004,0.097,0.007,0.146c0.005,0.076,0.01,0.151,0.012,0.227c0.011,0.552-0.427,1.009-0.979,1.021
	c-0.555,0.015-1.009-0.427-1.021-0.979l-0.007-0.129c-0.006-0.094-0.012-0.188-0.012-0.284C70.652,7.679,78.331,0,87.771,0
	c9.439,0,17.118,7.679,17.118,17.118S97.209,34.237,87.771,34.237z M29.491,34.237c-9.439,0-17.118-7.68-17.118-17.119
	S20.052,0,29.491,0c9.439,0,17.118,7.679,17.118,17.118c0,0.48-0.025,0.996-0.079,1.575c-0.05,0.55-0.541,0.956-1.087,0.905
	c-0.55-0.05-0.955-0.538-0.904-1.087c0.047-0.519,0.07-0.974,0.07-1.393C44.609,8.782,37.828,2,29.491,2
	c-8.336,0-15.118,6.782-15.118,15.118c0,8.336,6.782,15.119,15.118,15.119c3.131,0,6.144-0.96,8.712-2.776
	c0.451-0.319,1.075-0.212,1.394,0.239c0.318,0.451,0.212,1.075-0.239,1.394C36.451,33.15,33.039,34.237,29.491,34.237z"/>
</svg>
