<?xml version="1.0" encoding="utf-8"?>
<!-- Generator: Adobe Illustrator 16.0.4, SVG Export Plug-In . SVG Version: 6.00 Build 0)  -->
<!DOCTYPE svg PUBLIC "-//W3C//DTD SVG 1.0//EN" "http://www.w3.org/TR/2001/REC-SVG-20010904/DTD/svg10.dtd">
<svg version="1.0" id="Layer_1" xmlns="http://www.w3.org/2000/svg" xmlns:xlink="http://www.w3.org/1999/xlink" x="0px" y="0px"
	 width="139px" height="98px" viewBox="0 0 139 98" enable-background="new 0 0 139 98" xml:space="preserve">
<g>
	<path fill="#EC689B" d="M129.72,97.743H8.737C3.919,97.743,0,93.823,0,89.005V8.737C0,3.919,3.919,0,8.737,0H129.72
		c4.817,0,8.737,3.919,8.737,8.737v80.269C138.457,93.823,134.537,97.743,129.72,97.743z M8.737,2C5.022,2,2,5.022,2,8.737v80.268
		c0,3.715,3.022,6.738,6.737,6.738H129.72c3.714,0,6.737-3.022,6.737-6.737V8.737c0-3.715-3.022-6.737-6.737-6.737H8.737z"/>
	<path fill="#EC689B" d="M130.079,93.102H8.377c-2.06,0-3.736-1.676-3.736-3.736V19.938c0-2.061,1.676-3.737,3.736-3.737H130.08
		c2.06,0,3.736,1.676,3.736,3.736v69.429C133.816,91.426,132.14,93.102,130.079,93.102z M8.377,18.201
		c-0.958,0-1.736,0.779-1.736,1.737v69.428c0,0.958,0.779,1.736,1.736,1.736h121.702c0.958,0,1.737-0.779,1.737-1.736V19.937
		c0-0.958-0.779-1.736-1.736-1.736H8.377z"/>
	<path fill="#EC689B" d="M126.508,12.854c-1.946,0-3.53-1.583-3.53-3.53c0-1.946,1.584-3.53,3.53-3.53s3.53,1.583,3.53,3.53
		C130.038,11.27,128.454,12.854,126.508,12.854z M126.508,7.793c-0.844,0-1.53,0.687-1.53,1.53c0,0.844,0.687,1.53,1.53,1.53
		c0.843,0,1.53-0.686,1.53-1.53C128.038,8.48,127.351,7.793,126.508,7.793z"/>
	<path fill="#EC689B" d="M118.046,12.854c-1.946,0-3.53-1.583-3.53-3.53c0-1.946,1.583-3.53,3.53-3.53s3.53,1.583,3.53,3.53
		C121.576,11.27,119.992,12.854,118.046,12.854z M118.046,7.793c-0.844,0-1.53,0.687-1.53,1.53c0,0.844,0.686,1.53,1.53,1.53
		c0.843,0,1.53-0.686,1.53-1.53C119.576,8.48,118.889,7.793,118.046,7.793z"/>
	<path fill="#EC689B" d="M109.584,12.854c-1.946,0-3.529-1.583-3.529-3.53c0-1.946,1.583-3.53,3.529-3.53
		c1.947,0,3.53,1.583,3.53,3.53C113.114,11.27,111.531,12.854,109.584,12.854z M109.584,7.793c-0.843,0-1.529,0.687-1.529,1.53
		c0,0.844,0.686,1.53,1.529,1.53c0.844,0,1.53-0.686,1.53-1.53C111.114,8.48,110.428,7.793,109.584,7.793z"/>
	<path fill="#EC689B" d="M58.601,65.888c-0.449,0-0.884-0.095-1.292-0.281l-22.53-10.241c-1.118-0.509-1.837-1.63-1.832-2.858
		c0.005-1.228,0.733-2.343,1.855-2.841l21.786-9.683c1.576-0.7,3.425,0.013,4.125,1.587c0.339,0.762,0.361,1.61,0.062,2.39
		c-0.299,0.779-0.885,1.395-1.647,1.733l-15.435,6.86l16.203,7.365c1.568,0.713,2.265,2.569,1.552,4.137
		C60.941,65.168,59.823,65.888,58.601,65.888z M57.855,41.714c-0.152,0-0.307,0.031-0.455,0.096l-21.786,9.683
		c-0.404,0.18-0.666,0.581-0.667,1.023c-0.002,0.442,0.257,0.846,0.659,1.029l22.531,10.241c0.551,0.252,1.24-0.012,1.489-0.558
		c0.256-0.564,0.005-1.232-0.559-1.489l-18.229-8.286c-0.358-0.163-0.588-0.521-0.586-0.915c0.002-0.394,0.234-0.75,0.594-0.909
		l17.468-7.763c0.275-0.122,0.485-0.344,0.593-0.624s0.1-0.585-0.022-0.859C58.699,41.963,58.287,41.714,57.855,41.714z"/>
	<path fill="#EC689B" d="M80.6,65.888c-1.234,0-2.355-0.729-2.856-1.856c-0.339-0.762-0.361-1.611-0.061-2.39
		c0.299-0.779,0.884-1.395,1.647-1.733l15.435-6.86l-16.204-7.366c-1.568-0.713-2.264-2.568-1.552-4.137
		c0.346-0.76,0.967-1.341,1.75-1.634c0.782-0.292,1.63-0.263,2.389,0.083l22.531,10.241c1.118,0.509,1.836,1.63,1.832,2.858
		c-0.004,1.226-0.732,2.342-1.854,2.841l-21.787,9.683C81.464,65.797,81.038,65.888,80.6,65.888z M79.854,41.713
		c-0.133,0-0.266,0.024-0.395,0.072c-0.282,0.105-0.506,0.314-0.63,0.588c-0.257,0.564-0.006,1.232,0.559,1.489l18.229,8.287
		c0.358,0.163,0.588,0.521,0.586,0.915c-0.002,0.394-0.234,0.75-0.594,0.91l-17.467,7.763c-0.275,0.122-0.485,0.344-0.593,0.624
		c-0.108,0.28-0.1,0.585,0.022,0.86c0.245,0.55,0.927,0.817,1.485,0.571l21.786-9.683c0.404-0.18,0.666-0.581,0.667-1.022
		c0.002-0.442-0.257-0.846-0.659-1.029L80.318,41.814C80.17,41.747,80.012,41.713,79.854,41.713z"/>
	<path fill="#EC689B" d="M64.959,72.219c-0.253,0-0.508-0.031-0.757-0.093c-1.672-0.418-2.693-2.117-2.276-3.789l8.38-33.519
		c0.417-1.669,2.115-2.689,3.788-2.274c1.672,0.417,2.692,2.118,2.275,3.789l-8.379,33.518
		C67.64,71.246,66.394,72.219,64.959,72.219z M73.338,34.452c-0.504,0-0.966,0.341-1.093,0.851l-8.379,33.518
		c-0.15,0.602,0.217,1.214,0.818,1.364c0.6,0.149,1.217-0.228,1.364-0.818l8.379-33.518c0.15-0.602-0.217-1.214-0.818-1.364
		C73.519,34.462,73.428,34.452,73.338,34.452z"/>
</g>
</svg>
