<?xml version="1.0" encoding="utf-8"?>
<!-- Generator: Adobe Illustrator 16.0.4, SVG Export Plug-In . SVG Version: 6.00 Build 0)  -->
<!DOCTYPE svg PUBLIC "-//W3C//DTD SVG 1.0//EN" "http://www.w3.org/TR/2001/REC-SVG-20010904/DTD/svg10.dtd">
<svg version="1.0" id="Layer_1" xmlns="http://www.w3.org/2000/svg" xmlns:xlink="http://www.w3.org/1999/xlink" x="0px" y="0px"
	 width="25px" height="25px" viewBox="0 0 25 25" enable-background="new 0 0 25 25" xml:space="preserve">
<path fill="#EC689B" d="M17.769,24.521c-0.103,0-0.216-0.004-0.324-0.011c-1.722-0.109-3.289-0.761-4.463-1.315
	c-3.045-1.474-5.716-3.565-7.94-6.219c-1.82-2.189-3.052-4.243-3.875-6.467C0.83,9.602,0.395,8.222,0.517,6.74
	c0.081-0.923,0.454-1.722,1.108-2.375l1.72-1.734C4.393,1.625,5.827,1.632,6.822,2.62C7.15,2.923,7.474,3.251,7.773,3.562
	c0.146,0.156,0.301,0.311,0.452,0.461l1.399,1.399c1.078,1.079,1.078,2.475,0,3.554L9.089,9.517
	c-0.341,0.347-0.683,0.693-1.045,1.025c0.31,0.68,0.727,1.335,1.35,2.122c1.301,1.599,2.661,2.839,4.155,3.788
	c0.139,0.085,0.295,0.164,0.46,0.247l0.404,0.209l1.58-1.575c1.03-1.037,2.496-1.033,3.492,0.006l2.776,2.787
	c0.516,0.511,0.79,1.12,0.79,1.761c0,0.636-0.268,1.249-0.774,1.775c-0.218,0.229-0.44,0.447-0.659,0.654l-0.108,0.104
	c-0.277,0.271-0.539,0.524-0.774,0.809l-0.062,0.071C19.914,24.11,18.937,24.521,17.769,24.521z M5.111,3.305
	c-0.243,0-0.5,0.12-0.744,0.35L2.643,5.379C2.23,5.79,2.005,6.273,1.956,6.858C1.879,7.789,2.054,8.761,2.52,10.01
	c0.762,2.057,1.917,3.981,3.636,6.056c2.087,2.489,4.596,4.453,7.456,5.837c1.04,0.499,2.427,1.086,3.932,1.181
	c0.077,0.006,0.154,0.007,0.231,0.005c0.784,0,1.362-0.244,1.875-0.792c0.325-0.384,0.676-0.724,0.978-1.014l0.113-0.11
	c0.175-0.171,0.34-0.333,0.503-0.506c0.5-0.521,0.498-1.035-0.005-1.532l-2.798-2.796c-0.108-0.119-0.361-0.361-0.702-0.361
	c-0.242,0-0.497,0.128-0.738,0.37l-1.731,1.73c-0.093,0.091-0.364,0.358-0.794,0.358c-0.176,0-0.346-0.043-0.52-0.13l-0.086-0.05
	c-0.129-0.082-0.299-0.167-0.462-0.249c-0.218-0.108-0.432-0.216-0.637-0.346c-1.628-1.029-3.1-2.369-4.5-4.096
	c-0.785-0.995-1.291-1.821-1.645-2.681c-0.111-0.35-0.184-0.793,0.256-1.233c0.453-0.409,0.842-0.795,1.295-1.259
	c0.099-0.095,0.191-0.189,0.285-0.285l0.15-0.15c0.264-0.264,0.392-0.512,0.392-0.758c0-0.247-0.128-0.495-0.391-0.758L6.751,4.57
	C6.48,4.291,6.164,3.967,5.84,3.665C5.601,3.426,5.352,3.305,5.111,3.305z M19.443,12.123c-0.354,0-0.652-0.252-0.709-0.6
	c-0.227-1.318-0.85-2.52-1.8-3.469c-0.958-0.958-2.158-1.58-3.471-1.801c-0.188-0.031-0.353-0.135-0.461-0.29
	c-0.11-0.154-0.154-0.347-0.121-0.538c0.063-0.35,0.363-0.6,0.713-0.6l0.113,0.008c1.618,0.276,3.085,1.037,4.249,2.201
	c1.166,1.167,1.927,2.635,2.202,4.246c0.031,0.191-0.013,0.381-0.123,0.537c-0.111,0.157-0.276,0.262-0.466,0.295L19.443,12.123z
	 M23.784,11.914c-0.354,0-0.651-0.251-0.709-0.597c-0.398-2.351-1.509-4.494-3.212-6.196c-1.708-1.703-3.852-2.815-6.199-3.214
	c-0.396-0.068-0.655-0.434-0.591-0.831c0.062-0.349,0.357-0.598,0.703-0.598l0.113,0.01c2.658,0.453,5.071,1.704,6.987,3.619
	c1.915,1.916,3.166,4.328,3.617,6.976c0.033,0.188-0.01,0.378-0.121,0.534c-0.113,0.157-0.277,0.259-0.465,0.287L23.784,11.914z"/>
</svg>
