<svg version="1.0" id="Layer_1" xmlns="http://www.w3.org/2000/svg" xmlns:xlink="http://www.w3.org/1999/xlink" x="0px" y="0px"
	 width="218px" height="67px" viewBox="0 0 218 67" enable-background="new 0 0 218 67" xml:space="preserve">
<path fill="#FFFFFF" d="M49.492,20.882v6.147c0,11.533-9.349,20.881-20.881,20.881H0.524v-9.299h22.918
	c6.438,0,11.657-5.219,11.657-11.656v-6.249c0-6.438-5.219-11.657-11.657-11.657h-8.854v20.682H0.524V0h28.086
	C40.143,0,49.492,9.349,49.492,20.882z M67.12,30.142L67.1,34.186c-0.039,7.585,6.079,13.766,13.665,13.805l18.473,0.093
	l0.099-19.555l-9.251-0.047l-0.069,13.603l-5.824-0.029c-4.234-0.021-7.649-3.472-7.627-7.706l0.02-4.11
	c0.022-4.233,3.472-7.649,7.706-7.628l15.075,0.076l0.03-6.117l-18.472-0.093C73.339,16.438,67.158,22.557,67.12,30.142z
	 M104.292,48.083h9.251V16.489h-9.251V48.083z M170.627,16.477h-8.876h-0.374l-17.6,31.525h9.25l13.161-23.575l4.455,7.979h-4.338
	l-3.738,6.697h11.815l4.968,8.899h9.251l-17.6-31.525H170.627z M129.774,48.002h9.251V25.236h-9.251V48.002z M150.864,16.477
	h-32.927v5.993h32.927V16.477z M192.229,48.002h9.25l0.375-31.525h-9.251L192.229,48.002z M204.007,42.009v5.993h13.895v-5.993
	H204.007z M54.118,47.955h9.25V16.489h-9.25V47.955z M3.774,65.172l-2.607-5.925H0v7.102h0.819v-5.826l2.563,5.826h0.725
	l2.523-5.826v5.826H7.45v-7.102H6.333L3.774,65.172z M22.874,65.604h3.8v0.745h-4.718v-7.102h4.644v0.745h-3.725v2.384h3.551v0.745
	h-3.551V65.604z M43.462,59.247H40.88v7.102h2.582c2.351,0,3.527-1.248,3.527-3.744C46.989,60.366,45.813,59.247,43.462,59.247z
	 M43.462,65.604h-1.664v-5.612h1.664c1.739,0,2.608,0.871,2.608,2.613C46.07,64.605,45.201,65.604,43.462,65.604z M61.295,59.247
	h0.919v7.102h-0.919V59.247z M77.787,65.604h3.799v0.745h-4.718v-7.102h4.644v0.745h-3.725v2.384h3.551v0.745h-3.551V65.604z
	 M100.849,61.149c0,1.381-0.992,2.224-2.975,2.528l-0.188-0.774c1.457-0.215,2.185-0.787,2.185-1.714
	c0-0.788-0.427-1.182-1.281-1.182h-1.877v6.342h-0.919v-7.102h2.88C100.124,59.247,100.849,59.882,100.849,61.149z M117.45,59.247
	l3.03,7.102h-1.018l-0.919-2.234h-2.349l0.253-0.745h1.788l-1.326-3.218l-2.538,6.198h-0.954l3.015-7.102H117.45z M137.338,63.002
	l2.438,3.347h-1.211l-2.26-3.193v-0.601c1.358-0.215,2.037-0.737,2.037-1.565c0-0.655-0.377-0.983-1.132-0.983h-2.026v6.342h-0.919
	v-7.102h3.03c1.351,0,2.026,0.568,2.026,1.704C139.32,61.875,138.66,62.559,137.338,63.002z M152.965,59.247h5.389v0.745h-2.235
	v6.357h-0.918v-6.357h-2.235V59.247z M177.528,59.247h0.869v7.102h-0.919l-4.346-5.771v5.771h-0.869v-7.102h0.919l4.346,5.722
	V59.247z M193.821,65.604h3.8v0.745h-4.719v-7.102h4.644v0.745h-3.725v2.384h3.552v0.745h-3.552V65.604z M217.339,66.349h-1.211
	l-2.26-3.193v-0.601c1.357-0.215,2.036-0.737,2.036-1.565c0-0.655-0.378-0.983-1.132-0.983h-2.027v6.342h-0.918v-7.102h3.029
	c1.351,0,2.025,0.568,2.025,1.704c0,0.924-0.66,1.608-1.98,2.051L217.339,66.349z"/>
</svg>
