<!-- Generator: Adobe Illustrator 21.0.2, SVG Export Plug-In  -->
<svg version="1.1"
	 xmlns="http://www.w3.org/2000/svg" xmlns:xlink="http://www.w3.org/1999/xlink" xmlns:a="http://ns.adobe.com/AdobeSVGViewerExtensions/3.0/"
	 x="0px" y="0px" width="24.008px" height="24.043px" viewBox="0 0 24.008 24.043"
	 style="enable-background:new 0 0 24.008 24.043;" xml:space="preserve">
<style type="text/css">
	.st0{fill:#ED669A;}
</style>
<defs>
</defs>
<path class="st0" d="M17.273,24.043c-0.103,0-0.216-0.004-0.324-0.011c-1.722-0.109-3.289-0.761-4.463-1.316
	c-3.045-1.473-5.716-3.564-7.94-6.218c-1.82-2.189-3.052-4.243-3.875-6.467c-0.337-0.908-0.772-2.288-0.65-3.77
	C0.102,5.339,0.475,4.54,1.129,3.887l1.72-1.734c1.047-1.006,2.481-0.999,3.477-0.011c0.328,0.303,0.651,0.631,0.951,0.941
	c0.146,0.156,0.301,0.311,0.452,0.461l1.399,1.399c1.078,1.079,1.078,2.475,0,3.554L8.593,9.038
	c-0.341,0.347-0.683,0.693-1.045,1.025c0.31,0.68,0.727,1.335,1.35,2.122c1.301,1.599,2.661,2.839,4.155,3.788
	c0.139,0.085,0.295,0.164,0.46,0.247l0.404,0.209l1.58-1.575c1.03-1.037,2.496-1.033,3.492,0.006l2.776,2.787
	c0.516,0.511,0.79,1.12,0.79,1.761c0,0.636-0.268,1.249-0.774,1.775c-0.218,0.229-0.44,0.447-0.659,0.654l-0.108,0.104
	c-0.277,0.271-0.539,0.523-0.774,0.809l-0.062,0.071C19.418,23.632,18.44,24.043,17.273,24.043z M4.615,2.826
	c-0.243,0-0.5,0.12-0.744,0.349L2.147,4.9C1.734,5.312,1.509,5.795,1.46,6.38C1.383,7.311,1.558,8.282,2.024,9.531
	c0.762,2.057,1.917,3.981,3.636,6.056c2.087,2.489,4.596,4.453,7.456,5.837c1.04,0.499,2.428,1.085,3.932,1.181
	c0.077,0.006,0.154,0.007,0.231,0.005c0.784,0,1.362-0.244,1.875-0.792c0.325-0.384,0.676-0.725,0.978-1.014l0.113-0.11
	c0.176-0.171,0.341-0.333,0.503-0.506c0.5-0.521,0.498-1.035-0.005-1.532l-2.798-2.796c-0.107-0.119-0.361-0.361-0.702-0.361
	c-0.242,0-0.497,0.128-0.738,0.37l-1.731,1.73c-0.093,0.091-0.364,0.358-0.794,0.358c-0.176,0-0.346-0.043-0.519-0.13l-0.086-0.05
	c-0.129-0.082-0.299-0.167-0.462-0.249c-0.218-0.108-0.432-0.216-0.637-0.346c-1.628-1.029-3.1-2.369-4.5-4.096
	c-0.785-0.996-1.291-1.821-1.645-2.681c-0.111-0.35-0.184-0.793,0.256-1.233C6.838,8.764,7.228,8.378,7.68,7.914
	c0.099-0.095,0.191-0.189,0.285-0.285l0.15-0.15c0.264-0.264,0.392-0.512,0.392-0.758c0-0.247-0.128-0.495-0.391-0.758L6.255,4.092
	C5.984,3.812,5.668,3.488,5.344,3.187C5.105,2.947,4.856,2.826,4.615,2.826z M18.947,11.645c-0.354,0-0.652-0.252-0.709-0.6
	c-0.227-1.318-0.85-2.52-1.8-3.469c-0.958-0.958-2.158-1.58-3.471-1.801c-0.188-0.031-0.353-0.135-0.461-0.29
	c-0.11-0.154-0.154-0.347-0.121-0.538c0.063-0.35,0.363-0.6,0.713-0.6l0.113,0.008c1.618,0.276,3.085,1.037,4.25,2.201
	c1.166,1.167,1.927,2.635,2.201,4.245c0.031,0.192-0.013,0.382-0.123,0.538c-0.111,0.157-0.276,0.262-0.466,0.294L18.947,11.645z
	 M23.288,11.436c-0.354,0-0.651-0.251-0.709-0.597c-0.398-2.351-1.509-4.494-3.212-6.196c-1.708-1.703-3.852-2.815-6.199-3.214
	c-0.396-0.068-0.655-0.434-0.591-0.831C12.64,0.249,12.935,0,13.281,0l0.113,0.009c2.658,0.454,5.071,1.705,6.987,3.62
	c1.915,1.916,3.166,4.328,3.617,6.976c0.033,0.188-0.01,0.378-0.121,0.534c-0.113,0.157-0.277,0.259-0.465,0.287L23.288,11.436z"/>
</svg>