<!-- Generator: Adobe Illustrator 21.0.2, SVG Export Plug-In  -->
<svg version="1.1"
	 xmlns="http://www.w3.org/2000/svg" xmlns:xlink="http://www.w3.org/1999/xlink" xmlns:a="http://ns.adobe.com/AdobeSVGViewerExtensions/3.0/"
	 x="0px" y="0px" width="99.008px" height="100.878px" viewBox="0 0 99.008 100.878"
	 style="enable-background:new 0 0 99.008 100.878;" xml:space="preserve">
<style type="text/css">
	.st0{fill:#FFFFFF;}
	.st1{fill:none;stroke:#FFFFFF;stroke-width:2;stroke-linecap:round;stroke-linejoin:round;stroke-miterlimit:10;}
</style>
<defs>
</defs>
<g>
	<path class="st0" d="M88.941,100.878H13.575c-0.552,0-1-0.448-1-1s0.448-1,1-1h75.366c4.448,0,8.067-3.618,8.067-8.066V10.068
		C97.008,5.619,93.389,2,88.941,2H22.642c-4.448,0-8.067,3.619-8.067,8.068v76.363c0,0.552-0.448,1-1,1s-1-0.448-1-1V10.068
		C12.575,4.516,17.091,0,22.642,0h66.299c5.551,0,10.067,4.516,10.067,10.068v80.744C99.008,96.363,94.492,100.878,88.941,100.878z"
		/>
	<path class="st0" d="M13.575,100.878h-3.508C4.516,100.878,0,96.363,0,90.812V26.74c0-5.551,4.516-10.067,10.067-10.067h3.508
		c0.552,0,1,0.448,1,1s-0.448,1-1,1h-3.508C5.619,18.673,2,22.292,2,26.74v64.072c0,4.448,3.619,8.066,8.067,8.066h3.508
		c0.552,0,1,0.448,1,1S14.127,100.878,13.575,100.878z"/>
	<path class="st1" d="M13.575,93.429"/>
	<path class="st0" d="M46.285,40.72H30.041c-3.621,0-6.567-2.946-6.567-6.567V17.909c0-3.621,2.946-6.567,6.567-6.567h16.245
		c3.621,0,6.567,2.946,6.567,6.567v16.244C52.852,37.774,49.906,40.72,46.285,40.72z M30.041,13.342
		c-2.518,0-4.567,2.049-4.567,4.567v16.245c0,2.518,2.049,4.567,4.567,4.567h16.244c2.519,0,4.567-2.049,4.567-4.567V17.909
		c0-2.518-2.049-4.567-4.567-4.567H30.041z"/>
	<path class="st0" d="M46.793,36.23H29.532c-0.864,0-1.567-0.703-1.567-1.567V17.4c0-0.864,0.703-1.567,1.567-1.567h17.263
		c0.864,0,1.567,0.703,1.567,1.568v17.261C48.362,35.526,47.658,36.23,46.793,36.23z M29.965,34.23h16.397V17.833H29.965V34.23z"/>
	<path class="st0" d="M88.233,19.842H60.229c-0.552,0-1-0.448-1-1s0.448-1,1-1h28.004c0.552,0,1,0.448,1,1
		S88.785,19.842,88.233,19.842z"/>
	<path class="st0" d="M88.233,29.628H60.229c-0.552,0-1-0.448-1-1s0.448-1,1-1h28.004c0.552,0,1,0.448,1,1
		S88.785,29.628,88.233,29.628z"/>
	<path class="st0" d="M88.233,39.413H60.229c-0.552,0-1-0.448-1-1s0.448-1,1-1h28.004c0.552,0,1,0.448,1,1
		S88.785,39.413,88.233,39.413z"/>
	<path class="st0" d="M88.233,49.198H24.474c-0.552,0-1-0.448-1-1s0.448-1,1-1h63.759c0.552,0,1,0.448,1,1
		S88.785,49.198,88.233,49.198z"/>
	<path class="st0" d="M88.233,58.984H24.474c-0.552,0-1-0.448-1-1s0.448-1,1-1h63.759c0.552,0,1,0.448,1,1
		S88.785,58.984,88.233,58.984z"/>
	<path class="st0" d="M88.233,68.769H60.229c-0.552,0-1-0.448-1-1s0.448-1,1-1h28.004c0.552,0,1,0.448,1,1
		S88.785,68.769,88.233,68.769z M52.165,68.769H24.161c-0.552,0-1-0.448-1-1s0.448-1,1-1h28.004c0.552,0,1,0.448,1,1
		S52.718,68.769,52.165,68.769z"/>
	<path class="st0" d="M51.586,78.745H23.582c-0.552,0-1-0.448-1-1s0.448-1,1-1h28.004c0.552,0,1,0.448,1,1
		S52.138,78.745,51.586,78.745z M88.233,78.554H60.229c-0.552,0-1-0.448-1-1s0.448-1,1-1h28.004c0.552,0,1,0.448,1,1
		S88.785,78.554,88.233,78.554z"/>
	<path class="st0" d="M88.233,88.53H60.229c-0.552,0-1-0.448-1-1s0.448-1,1-1h28.004c0.552,0,1,0.448,1,1S88.785,88.53,88.233,88.53
		z M52.165,88.53H24.161c-0.552,0-1-0.448-1-1s0.448-1,1-1h28.004c0.552,0,1,0.448,1,1S52.718,88.53,52.165,88.53z"/>
</g>
</svg>