<!-- Generator: Adobe Illustrator 21.0.2, SVG Export Plug-In  -->
<svg version="1.1"
	 xmlns="http://www.w3.org/2000/svg" xmlns:xlink="http://www.w3.org/1999/xlink" xmlns:a="http://ns.adobe.com/AdobeSVGViewerExtensions/3.0/"
	 x="0px" y="0px" width="117.262px" height="97.598px" viewBox="0 0 117.262 97.598"
	 style="enable-background:new 0 0 117.262 97.598;" xml:space="preserve">
<style type="text/css">
	.st0{fill:#ED669A;}
</style>
<defs>
</defs>
<path class="st0" d="M59.279,97.598c-9.682,0-19.364-1.398-28.777-4.196c-0.424-0.126-0.715-0.516-0.715-0.958V74.534
	c0-12.641,10.284-22.925,22.925-22.925h13.134c12.641,0,22.925,10.284,22.925,22.925v17.909c0,0.443-0.291,0.833-0.715,0.958
	C78.642,96.199,68.96,97.598,59.279,97.598z M31.787,91.695c18.004,5.205,36.98,5.205,54.984,0v-17.16
	c0-11.538-9.387-20.925-20.925-20.925H52.712c-11.538,0-20.925,9.387-20.925,20.925V91.695z M87.771,92.444h0.01H87.771z
	 M26.011,80.323c-0.012,0-0.024,0-0.036-0.001C17.414,80.024,8.915,78.637,0.715,76.2C0.291,76.074,0,75.685,0,75.242V57.333
	c0-12.641,10.284-22.925,22.925-22.925h13.134c0.807,0,1.639,0.045,2.471,0.134c0.549,0.059,0.947,0.552,0.888,1.101
	c-0.059,0.549-0.553,0.949-1.101,0.888c-0.762-0.082-1.521-0.123-2.258-0.123H22.925C11.387,36.407,2,45.794,2,57.333v17.16
	c7.816,2.258,15.902,3.547,24.046,3.83c0.552,0.019,0.984,0.482,0.965,1.034C26.991,79.898,26.548,80.323,26.011,80.323z
	 M92.545,80.257c-0.531,0-0.973-0.417-0.998-0.952c-0.026-0.552,0.399-1.02,0.951-1.046c7.735-0.369,15.39-1.636,22.764-3.765
	v-17.16c0-11.538-9.387-20.925-20.925-20.925H81.204c-0.34,0-0.677,0.009-1.013,0.026c-0.558,0.022-1.021-0.399-1.047-0.95
	c-0.027-0.552,0.399-1.021,0.95-1.047c0.368-0.018,0.738-0.028,1.11-0.028h13.133c12.641,0,22.925,10.284,22.925,22.925v17.909
	c0,0.443-0.291,0.833-0.715,0.958c-7.748,2.302-15.807,3.666-23.954,4.055C92.578,80.256,92.561,80.257,92.545,80.257z
	 M59.279,51.438c-9.439,0-17.119-7.679-17.119-17.119c0-9.439,7.679-17.118,17.119-17.118c9.439,0,17.118,7.679,17.118,17.118
	C76.397,43.759,68.718,51.438,59.279,51.438z M59.279,19.202c-8.336,0-15.119,6.782-15.119,15.118
	c0,8.336,6.782,15.119,15.119,15.119c8.336,0,15.118-6.782,15.118-15.119C74.397,25.984,67.615,19.202,59.279,19.202z
	 M87.771,34.237c-2.904,0-5.78-0.748-8.318-2.162c-0.482-0.269-0.656-0.878-0.387-1.36c0.269-0.482,0.878-0.656,1.36-0.387
	c2.241,1.249,4.781,1.909,7.345,1.909c8.336,0,15.118-6.782,15.118-15.119C102.888,8.782,96.106,2,87.771,2
	c-8.336,0-15.118,6.782-15.118,15.118c0,0.049,0.004,0.097,0.008,0.146c0.005,0.075,0.01,0.151,0.011,0.227
	c0.011,0.552-0.427,1.009-0.979,1.02c-0.555,0.016-1.009-0.427-1.02-0.979l-0.007-0.129c-0.006-0.094-0.012-0.188-0.012-0.284
	C70.652,7.679,78.332,0,87.771,0s17.118,7.679,17.118,17.118C104.888,26.557,97.209,34.237,87.771,34.237z M29.491,34.237
	c-9.439,0-17.118-7.679-17.118-17.119C12.374,7.679,20.052,0,29.491,0C38.931,0,46.61,7.679,46.61,17.118
	c0,0.48-0.026,0.995-0.079,1.575c-0.051,0.55-0.541,0.955-1.087,0.905c-0.55-0.051-0.955-0.537-0.905-1.087
	c0.048-0.519,0.071-0.974,0.071-1.393C44.61,8.782,37.828,2,29.491,2c-8.336,0-15.118,6.782-15.118,15.118
	c0,8.336,6.782,15.119,15.118,15.119c3.131,0,6.144-0.96,8.712-2.777c0.451-0.319,1.075-0.212,1.394,0.239
	c0.319,0.451,0.212,1.075-0.239,1.394C36.451,33.15,33.039,34.237,29.491,34.237z"/>
</svg>