<!-- Generator: Adobe Illustrator 21.0.2, SVG Export Plug-In  -->
<svg version="1.1"
	 xmlns="http://www.w3.org/2000/svg" xmlns:xlink="http://www.w3.org/1999/xlink" xmlns:a="http://ns.adobe.com/AdobeSVGViewerExtensions/3.0/"
	 x="0px" y="0px" width="270.688px" height="228.904px" viewBox="0 0 270.688 228.904"
	 style="enable-background:new 0 0 270.688 228.904;" xml:space="preserve">
<style type="text/css">
	.st0{fill:#F1F1F1;}
	.st1{opacity:0.55;fill:#FF1854;}
</style>
<defs>
</defs>
<g>
	<path class="st0" d="M161.469,0v32.676c-8.643,4.86-15.259,10.935-19.848,18.226c-4.592,7.292-8.059,14.947-10.395,22.955
		c-2.342,8.012-3.512,16.97-3.512,26.87h33.756v71.29H90.177v-44.286c0-26.643,2.521-46.942,7.562-60.895
		c5.039-13.949,12.828-26.777,23.358-38.482C131.63,16.655,145.085,7.202,161.469,0z"/>
	<path class="st0" d="M71.292,0v32.676c-8.643,4.86-15.259,10.935-19.849,18.226c-4.591,7.292-8.059,14.947-10.396,22.955
		c-2.341,8.012-3.511,16.97-3.511,26.87h33.756v71.29H0v-44.286c0-26.643,2.519-46.942,7.562-60.895
		C12.601,52.887,20.39,40.059,30.92,28.353C41.452,16.655,54.908,7.202,71.292,0z"/>
</g>
<path class="st1" d="M205.345,228.904h-87.884v-29.099h71.715c20.145,0,36.476-16.331,36.476-36.475v-19.554
	c0-20.145-16.331-36.475-36.476-36.475H161.47v64.715h-44.009V78.983h87.884c36.087,0,65.342,29.256,65.342,65.343v19.236
	C270.688,199.65,241.433,228.904,205.345,228.904z"/>
</svg>