<!-- Generator: Adobe Illustrator 21.0.2, SVG Export Plug-In  -->
<svg version="1.1"
	 xmlns="http://www.w3.org/2000/svg" xmlns:xlink="http://www.w3.org/1999/xlink" xmlns:a="http://ns.adobe.com/AdobeSVGViewerExtensions/3.0/"
	 x="0px" y="0px" width="123.656px" height="102.225px" viewBox="0 0 123.656 102.225"
	 style="enable-background:new 0 0 123.656 102.225;" xml:space="preserve">
<style type="text/css">
	.st0{fill:#FFFFFF;}
</style>
<defs>
</defs>
<g>
	<path class="st0" d="M72.48,102.225H39.278C17.62,102.225,0,84.605,0,62.946V13.955C0,7.923,4.908,3.016,10.94,3.016h61.54
		c6.032,0,10.94,4.907,10.94,10.939v4.521c0,0.552-0.448,1-1,1s-1-0.448-1-1v-4.521c0-4.929-4.01-8.939-8.94-8.939H10.94
		C6.01,5.016,2,9.026,2,13.955v48.991c0,20.555,16.723,37.278,37.278,37.278H72.48c4.929,0,8.94-4.01,8.94-8.94V61.866
		c0-0.552,0.448-1,1-1s1,0.448,1,1v29.419C83.42,97.317,78.512,102.225,72.48,102.225z"/>
	<path class="st0" d="M28.242,100.602c-0.096,0-0.193-0.014-0.288-0.042C15.004,96.666,4.8,86.133,1.324,73.07
		c-0.08-0.3-0.016-0.62,0.174-0.866c0.189-0.246,0.482-0.391,0.793-0.391h19.766c3.962,0,7.186,3.224,7.186,7.186v20.603
		c0,0.316-0.15,0.614-0.403,0.802C28.664,100.534,28.454,100.602,28.242,100.602z M3.615,73.813
		c3.471,11.382,12.363,20.57,23.626,24.418V78.999c0-2.859-2.326-5.186-5.186-5.186H3.615z"/>
	<path class="st0" d="M114.855,21.216c-0.992,0-1.983-0.388-2.722-1.159l-8.373-8.731c-0.697-0.727-1.07-1.682-1.048-2.689
		c0.021-1.007,0.433-1.945,1.16-2.642l2.057-1.972c0.727-0.697,1.682-1.074,2.689-1.049c1.007,0.021,1.946,0.433,2.643,1.16
		l8.373,8.731c0.697,0.727,1.07,1.682,1.049,2.689c-0.021,1.007-0.433,1.946-1.16,2.643l-2.057,1.972
		C116.734,20.869,115.794,21.216,114.855,21.216z M108.538,4.974c-0.441,0-0.883,0.163-1.226,0.492l-2.057,1.972
		c-0.341,0.327-0.535,0.768-0.545,1.241c-0.01,0.473,0.165,0.921,0.492,1.262l8.373,8.731l0,0c0.676,0.705,1.799,0.729,2.503,0.052
		l2.057-1.972c0.342-0.327,0.535-0.768,0.545-1.241c0.01-0.473-0.165-0.921-0.492-1.263l-8.373-8.731
		C109.469,5.156,109.003,4.974,108.538,4.974z"/>
	<path class="st0" d="M63.897,74.719c-0.123,0-0.248-0.023-0.366-0.07c-0.364-0.143-0.61-0.485-0.632-0.875l-0.284-5.136l-4.549,0
		c-0.272,0-0.533-0.111-0.721-0.308l-2.675-2.789c-0.161-0.168-0.259-0.388-0.275-0.62l-0.366-5.095l-6.15-1.584
		c-0.351-0.091-0.626-0.364-0.718-0.715c-0.092-0.351,0.013-0.724,0.275-0.975l57.392-55.038c1.049-1.006,2.436-1.542,3.879-1.512
		c1.453,0.031,2.807,0.625,3.813,1.674l9.625,10.036c1.006,1.049,1.543,2.426,1.512,3.879c-0.03,1.453-0.625,2.807-1.673,3.812
		L64.589,74.441C64.399,74.623,64.15,74.719,63.897,74.719z M58.491,66.638l5.069,0.001c0.531,0,0.969,0.415,0.998,0.945
		l0.217,3.908l55.822-53.532c0.663-0.636,1.039-1.492,1.058-2.411c0.019-0.919-0.32-1.79-0.956-2.453l-9.625-10.036
		c-0.636-0.663-1.492-1.039-2.411-1.058c-0.916-0.023-1.79,0.32-2.453,0.956l0,0L50.114,56.753l5.108,1.315
		c0.416,0.107,0.717,0.468,0.748,0.897l0.392,5.452L58.491,66.638z M105.518,2.235h0.01H105.518z"/>
	<path class="st0" d="M41.368,81.955c-0.648,0-1.287-0.261-1.747-0.741c-0.635-0.664-0.84-1.648-0.52-2.509l2.066-5.564l0,0
		c0.291-0.783,0.953-1.352,1.771-1.522c0.818-0.169,1.652,0.089,2.23,0.693l3.58,3.733c0.578,0.604,0.802,1.447,0.598,2.258
		s-0.8,1.448-1.594,1.706l-5.646,1.831C41.865,81.917,41.616,81.955,41.368,81.955z M43.042,73.837l-2.066,5.564
		c-0.055,0.147-0.02,0.315,0.089,0.429c0.108,0.113,0.274,0.155,0.424,0.106l5.646-1.831c0.188-0.061,0.251-0.209,0.272-0.291
		c0.021-0.083,0.035-0.242-0.102-0.386l-3.58-3.733c-0.137-0.143-0.297-0.134-0.381-0.118
		C43.261,73.594,43.111,73.651,43.042,73.837L43.042,73.837z"/>
	<path class="st0" d="M41.368,81.955c-0.649,0-1.287-0.261-1.747-0.741c-0.636-0.664-0.84-1.648-0.52-2.509l8.087-21.78
		c0.178-0.48,0.692-0.748,1.187-0.62l6.847,1.763c0.416,0.107,0.717,0.468,0.748,0.897l0.392,5.452l2.129,2.221l5.069,0.001
		c0.531,0,0.969,0.415,0.998,0.945l0.337,6.081c0.025,0.453-0.258,0.867-0.69,1.007l-22.099,7.168
		C41.865,81.917,41.616,81.955,41.368,81.955z M48.749,58.467l-7.773,20.935c-0.055,0.147-0.02,0.315,0.089,0.429
		c0.108,0.113,0.274,0.155,0.424,0.106l21.367-6.93l-0.242-4.367l-4.549,0c-0.272,0-0.533-0.111-0.721-0.308l-2.674-2.789
		c-0.162-0.168-0.259-0.388-0.276-0.62l-0.366-5.095L48.749,58.467z"/>
</g>
</svg>