<!-- Generator: Adobe Illustrator 21.0.2, SVG Export Plug-In  -->
<svg version="1.1"
	 xmlns="http://www.w3.org/2000/svg" xmlns:xlink="http://www.w3.org/1999/xlink" xmlns:a="http://ns.adobe.com/AdobeSVGViewerExtensions/3.0/"
	 x="0px" y="0px" width="183.602px" height="200.104px" viewBox="0 0 183.602 200.104"
	 style="enable-background:new 0 0 183.602 200.104;" xml:space="preserve">
<style type="text/css">
	.st0{fill:#ED669A;}
</style>
<defs>
</defs>
<g>
	<g>
		<path class="st0" d="M161.37,155.982H14.21c-1.832,0-3.322-1.49-3.322-3.322V72.552c0-1.832,1.49-3.322,3.322-3.322h94.599
			c0.552,0,1,0.447,1,1s-0.448,1-1,1H14.21c-0.729,0-1.322,0.593-1.322,1.322v80.108c0,0.729,0.593,1.322,1.322,1.322h147.16
			c0.729,0,1.323-0.593,1.323-1.322V72.552c0-0.729-0.593-1.322-1.323-1.322h-19.021c-0.552,0-1-0.447-1-1s0.448-1,1-1h19.021
			c1.832,0,3.323,1.49,3.323,3.322v80.108C164.693,154.492,163.202,155.982,161.37,155.982z"/>
		<path class="st0" d="M166.405,175.268H9.176c-5.06,0-9.176-4.115-9.176-9.174V67.516c0-5.059,4.116-9.174,9.176-9.174h107.522
			c0.552,0,1,0.447,1,1s-0.448,1-1,1H9.176C5.219,60.343,2,63.56,2,67.516v98.578c0,3.956,3.219,7.174,7.176,7.174h157.229
			c3.956,0,7.175-3.218,7.175-7.174V67.516c0-3.956-3.219-7.174-7.175-7.174h-14.402c-0.552,0-1-0.447-1-1s0.448-1,1-1h14.402
			c5.059,0,9.175,4.115,9.175,9.174v98.578C175.581,171.153,171.465,175.268,166.405,175.268z"/>
		<path class="st0" d="M116.696,200.104H58.885c-0.552,0-1-0.447-1-1c0-1.446,1.631-2.213,3.695-3.184c2-0.94,4.49-2.11,5.448-3.895
			c0.708-1.318,1.166-3.231,1.571-4.919c0.686-2.86,1.228-5.12,3.009-5.12h32.365c1.781,0,2.323,2.259,3.008,5.118
			c0.405,1.688,0.863,3.602,1.572,4.92c0,0.001,0,0.001,0,0.001c0.958,1.784,3.448,2.954,5.448,3.895
			c2.064,0.971,3.695,1.737,3.695,3.184C117.696,199.657,117.248,200.104,116.696,200.104z M61.645,198.104h52.29
			c-0.269-0.13-0.538-0.257-0.785-0.373c-2.267-1.065-5.089-2.393-6.359-4.759l0,0c-0.831-1.547-1.322-3.595-1.754-5.4
			c-0.306-1.276-0.763-3.183-1.16-3.585H71.705c-0.398,0.402-0.855,2.31-1.161,3.587c-0.433,1.805-0.924,3.852-1.754,5.397
			c-1.271,2.367-4.092,3.694-6.359,4.76C62.184,197.848,61.914,197.974,61.645,198.104z"/>
	</g>
	<path class="st0" d="M102.723,106.583c-0.669,0-1.307-0.242-1.811-0.69l-5.704-5.068c-1.055-0.936-1.226-2.503-0.398-3.646
		l66.733-92.093c2.066-2.891,5.288-4.729,8.835-5.038c3.548-0.315,7.039,0.944,9.579,3.441c4.656,4.575,4.881,11.959,0.514,16.81
		l-75.699,85.364c-0.485,0.547-1.153,0.872-1.883,0.915C102.833,106.581,102.778,106.583,102.723,106.583z M171.436,2.002
		c-0.294,0-0.589,0.013-0.885,0.038c-2.963,0.258-5.655,1.794-7.385,4.214L96.429,98.352c-0.222,0.306-0.176,0.726,0.107,0.977
		l5.704,5.069c0,0,0,0,0,0c0.146,0.13,0.333,0.199,0.529,0.184c0.196-0.012,0.375-0.099,0.505-0.245l75.704-85.37
		c3.654-4.059,3.466-10.229-0.424-14.052C176.644,3.038,174.089,2.002,171.436,2.002z"/>
	<path class="st0" d="M75.265,127.524c-5.132,0-10.919-0.388-17.361-0.899c-0.485-0.039-0.873-0.422-0.917-0.906
		c-0.044-0.485,0.268-0.932,0.738-1.057c1.602-0.428,3.264-0.678,4.87-0.92c5.796-0.872,10.802-1.625,12.024-10.041
		c0.693-4.773,2.548-8.185,5.514-10.141c3.893-2.566,8.253-1.688,9.497-1.354c3.046,0.811,9.713,4.569,11.323,9.581
		c0.871,2.712,0.24,5.389-1.875,7.956C94.112,125.773,86.169,127.524,75.265,127.524z M66.063,125.19
		c17.052,0.988,26.106-0.203,31.471-6.718c1.677-2.036,2.173-4.023,1.514-6.072c-1.404-4.373-7.59-7.637-9.933-8.262
		c-2.144-0.572-5.339-0.584-7.881,1.092c-2.468,1.628-4.028,4.574-4.635,8.758C75.415,122.138,70.968,124.207,66.063,125.19z"/>
</g>
</svg>