<!-- Generator: Adobe Illustrator 21.0.2, SVG Export Plug-In  -->
<svg version="1.1"
	 xmlns="http://www.w3.org/2000/svg" xmlns:xlink="http://www.w3.org/1999/xlink" xmlns:a="http://ns.adobe.com/AdobeSVGViewerExtensions/3.0/"
	 x="0px" y="0px" width="213.548px" height="142.604px" viewBox="0 0 213.548 142.604"
	 style="enable-background:new 0 0 213.548 142.604;" xml:space="preserve">
<style type="text/css">
	.st0{fill:#ED669A;}
</style>
<defs>
</defs>
<g>
	<g>
		<path class="st0" d="M133.77,116.746H9.163c-5.052,0-9.163-4.11-9.163-9.162V9.162C0,4.11,4.11,0,9.163,0h156.983
			c5.052,0,9.162,4.11,9.162,9.162v54.75c0,0.553-0.448,1-1,1s-1-0.447-1-1V9.162c0-3.949-3.213-7.162-7.162-7.162H9.163
			C5.213,2,2,5.213,2,9.162v98.422c0,3.949,3.213,7.162,7.163,7.162H133.77c0.552,0,1,0.447,1,1S134.322,116.746,133.77,116.746z"/>
		<path class="st0" d="M127.231,97.49H14.189c-1.83,0-3.319-1.488-3.319-3.318V14.189c0-1.83,1.489-3.319,3.319-3.319h146.93
			c1.83,0,3.318,1.489,3.318,3.319v44.744c0,0.553-0.448,1-1,1s-1-0.447-1-1V14.189c0-0.728-0.591-1.319-1.318-1.319H14.189
			c-0.727,0-1.319,0.592-1.319,1.319v79.982c0,0.727,0.592,1.318,1.319,1.318h113.042c0.552,0,1,0.447,1,1
			S127.783,97.49,127.231,97.49z"/>
		<path class="st0" d="M116.514,141.543h-57.72c-0.552,0-1-0.447-1-1c0-1.444,1.628-2.21,3.69-3.18
			c1.997-0.939,4.483-2.107,5.439-3.889c0.707-1.316,1.165-3.226,1.569-4.91c0.685-2.856,1.226-5.112,3.005-5.112h32.314
			c1.78,0,2.321,2.256,3.005,5.112c0.404,1.685,0.862,3.594,1.569,4.91l0,0c0.956,1.781,3.442,2.949,5.439,3.889
			c2.062,0.969,3.69,1.735,3.69,3.18C117.514,141.096,117.066,141.543,116.514,141.543z M61.556,139.543h52.194
			c-0.266-0.129-0.533-0.255-0.778-0.37c-2.264-1.064-5.081-2.389-6.35-4.753l0,0c-0.829-1.544-1.319-3.587-1.751-5.39
			c-0.305-1.273-0.761-3.176-1.158-3.578H71.594c-0.397,0.402-0.853,2.305-1.158,3.578c-0.432,1.803-0.922,3.846-1.751,5.39
			c-1.269,2.364-4.086,3.688-6.35,4.753C62.09,139.288,61.823,139.414,61.556,139.543z"/>
	</g>
	<path class="st0" d="M199.724,142.604c-0.916,0-1.827-0.361-2.518-1.071l-30.828-32.542c-0.32-0.329-0.778-0.493-1.249-0.439
		c-0.452,0.051-0.848,0.295-1.097,0.673l-11.451,25.646c-0.017,0.039-0.037,0.076-0.059,0.112c-0.718,1.181-2.018,1.824-3.391,1.67
		c-1.373-0.151-2.502-1.058-2.946-2.366l-28.291-83.314c-0.459-1.353-0.086-2.787,0.974-3.744c1.06-0.956,2.524-1.181,3.822-0.587
		l79.987,36.638c1.383,0.634,2.182,2.021,2.037,3.535c-0.145,1.513-1.193,2.723-2.671,3.082l-19.64,3.953
		c-0.514,0.126-0.929,0.534-1.072,1.085c-0.143,0.551,0.022,1.11,0.44,1.497l30.661,29.705c0.731,0.674,1.143,1.653,1.113,2.672
		c-0.029,1-0.482,1.938-1.243,2.582l-10.271,10.341c-0.024,0.023-0.049,0.047-0.075,0.068
		C201.299,142.339,200.51,142.604,199.724,142.604z M165.307,106.542c0.945,0,1.844,0.376,2.513,1.064l30.827,32.542
		c0.534,0.55,1.393,0.606,2.006,0.133l10.263-10.334c0.024-0.023,0.049-0.047,0.076-0.068c0.344-0.282,0.541-0.684,0.554-1.129
		c0.013-0.446-0.16-0.858-0.488-1.16l-30.661-29.706c-0.937-0.864-1.328-2.193-1.002-3.451c0.326-1.257,1.312-2.229,2.574-2.535
		l19.639-3.953c0.735-0.18,1.063-0.802,1.113-1.321s-0.155-1.193-0.879-1.525L121.857,48.46c-0.568-0.261-1.185-0.166-1.649,0.253
		c-0.465,0.42-0.622,1.024-0.42,1.617l28.291,83.314l0,0c0.194,0.573,0.669,0.954,1.271,1.021c0.58,0.061,1.115-0.188,1.434-0.674
		l11.452-25.646c0.017-0.039,0.037-0.076,0.059-0.112c0.57-0.937,1.521-1.545,2.61-1.668
		C165.039,106.549,165.174,106.542,165.307,106.542z"/>
</g>
</svg>