<!-- Generator: Adobe Illustrator 21.0.2, SVG Export Plug-In  -->
<svg version="1.1"
	 xmlns="http://www.w3.org/2000/svg" xmlns:xlink="http://www.w3.org/1999/xlink" xmlns:a="http://ns.adobe.com/AdobeSVGViewerExtensions/3.0/"
	 x="0px" y="0px" width="148.832px" height="99.593px" viewBox="0 0 148.832 99.593"
	 style="enable-background:new 0 0 148.832 99.593;" xml:space="preserve">
<style type="text/css">
	.st0{fill:#ED669A;}
</style>
<defs>
</defs>
<g>
	<g>
		<path class="st0" d="M93.154,81.644H6.666C2.99,81.644,0,78.654,0,74.979V6.665C0,2.99,2.99,0,6.666,0h108.96
			c3.675,0,6.665,2.99,6.665,6.665v38.002c0,0.552-0.448,1-1,1s-1-0.448-1-1V6.665c0-2.572-2.093-4.665-4.665-4.665H6.666
			C4.093,2,2,4.093,2,6.665v68.314c0,2.573,2.093,4.665,4.666,4.665h86.488c0.552,0,1,0.448,1,1S93.706,81.644,93.154,81.644z"/>
		<path class="st0" d="M88.615,68.279H10.154c-1.439,0-2.61-1.171-2.61-2.61V10.154c0-1.439,1.171-2.61,2.61-2.61h101.982
			c1.439,0,2.609,1.171,2.609,2.61v31.056c0,0.552-0.448,1-1,1s-1-0.448-1-1V10.154c0-0.336-0.273-0.61-0.609-0.61H10.154
			c-0.336,0-0.61,0.273-0.61,0.61v55.515c0,0.336,0.273,0.61,0.61,0.61h78.461c0.552,0,1,0.448,1,1S89.167,68.279,88.615,68.279z"/>
		<path class="st0" d="M81.177,98.855H41.114c-0.552,0-1-0.448-1-1c0-1.197,1.208-1.765,2.737-2.484
			c1.345-0.633,3.02-1.42,3.635-2.567c0.472-0.879,0.785-2.184,1.061-3.335c0.487-2.03,0.907-3.783,2.384-3.783h22.429
			c1.477,0,1.897,1.753,2.384,3.783c0.276,1.151,0.589,2.456,1.061,3.335l0,0c0.616,1.147,2.29,1.934,3.636,2.567
			c1.529,0.719,2.737,1.287,2.737,2.484C82.177,98.407,81.729,98.855,81.177,98.855z M80.241,98.094h0.01H80.241z M44.388,96.855
			h33.514c-1.459-0.707-3.06-1.614-3.861-3.105l0,0c-0.594-1.106-0.939-2.545-1.243-3.814c-0.18-0.752-0.444-1.85-0.668-2.25H50.16
			c-0.225,0.399-0.488,1.497-0.668,2.249c-0.304,1.27-0.649,2.708-1.243,3.815C47.448,95.241,45.847,96.148,44.388,96.855z"/>
	</g>
	<path class="st0" d="M138.931,99.593c-0.716,0-1.427-0.282-1.967-0.837l-21.4-22.59c-0.153-0.157-0.381-0.238-0.611-0.212
		c-0.215,0.024-0.404,0.137-0.527,0.312l-7.938,17.777c-0.017,0.039-0.037,0.076-0.059,0.112c-0.561,0.922-1.575,1.421-2.649,1.304
		c-1.073-0.118-1.954-0.826-2.301-1.848L81.844,35.783c-0.359-1.056-0.067-2.176,0.76-2.923s1.972-0.923,2.986-0.458l55.518,25.43
		c1.08,0.494,1.704,1.578,1.591,2.76s-0.932,2.127-2.086,2.408l-13.644,2.746c-0.354,0.087-0.474,0.4-0.508,0.531
		c-0.034,0.13-0.08,0.463,0.217,0.737l21.287,20.623c0.567,0.523,0.889,1.288,0.866,2.083c-0.023,0.776-0.372,1.505-0.961,2.009
		l-7.12,7.168c-0.024,0.024-0.049,0.047-0.075,0.068C140.162,99.385,139.545,99.593,138.931,99.593z M115.044,73.949
		c0.738,0,1.44,0.294,1.963,0.832l21.4,22.59c0.254,0.261,0.667,0.293,0.968,0.072l7.108-7.157c0.024-0.024,0.049-0.047,0.075-0.068
		c0.229-0.188,0.27-0.429,0.273-0.557s-0.022-0.37-0.24-0.572l-21.286-20.623c-0.728-0.671-1.033-1.709-0.779-2.691
		c0.254-0.982,1.025-1.741,2.011-1.981l13.644-2.746c0.441-0.108,0.517-0.522,0.529-0.647s0.016-0.545-0.433-0.751L84.758,34.22
		c-0.403-0.184-0.703,0.026-0.812,0.125s-0.35,0.375-0.207,0.795l19.636,57.829c0,0,0,0,0,0c0.138,0.407,0.484,0.487,0.626,0.503
		c0.138,0.016,0.469,0.012,0.693-0.312l7.938-17.778c0.017-0.038,0.037-0.076,0.059-0.112c0.445-0.732,1.188-1.207,2.038-1.303
		C114.834,73.955,114.939,73.949,115.044,73.949z"/>
</g>
</svg>