<!-- Generator: Adobe Illustrator 21.0.2, SVG Export Plug-In  -->
<svg version="1.1"
	 xmlns="http://www.w3.org/2000/svg" xmlns:xlink="http://www.w3.org/1999/xlink" xmlns:a="http://ns.adobe.com/AdobeSVGViewerExtensions/3.0/"
	 x="0px" y="0px" width="481.658px" height="117.745px" viewBox="0 0 481.658 117.745"
	 style="enable-background:new 0 0 481.658 117.745;" xml:space="preserve">
<style type="text/css">
	.st0{fill:#FFFFFF;}
</style>
<defs>
</defs>
<g>
	<path class="st0" d="M48.045,0.294H0v50.859h24.059V15.775h15.147c11.012,0,19.94,8.928,19.94,19.941v10.69
		c0,11.013-8.927,19.94-19.94,19.94H0v15.909h48.045c19.729,0,35.722-15.994,35.722-35.722V36.015
		C83.767,16.287,67.773,0.294,48.045,0.294z"/>
	<path class="st0" d="M119.332,35.754l-0.054,10.58c-0.101,19.847,15.907,36.018,35.754,36.117l48.332,0.244l0.259-51.164
		l-24.203-0.122L179.24,67l-15.237-0.078c-11.079-0.056-20.015-9.083-19.959-20.161l0.055-10.753
		c0.056-11.079,9.083-20.015,20.162-19.958l39.439,0.199l0.082-16.004L155.449,0C135.603-0.1,119.432,15.907,119.332,35.754z"/>
	<rect x="209.498" y="0.294" class="st0" width="24.083" height="82.255"/>
	<rect x="269.143" y="23.107" class="st0" width="24.096" height="59.302"/>
	<rect x="238.309" y="0.294" class="st0" width="85.765" height="15.609"/>
	<polygon class="st0" points="438.197,0.294 414.102,0.294 413.142,81.127 368.015,0.294 367.04,0.294 343.92,0.294 342.944,0.294 
		297.102,82.409 321.197,82.409 355.479,21 367.084,41.786 355.783,41.786 346.045,59.23 376.822,59.23 389.763,82.409 
		413.127,82.409 413.857,82.409 437.221,82.409 	"/>
	<rect x="443.807" y="66.8" class="st0" width="36.193" height="15.609"/>
	<rect x="89.751" y="0" class="st0" width="24.203" height="82.328"/>
	<path class="st0" d="M94.135,103.371h-5.227v14.373h5.227c4.758,0,7.137-2.526,7.137-7.578
		C101.271,105.636,98.893,103.371,94.135,103.371z M94.135,116.238h-3.367v-11.358h3.367c3.518,0,5.277,1.762,5.277,5.287
		C99.412,114.214,97.653,116.238,94.135,116.238z"/>
	<polygon class="st0" points="7.64,115.363 2.362,103.371 0,103.371 0,117.745 1.659,117.745 1.659,105.954 6.845,117.745 
		8.312,117.745 13.418,105.954 13.418,117.745 15.077,117.745 15.077,103.371 12.816,103.371 	"/>
	<polygon class="st0" points="430.67,111.212 437.856,111.212 437.856,109.704 430.67,109.704 430.67,104.879 438.208,104.879 
		438.208,103.371 428.81,103.371 428.81,117.745 438.359,117.745 438.359,116.238 430.67,116.238 	"/>
	<polygon class="st0" points="49.077,111.212 56.265,111.212 56.265,109.704 49.077,109.704 49.077,104.879 56.616,104.879 
		56.616,103.371 47.218,103.371 47.218,117.745 56.768,117.745 56.768,116.238 49.077,116.238 	"/>
	<path class="st0" d="M476.723,110.97c2.673-0.898,4.01-2.282,4.01-4.151c0-2.299-1.367-3.448-4.101-3.448H470.5v14.373h1.859
		v-12.836h4.101c1.528,0,2.292,0.664,2.292,1.99c0,1.676-1.374,2.731-4.121,3.166v1.217l4.574,6.463h2.453L476.723,110.97z"/>
	<polygon class="st0" points="341.208,104.879 345.732,104.879 345.732,117.745 347.591,117.745 347.591,104.879 352.115,104.879 
		352.115,103.371 341.208,103.371 	"/>
	<polygon class="st0" points="257.579,103.371 251.476,117.745 253.407,117.745 258.543,105.2 261.227,111.714 257.608,111.714 
		257.095,113.222 261.851,113.222 263.71,117.745 265.77,117.745 259.639,103.371 	"/>
	<path class="st0" d="M214.932,103.371h-5.83v14.373h1.86v-12.836h3.8c1.728,0,2.593,0.797,2.593,2.393
		c0,1.876-1.474,3.033-4.423,3.468l0.382,1.568c4.014-0.616,6.021-2.322,6.021-5.116
		C219.335,104.655,217.867,103.371,214.932,103.371z"/>
	<rect x="133.413" y="103.371" class="st0" width="1.86" height="14.373"/>
	<path class="st0" d="M308.143,106.819c0-2.299-1.368-3.448-4.101-3.448h-6.132v14.373h1.86v-12.836h4.101
		c1.528,0,2.292,0.664,2.292,1.99c0,1.676-1.374,2.731-4.122,3.166v1.217l4.574,6.463h2.452l-4.935-6.774
		C306.806,110.072,308.143,108.689,308.143,106.819z"/>
	<polygon class="st0" points="169.272,111.212 176.459,111.212 176.459,109.704 169.272,109.704 169.272,104.879 176.811,104.879 
		176.811,103.371 167.413,103.371 167.413,117.745 176.962,117.745 176.962,116.238 169.272,116.238 	"/>
	<polygon class="st0" points="394.91,114.951 386.115,103.371 384.255,103.371 384.255,117.745 386.015,117.745 386.015,106.065 
		394.81,117.745 396.669,117.745 396.669,103.371 394.91,103.371 	"/>
</g>
</svg>