<!-- Generator: Adobe Illustrator 21.0.2, SVG Export Plug-In  -->
<svg version="1.1"
	 xmlns="http://www.w3.org/2000/svg" xmlns:xlink="http://www.w3.org/1999/xlink" xmlns:a="http://ns.adobe.com/AdobeSVGViewerExtensions/3.0/"
	 x="0px" y="0px" width="168.063px" height="139.731px" viewBox="0 0 168.063 139.731"
	 style="enable-background:new 0 0 168.063 139.731;" xml:space="preserve">
<style type="text/css">
	.st0{fill:#4D4D4D;}
</style>
<defs>
</defs>
<path class="st0" d="M84.965,139.731c-13.907,0-27.814-2.009-41.334-6.025c-0.424-0.126-0.715-0.517-0.715-0.959v-25.803
	c0-17.97,14.619-32.59,32.588-32.59h18.922c17.969,0,32.589,14.62,32.589,32.59v25.803c0,0.442-0.291,0.833-0.715,0.959
	C112.778,137.723,98.872,139.731,84.965,139.731z M44.915,131.999c26.22,7.645,53.879,7.645,80.099,0v-25.055
	c0-16.867-13.722-30.59-30.589-30.59H75.503c-16.866,0-30.588,13.723-30.588,30.59V131.999z M126.014,132.747h0.01H126.014z
	 M37.035,114.843c-0.012,0-0.024,0-0.035-0.001c-12.295-0.428-24.503-2.419-36.284-5.919C0.291,108.797,0,108.406,0,107.964V82.161
	c0-17.97,14.619-32.589,32.588-32.589H51.51c1.148,0,2.33,0.064,3.513,0.191c0.549,0.059,0.947,0.552,0.888,1.101
	c-0.059,0.549-0.549,0.947-1.101,0.888c-1.112-0.119-2.222-0.18-3.3-0.18H32.588C15.722,51.572,2,65.294,2,82.161v25.055
	c11.397,3.321,23.192,5.214,35.069,5.628c0.552,0.019,0.984,0.481,0.965,1.034C38.015,114.418,37.571,114.843,37.035,114.843z
	 M132.894,114.748c-0.531,0-0.973-0.417-0.998-0.952c-0.026-0.552,0.399-1.021,0.951-1.047c11.287-0.538,22.458-2.399,33.217-5.533
	V82.161c0-16.867-13.722-30.589-30.588-30.589h-18.922c-0.498,0-0.991,0.015-1.483,0.037c-0.543,0.042-1.02-0.401-1.045-0.953
	c-0.025-0.552,0.401-1.02,0.953-1.045c0.522-0.024,1.047-0.039,1.575-0.039h18.922c17.969,0,32.588,14.619,32.588,32.589v25.803
	c0,0.442-0.291,0.833-0.715,0.959c-11.132,3.307-22.708,5.266-34.406,5.824C132.926,114.748,132.91,114.748,132.894,114.748z
	 M84.965,73.228c-13.356,0-24.223-10.866-24.223-24.223c0-13.355,10.866-24.222,24.223-24.222c13.356,0,24.222,10.866,24.222,24.222
	C109.187,62.361,98.321,73.228,84.965,73.228z M84.965,26.783c-12.254,0-22.223,9.969-22.223,22.222
	c0,12.254,9.969,22.223,22.223,22.223c12.253,0,22.222-9.969,22.222-22.223C107.187,36.752,97.218,26.783,84.965,26.783z
	 M126.014,48.444c-4.108,0-8.178-1.058-11.77-3.058c-0.482-0.27-0.656-0.878-0.387-1.36c0.269-0.482,0.877-0.652,1.36-0.388
	c3.295,1.836,7.028,2.806,10.797,2.806c12.253,0,22.222-9.969,22.222-22.223C148.236,11.969,138.267,2,126.014,2
	c-12.253,0-22.222,9.969-22.222,22.222c0,0.081,0.006,0.161,0.012,0.24c0.007,0.102,0.014,0.203,0.016,0.306
	c0.011,0.552-0.427,1.009-0.979,1.021c-0.519,0.022-1.009-0.428-1.02-0.979c-0.001-0.069-0.007-0.139-0.011-0.208
	c-0.009-0.126-0.017-0.251-0.017-0.379C101.792,10.866,112.658,0,126.014,0c13.356,0,24.222,10.866,24.222,24.222
	C150.236,37.578,139.37,48.444,126.014,48.444z M42.049,48.444c-13.356,0-24.222-10.866-24.222-24.223
	C17.827,10.866,28.693,0,42.049,0c13.356,0,24.223,10.866,24.223,24.222c0,0.685-0.036,1.394-0.112,2.229
	c-0.05,0.551-0.536,0.953-1.087,0.905c-0.55-0.051-0.955-0.537-0.905-1.087c0.071-0.774,0.104-1.425,0.104-2.048
	C64.271,11.969,54.302,2,42.049,2c-12.253,0-22.222,9.969-22.222,22.222c0,12.254,9.969,22.223,22.222,22.223
	c4.604,0,9.032-1.411,12.806-4.08c0.451-0.319,1.075-0.21,1.394,0.239c0.319,0.45,0.212,1.075-0.239,1.394
	C51.896,46.906,47.068,48.444,42.049,48.444z"/>
</svg>