<!-- Generator: Adobe Illustrator 21.0.2, SVG Export Plug-In  -->
<svg version="1.1"
	 xmlns="http://www.w3.org/2000/svg" xmlns:xlink="http://www.w3.org/1999/xlink" xmlns:a="http://ns.adobe.com/AdobeSVGViewerExtensions/3.0/"
	 x="0px" y="0px" width="145.936px" height="145.937px" viewBox="0 0 145.936 145.937"
	 style="enable-background:new 0 0 145.936 145.937;" xml:space="preserve">
<style type="text/css">
	.st0{fill:#ED669A;}
</style>
<defs>
</defs>
<path class="st0" d="M138.203,145.937h-9.48c-4.115-0.001-7.501-3.185-7.71-7.247c-1.526-29.648-13.983-57.594-35.078-78.688
	S36.895,26.449,7.247,24.923C3.183,24.715,0,21.329,0,17.214V7.734c0-2.112,0.877-4.16,2.406-5.618
	c1.529-1.458,3.527-2.21,5.623-2.106l0,0c36.051,1.72,69.991,16.753,95.568,42.33c25.577,25.577,40.61,59.518,42.33,95.568
	c0.1,2.097-0.648,4.094-2.106,5.623S140.315,145.937,138.203,145.937z M7.661,2.001c-1.445,0-2.812,0.549-3.875,1.562
	C2.634,4.662,2,6.143,2,7.734v9.479c0,3.05,2.35,5.559,5.349,5.712c30.144,1.552,58.555,14.217,80,35.662
	c21.445,21.445,34.11,49.856,35.661,79.999c0.154,3,2.663,5.35,5.713,5.351h9.48c1.591,0,3.072-0.635,4.171-1.787
	c1.077-1.129,1.63-2.602,1.556-4.146c-1.696-35.554-16.522-69.025-41.746-94.25C76.959,18.529,43.487,3.704,7.934,2.007
	C7.843,2.003,7.752,2.001,7.661,2.001z M90.777,145.936h-9.338c-4.665,0-8.542-3.556-9.017-8.271
	C68.923,102.97,41.146,75.921,6.375,73.347C2.8,73.084,0,70.046,0,66.43V54.513c0-1.688,0.704-3.322,1.931-4.482
	c1.224-1.158,2.818-1.756,4.486-1.65c48.817,2.708,87.978,41.543,91.092,90.333c0.12,1.875-0.546,3.733-1.826,5.099
	C94.398,145.181,92.655,145.936,90.777,145.936z M6.077,50.371c-1.031,0-2.007,0.391-2.771,1.113C2.476,52.268,2,53.373,2,54.513
	V66.43c0,2.573,1.986,4.735,4.522,4.923c35.742,2.645,64.293,30.448,67.89,66.111c0.372,3.689,3.393,6.472,7.027,6.472h9.338
	c1.32,0,2.544-0.53,3.447-1.493c0.917-0.978,1.375-2.257,1.289-3.603c-3.05-47.78-41.401-85.812-89.207-88.464c0,0,0,0,0,0
	C6.229,50.373,6.153,50.371,6.077,50.371z M20.375,145.544c-11.175,0-20.266-9.092-20.266-20.267s9.091-20.267,20.266-20.267
	c11.175,0,20.267,9.092,20.267,20.267S31.551,145.544,20.375,145.544z M20.375,107.01c-10.072,0-18.266,8.194-18.266,18.267
	s8.194,18.267,18.266,18.267c10.073,0,18.267-8.194,18.267-18.267S30.448,107.01,20.375,107.01z"/>
</svg>