<!-- Generator: Adobe Illustrator 21.0.2, SVG Export Plug-In  -->
<svg version="1.1"
	 xmlns="http://www.w3.org/2000/svg" xmlns:xlink="http://www.w3.org/1999/xlink" xmlns:a="http://ns.adobe.com/AdobeSVGViewerExtensions/3.0/"
	 x="0px" y="0px" width="211.723px" height="198.602px" viewBox="0 0 211.723 198.602"
	 style="enable-background:new 0 0 211.723 198.602;" xml:space="preserve">
<style type="text/css">
	.st0{fill:#F1F1F1;}
	.st1{opacity:0.55;fill:#FF1854;}
</style>
<defs>
</defs>
<g>
	<path class="st0" d="M160.587,0v32.498c-8.596,4.833-15.176,10.877-19.741,18.126c-4.566,7.253-8.015,14.865-10.339,22.829
		c-2.33,7.969-3.493,16.878-3.493,26.725h33.572v70.9H89.684v-44.045c0-26.496,2.506-46.684,7.521-60.561
		c5.011-13.873,12.758-26.631,23.231-38.273C130.911,16.564,144.293,7.163,160.587,0z"/>
	<path class="st0" d="M70.902,0v32.498c-8.594,4.833-15.175,10.877-19.74,18.126c-4.566,7.253-8.015,14.865-10.339,22.829
		c-2.329,7.969-3.492,16.878-3.492,26.725h33.571v70.9H0v-44.045c0-26.496,2.505-46.684,7.521-60.561
		C12.532,52.6,20.277,39.842,30.75,28.199C41.226,16.564,54.608,7.163,70.902,0z"/>
</g>
<path class="st1" d="M199.723,100.152h-60.667c-0.001,0-0.003,0-0.005,0h-11.995v12v41.97v44.48h22.968v-32.48h49.699
	c6.6,0,12-5.4,12-12v-41.97C211.723,105.552,206.323,100.152,199.723,100.152z M188.723,143.122h-38.667v-19.97h38.667V143.122z"/>
</svg>