<!-- Generator: Adobe Illustrator 21.0.2, SVG Export Plug-In  -->
<svg version="1.1"
	 xmlns="http://www.w3.org/2000/svg" xmlns:xlink="http://www.w3.org/1999/xlink" xmlns:a="http://ns.adobe.com/AdobeSVGViewerExtensions/3.0/"
	 x="0px" y="0px" width="141.764px" height="144.458px" viewBox="0 0 141.764 144.458"
	 style="enable-background:new 0 0 141.764 144.458;" xml:space="preserve">
<style type="text/css">
	.st0{fill:#4D4D4D;}
	.st1{fill:none;stroke:#4D4D4D;stroke-width:2;stroke-linecap:round;stroke-linejoin:round;stroke-miterlimit:10;}
</style>
<defs>
</defs>
<g>
	<path class="st0" d="M127.701,144.458H19.117c-0.552,0-1-0.447-1-1s0.448-1,1-1h108.583c6.652,0,12.063-5.411,12.063-12.062V14.063
		C139.764,7.412,134.352,2,127.701,2h-95.52c-6.652,0-12.063,5.412-12.063,12.063v110.021c0,0.553-0.448,1-1,1s-1-0.447-1-1V14.063
		C18.117,6.309,24.426,0,32.181,0h95.52c7.754,0,14.063,6.309,14.063,14.063v116.332
		C141.764,138.149,135.455,144.458,127.701,144.458z"/>
	<path class="st0" d="M19.117,144.458h-5.054C6.309,144.458,0,138.149,0,130.396V38.085c0-7.754,6.309-14.062,14.063-14.062h5.054
		c0.552,0,1,0.447,1,1s-0.448,1-1,1h-5.054C7.411,26.022,2,31.434,2,38.085v92.311c0,6.651,5.411,12.062,12.063,12.062h5.054
		c0.552,0,1,0.447,1,1S19.669,144.458,19.117,144.458z"/>
	<path class="st1" d="M19.117,134.166"/>
	<path class="st0" d="M68.698,57.786H40.387c-3.621,0-6.567-2.946-6.567-6.567V22.907c0-3.621,2.946-6.566,6.567-6.566h28.312
		c3.621,0,6.567,2.945,6.567,6.566v28.312C75.265,54.84,72.319,57.786,68.698,57.786z M40.387,18.341
		c-2.518,0-4.567,2.049-4.567,4.566v28.312c0,2.519,2.049,4.567,4.567,4.567h28.312c2.518,0,4.567-2.049,4.567-4.567V22.907
		c0-2.518-2.049-4.566-4.567-4.566H40.387z"/>
	<path class="st0" d="M67.228,51.315H41.857c-0.864,0-1.567-0.703-1.567-1.567v-25.37c0-0.863,0.703-1.566,1.567-1.566h25.371
		c0.864,0,1.567,0.703,1.567,1.566v25.37C68.795,50.612,68.092,51.315,67.228,51.315z M42.29,49.315h24.505V24.812H42.29V49.315z"/>
	<path class="st0" d="M126.68,27.706H86.333c-0.552,0-1-0.447-1-1s0.448-1,1-1h40.346c0.552,0,1,0.447,1,1
		S127.232,27.706,126.68,27.706z"/>
	<path class="st0" d="M126.68,41.805H86.333c-0.552,0-1-0.447-1-1s0.448-1,1-1h40.346c0.552,0,1,0.447,1,1
		S127.232,41.805,126.68,41.805z"/>
	<path class="st0" d="M126.68,55.902H86.333c-0.552,0-1-0.447-1-1s0.448-1,1-1h40.346c0.552,0,1,0.447,1,1
		S127.232,55.902,126.68,55.902z"/>
	<path class="st0" d="M126.68,70.001H34.82c-0.552,0-1-0.447-1-1s0.448-1,1-1h91.86c0.552,0,1,0.447,1,1
		S127.232,70.001,126.68,70.001z"/>
	<path class="st0" d="M126.68,84.099H34.82c-0.552,0-1-0.447-1-1s0.448-1,1-1h91.86c0.552,0,1,0.447,1,1
		S127.232,84.099,126.68,84.099z"/>
	<path class="st0" d="M126.68,98.196H86.333c-0.552,0-1-0.447-1-1s0.448-1,1-1h40.346c0.552,0,1,0.447,1,1
		S127.232,98.196,126.68,98.196z M74.716,98.196H34.369c-0.552,0-1-0.447-1-1s0.448-1,1-1h40.347c0.552,0,1,0.447,1,1
		S75.268,98.196,74.716,98.196z"/>
	<path class="st0" d="M73.881,112.569H33.535c-0.552,0-1-0.447-1-1s0.448-1,1-1h40.346c0.552,0,1,0.447,1,1
		S74.434,112.569,73.881,112.569z M126.68,112.295H86.333c-0.552,0-1-0.447-1-1s0.448-1,1-1h40.346c0.552,0,1,0.447,1,1
		S127.232,112.295,126.68,112.295z"/>
	<path class="st0" d="M126.68,126.668H86.333c-0.552,0-1-0.447-1-1s0.448-1,1-1h40.346c0.552,0,1,0.447,1,1
		S127.232,126.668,126.68,126.668z M74.716,126.668H34.369c-0.552,0-1-0.447-1-1s0.448-1,1-1h40.347c0.552,0,1,0.447,1,1
		S75.268,126.668,74.716,126.668z"/>
</g>
</svg>