<!-- Generator: Adobe Illustrator 21.0.2, SVG Export Plug-In  -->
<svg version="1.1"
	 xmlns="http://www.w3.org/2000/svg" xmlns:xlink="http://www.w3.org/1999/xlink" xmlns:a="http://ns.adobe.com/AdobeSVGViewerExtensions/3.0/"
	 x="0px" y="0px" width="217.901px" height="66.349px" viewBox="0 0 217.901 66.349"
	 style="enable-background:new 0 0 217.901 66.349;" xml:space="preserve">
<style type="text/css">
	.st0{fill:#FFFFFF;}
</style>
<defs>
</defs>
<path class="st0" d="M49.492,20.882v6.147c0,11.533-9.349,20.881-20.881,20.881H0.524v-9.299h22.918
	c6.438,0,11.657-5.219,11.657-11.656v-6.249c0-6.438-5.219-11.657-11.657-11.657h-8.854V29.73H0.524V0H28.61
	C40.143,0,49.492,9.349,49.492,20.882z M99.237,48.083l0.099-19.555l-9.25-0.047l-0.069,13.603l-5.824-0.029
	c-4.234-0.021-7.649-3.472-7.627-7.706l0.021-4.11c0.021-4.233,3.472-7.649,7.706-7.628l15.074,0.076l0.031-6.117l-18.473-0.093
	c-7.585-0.039-13.766,6.08-13.804,13.665l-0.021,4.043c-0.039,7.585,6.08,13.766,13.665,13.805L99.237,48.083z M113.542,16.488
	h-9.251v31.594h9.251V16.488z M170.627,16.477h-8.876h-0.375l-17.6,31.525h9.25l13.162-23.576l4.455,7.98h-4.338l-3.739,6.697
	h11.816l4.968,8.899h9.25l-17.6-31.525H170.627z M139.025,25.235h-9.251v22.766h9.251V25.235z M150.863,16.477h-32.926v5.993h32.926
	V16.477z M192.229,48.001h9.25l0.375-31.525h-9.251L192.229,48.001z M204.007,42.009v5.993h13.895v-5.993H204.007z M54.117,47.954
	h9.25V16.488h-9.25V47.954z M3.775,65.172l-2.607-5.925H0v7.102h0.82v-5.826l2.562,5.826h0.725l2.523-5.826v5.826H7.45v-7.102H6.333
	L3.775,65.172z M22.874,63.121h3.551v-0.745h-3.551v-2.384h3.725v-0.745h-4.644v7.102h4.719v-0.745h-3.8V63.121z M46.989,62.604
	c0,2.497-1.175,3.745-3.526,3.745H40.88v-7.102h2.583C45.813,59.247,46.989,60.366,46.989,62.604z M46.07,62.604
	c0-1.742-0.869-2.612-2.607-2.612h-1.664v5.612h1.664C45.201,65.604,46.07,64.604,46.07,62.604z M61.295,66.349h0.919v-7.102h-0.919
	V66.349z M77.787,63.121h3.551v-0.745h-3.551v-2.384h3.725v-0.745h-4.644v7.102h4.718v-0.745h-3.799V63.121z M98.673,59.247h-2.88
	v7.102h0.919v-6.342h1.877c0.854,0,1.281,0.394,1.281,1.182c0,0.927-0.729,1.499-2.186,1.713l0.189,0.775
	c1.983-0.305,2.975-1.147,2.975-2.528C100.849,59.881,100.124,59.247,98.673,59.247z M116.432,59.247l-3.015,7.102h0.954
	l2.538-6.198l1.326,3.218h-1.788l-0.253,0.745h2.35l0.919,2.235h1.018l-3.029-7.102H116.432z M139.32,60.95
	c0-1.136-0.676-1.704-2.026-1.704h-3.03v7.102h0.919v-6.342h2.026c0.755,0,1.132,0.328,1.132,0.983c0,0.828-0.679,1.35-2.037,1.564
	v0.601l2.26,3.193h1.211l-2.438-3.347C138.66,62.558,139.32,61.874,139.32,60.95z M152.965,59.992h2.235v6.357h0.918v-6.357h2.235
	v-0.745h-5.389V59.992z M177.528,64.968l-4.346-5.722h-0.919v7.102h0.869v-5.771l4.346,5.771h0.919v-7.102h-0.869V64.968z
	 M193.821,63.121h3.551v-0.745h-3.551v-2.384h3.725v-0.745h-4.644v7.102h4.718v-0.745h-3.799V63.121z M216.883,60.95
	c0-1.136-0.675-1.704-2.026-1.704h-3.03v7.102h0.919v-6.342h2.026c0.755,0,1.132,0.328,1.132,0.983c0,0.828-0.679,1.35-2.036,1.564
	v0.601l2.26,3.193h1.212l-2.438-3.347C216.222,62.558,216.883,61.874,216.883,60.95z"/>
</svg>