<!-- Generator: Adobe Illustrator 21.0.2, SVG Export Plug-In  -->
<svg version="1.1"
	 xmlns="http://www.w3.org/2000/svg" xmlns:xlink="http://www.w3.org/1999/xlink" xmlns:a="http://ns.adobe.com/AdobeSVGViewerExtensions/3.0/"
	 x="0px" y="0px" width="145.936px" height="145.936px" viewBox="0 0 145.936 145.936"
	 style="enable-background:new 0 0 145.936 145.936;" xml:space="preserve">
<style type="text/css">
	.st0{fill:#4D4D4D;}
</style>
<defs>
</defs>
<path class="st0" d="M138.203,145.936h-9.48c-4.115-0.001-7.501-3.185-7.71-7.247C119.488,109.04,107.03,81.095,85.936,60
	S36.895,26.447,7.247,24.922C3.183,24.713,0,21.327,0,17.212V7.732c0-2.112,0.877-4.16,2.406-5.618
	C3.936,0.656,5.933-0.085,8.03,0.008l0,0c36.051,1.72,69.991,16.753,95.568,42.33c25.577,25.577,40.61,59.518,42.33,95.568
	c0.1,2.097-0.648,4.094-2.106,5.623S140.315,145.936,138.203,145.936z M7.661,1.999c-1.445,0-2.812,0.549-3.875,1.563
	C2.634,4.66,2,6.142,2,7.732v9.479c0,3.05,2.35,5.559,5.349,5.712c30.144,1.552,58.555,14.217,80,35.662
	c21.445,21.445,34.11,49.856,35.661,79.999c0.154,3,2.663,5.35,5.713,5.351h9.48c1.591,0,3.072-0.635,4.171-1.787
	c1.077-1.129,1.63-2.602,1.556-4.146c-1.696-35.554-16.522-69.025-41.746-94.25C76.959,18.527,43.487,3.702,7.934,2.006
	C7.843,2.001,7.752,1.999,7.661,1.999z M90.777,145.935h-9.338c-4.665,0-8.542-3.556-9.017-8.271
	c-3.499-34.695-31.276-61.745-66.047-64.318C2.8,73.082,0,70.044,0,66.429V54.512c0-1.688,0.704-3.322,1.931-4.482
	c1.224-1.158,2.818-1.75,4.486-1.65c48.817,2.708,87.978,41.543,91.092,90.333c0.12,1.875-0.546,3.733-1.826,5.099
	C94.398,145.18,92.655,145.935,90.777,145.935z M6.077,50.369c-1.031,0-2.007,0.391-2.771,1.113C2.476,52.267,2,53.371,2,54.512
	v11.917c0,2.573,1.986,4.735,4.522,4.923c35.742,2.645,64.293,30.448,67.89,66.111c0.372,3.689,3.393,6.472,7.027,6.472h9.338
	c1.32,0,2.544-0.53,3.447-1.493c0.917-0.978,1.375-2.257,1.289-3.603c-3.05-47.78-41.401-85.812-89.207-88.464c0,0,0,0,0,0
	C6.229,50.371,6.153,50.369,6.077,50.369z M20.375,145.542c-11.175,0-20.266-9.092-20.266-20.267s9.091-20.267,20.266-20.267
	c11.175,0,20.267,9.092,20.267,20.267S31.551,145.542,20.375,145.542z M20.375,107.009c-10.072,0-18.266,8.194-18.266,18.267
	s8.194,18.267,18.266,18.267c10.073,0,18.267-8.194,18.267-18.267S30.448,107.009,20.375,107.009z"/>
</svg>