<?xml version="1.0" encoding="utf-8"?>
<!-- Generator: Adobe Illustrator 16.0.4, SVG Export Plug-In . SVG Version: 6.00 Build 0)  -->
<!DOCTYPE svg PUBLIC "-//W3C//DTD SVG 1.0//EN" "http://www.w3.org/TR/2001/REC-SVG-20010904/DTD/svg10.dtd">
<svg version="1.0" id="Layer_1" xmlns="http://www.w3.org/2000/svg" xmlns:xlink="http://www.w3.org/1999/xlink" x="0px" y="0px"
	 width="224px" height="199px" viewBox="0 0 224 199" enable-background="new 0 0 224 199" xml:space="preserve">
<g>
	<path fill="#F1F1F1" d="M161.04,0.125v32.498c-8.596,4.833-15.176,10.877-19.741,18.126c-4.566,7.253-8.015,14.865-10.339,22.829
		c-2.33,7.969-3.493,16.878-3.493,26.725h33.572v70.9H90.136v-44.045c0-26.496,2.506-46.684,7.52-60.561
		c5.012-13.873,12.759-26.631,23.232-38.273C131.362,16.69,144.745,7.289,161.04,0.125z M71.354,0.125v32.498
		C62.759,37.457,56.179,43.5,51.614,50.75c-4.566,7.253-8.015,14.865-10.339,22.829c-2.33,7.969-3.492,16.878-3.492,26.725h33.571
		v70.9H0.452v-44.045c0-26.496,2.505-46.684,7.521-60.561c5.011-13.873,12.757-26.631,23.229-38.273
		C41.677,16.69,55.06,7.289,71.354,0.125z"/>
	<path opacity="0.55" fill="#E72B58" d="M180.585,198.875h-57.784v-19.133h47.153c13.246,0,23.982-10.737,23.982-23.982v-12.856
		c0-13.246-10.738-23.982-23.982-23.982h-18.217v42.55h-28.936v-61.169h57.784c23.728,0,42.962,19.236,42.962,42.963v12.648
		C223.548,179.64,204.313,198.875,180.585,198.875z"/>
</g>
</svg>
