<?xml version="1.0" encoding="utf-8"?>
<!-- Generator: Adobe Illustrator 16.0.4, SVG Export Plug-In . SVG Version: 6.00 Build 0)  -->
<!DOCTYPE svg PUBLIC "-//W3C//DTD SVG 1.0//EN" "http://www.w3.org/TR/2001/REC-SVG-20010904/DTD/svg10.dtd">
<svg version="1.0" id="Layer_1" xmlns="http://www.w3.org/2000/svg" xmlns:xlink="http://www.w3.org/1999/xlink" x="0px" y="0px"
	 width="213px" height="199px" viewBox="0 0 213 199" enable-background="new 0 0 213 199" xml:space="preserve">
<g>
	<path fill="#F1F1F1" d="M160.587,0v32.498c-8.596,4.833-15.176,10.877-19.741,18.126c-4.566,7.253-8.015,14.865-10.339,22.829
		c-2.33,7.969-3.493,16.878-3.493,26.725h33.572v70.9H89.684v-44.045c0-26.496,2.506-46.684,7.521-60.561
		c5.011-13.873,12.758-26.631,23.231-38.273C130.911,16.564,144.293,7.163,160.587,0z M70.902,0v32.498
		c-8.595,4.833-15.176,10.877-19.74,18.126c-4.566,7.253-8.015,14.865-10.339,22.829c-2.33,7.969-3.492,16.878-3.492,26.725h33.571
		v70.9H0v-44.045c0-26.496,2.505-46.684,7.521-60.561C12.532,52.6,20.277,39.842,30.75,28.199C41.226,16.564,54.608,7.163,70.902,0z
		"/>
	<polygon opacity="0.55" fill="#E72B58" points="212.263,123.294 212.263,100.326 145.449,100.326 122.48,100.326 122.48,198.776 
		145.449,198.776 212.263,198.776 212.263,175.809 145.449,175.809 145.449,161.035 188.317,161.035 188.317,138.066 
		145.449,138.066 145.449,123.294 	"/>
</g>
</svg>
