<?xml version="1.0" encoding="utf-8"?>
<!-- Generator: Adobe Illustrator 16.0.4, SVG Export Plug-In . SVG Version: 6.00 Build 0)  -->
<!DOCTYPE svg PUBLIC "-//W3C//DTD SVG 1.0//EN" "http://www.w3.org/TR/2001/REC-SVG-20010904/DTD/svg10.dtd">
<svg version="1.0" id="Layer_1" xmlns="http://www.w3.org/2000/svg" xmlns:xlink="http://www.w3.org/1999/xlink" x="0px" y="0px"
	 width="149px" height="100px" viewBox="0 0 149 100" enable-background="new 0 0 149 100" xml:space="preserve">
<g>
	<g>
		<path fill="#EC689B" d="M93.153,81.645H6.666C2.99,81.645,0,78.654,0,74.979V6.665C0,2.99,2.99,0,6.666,0h108.96
			c3.675,0,6.665,2.99,6.665,6.665v38.002c0,0.552-0.447,1-1,1c-0.552,0-1-0.448-1-1V6.665c0-2.572-2.093-4.665-4.665-4.665H6.666
			C4.093,2,2,4.092,2,6.665v68.314c0,2.573,2.093,4.666,4.666,4.666h86.488c0.553,0,1,0.447,1,1
			C94.153,81.196,93.706,81.645,93.153,81.645z"/>
		<path fill="#EC689B" d="M88.615,68.279h-78.46c-1.439,0-2.61-1.171-2.61-2.61V10.154c0-1.438,1.171-2.609,2.61-2.609h101.981
			c1.439,0,2.61,1.171,2.61,2.609V41.21c0,0.553-0.448,1-1,1c-0.553,0-1-0.447-1-1V10.154c0-0.336-0.274-0.609-0.61-0.609H10.154
			c-0.336,0-0.61,0.273-0.61,0.609v55.515c0,0.336,0.273,0.61,0.61,0.61h78.46c0.553,0,1,0.448,1,1S89.167,68.279,88.615,68.279z"/>
		<path fill="#EC689B" d="M81.176,98.855H41.113c-0.552,0-1-0.448-1-1c0-1.197,1.208-1.766,2.738-2.484
			c1.345-0.632,3.02-1.42,3.635-2.566c0.472-0.879,0.785-2.185,1.061-3.335c0.487-2.03,0.908-3.783,2.384-3.783h22.429
			c1.477,0,1.896,1.753,2.383,3.783c0.276,1.152,0.589,2.457,1.061,3.335l0,0c0.615,1.146,2.29,1.934,3.635,2.566
			c1.529,0.719,2.737,1.287,2.737,2.484C82.176,98.407,81.729,98.855,81.176,98.855z M80.242,98.094h0.01H80.242z M44.388,96.855
			h33.514c-1.459-0.708-3.06-1.614-3.86-3.105l0,0c-0.594-1.106-0.939-2.545-1.244-3.814c-0.18-0.752-0.443-1.85-0.668-2.25H50.16
			c-0.225,0.4-0.488,1.497-0.668,2.25c-0.305,1.27-0.649,2.708-1.244,3.815C47.448,95.241,45.847,96.147,44.388,96.855z"/>
	</g>
	<path fill="#EC689B" d="M138.931,99.592c-0.715,0-1.427-0.282-1.967-0.836l-21.399-22.59c-0.153-0.157-0.381-0.237-0.61-0.212
		c-0.215,0.024-0.404,0.138-0.527,0.312l-7.938,17.777c-0.017,0.038-0.037,0.076-0.059,0.111c-0.561,0.922-1.576,1.421-2.649,1.304
		c-1.072-0.118-1.954-0.826-2.301-1.848L81.844,35.783c-0.359-1.056-0.067-2.176,0.761-2.923c0.828-0.747,1.972-0.923,2.986-0.458
		l55.518,25.43c1.08,0.495,1.704,1.578,1.591,2.76s-0.932,2.127-2.086,2.409l-13.644,2.746c-0.354,0.087-0.474,0.4-0.508,0.53
		c-0.034,0.131-0.081,0.463,0.217,0.737l21.287,20.623c0.567,0.523,0.889,1.288,0.865,2.083c-0.022,0.776-0.372,1.505-0.96,2.009
		l-7.12,7.168c-0.024,0.023-0.049,0.046-0.075,0.068C140.162,99.385,139.545,99.592,138.931,99.592z M115.044,73.949
		c0.738,0,1.44,0.294,1.963,0.831l21.4,22.59c0.254,0.262,0.667,0.293,0.968,0.072l7.108-7.157c0.024-0.024,0.049-0.047,0.075-0.068
		c0.229-0.188,0.27-0.43,0.273-0.557c0.003-0.127-0.022-0.37-0.24-0.571l-21.287-20.623c-0.728-0.671-1.034-1.709-0.779-2.691
		s1.025-1.741,2.011-1.981l13.644-2.746c0.441-0.108,0.517-0.522,0.528-0.647c0.012-0.124,0.016-0.545-0.433-0.751L84.758,34.22
		c-0.403-0.184-0.703,0.026-0.812,0.125c-0.11,0.099-0.35,0.375-0.207,0.795l19.636,57.829l0,0c0.138,0.406,0.484,0.487,0.626,0.502
		c0.138,0.016,0.47,0.012,0.693-0.312l7.938-17.778c0.017-0.039,0.037-0.076,0.059-0.112c0.445-0.732,1.188-1.207,2.039-1.303
		C114.834,73.955,114.939,73.949,115.044,73.949z"/>
</g>
</svg>
