<svg version="1.0" id="Layer_1" xmlns="http://www.w3.org/2000/svg" xmlns:xlink="http://www.w3.org/1999/xlink" x="0px" y="0px"
	 width="129px" height="140px" viewBox="0 0 129 140" enable-background="new 0 0 129 140" xml:space="preserve">
<g>
	<g>
		<path fill="#4D4E5E" d="M112.312,108.876H10.169c-1.44,0-2.612-1.171-2.612-2.611V50.662c0-1.44,1.172-2.612,2.612-2.612h65.66
			c0.553,0,1,0.447,1,1c0,0.552-0.447,1-1,1h-65.66c-0.337,0-0.612,0.274-0.612,0.612v55.603c0,0.337,0.274,0.611,0.612,0.611
			h102.143c0.337,0,0.611-0.274,0.611-0.611V50.662c0-0.337-0.274-0.612-0.611-0.612H99.108c-0.553,0-1-0.448-1-1
			c0-0.553,0.447-1,1-1h13.203c1.439,0,2.611,1.171,2.611,2.612v55.603C114.923,107.705,113.751,108.876,112.312,108.876z"/>
		<path fill="#4D4E5E" d="M115.806,122.263H6.675c-3.68,0-6.675-2.994-6.675-6.674V47.167c0-3.68,2.995-6.674,6.675-6.674h74.63
			c0.552,0,1,0.448,1,1c0,0.553-0.448,1-1,1H6.675C4.097,42.493,2,44.59,2,47.167v68.421c0,2.577,2.097,4.674,4.675,4.674h109.131
			c2.578,0,4.674-2.097,4.674-4.674V47.167c0-2.578-2.096-4.674-4.674-4.674h-9.996c-0.553,0-1-0.447-1-1c0-0.552,0.447-1,1-1h9.996
			c3.68,0,6.674,2.995,6.674,6.674v68.421C122.479,119.269,119.485,122.263,115.806,122.263z"/>
		<path fill="#4D4E5E" d="M81.304,139.5H41.177c-0.552,0-1-0.448-1-1c0-1.198,1.209-1.767,2.74-2.486
			c1.348-0.634,3.025-1.422,3.643-2.572c0.472-0.88,0.786-2.187,1.062-3.34c0.488-2.033,0.909-3.789,2.386-3.789h22.463
			c1.479,0,1.898,1.755,2.386,3.787c0.276,1.154,0.591,2.461,1.062,3.342h0.001c0.617,1.149,2.295,1.938,3.643,2.572
			c1.53,0.719,2.74,1.288,2.74,2.486C82.304,139.052,81.855,139.5,81.304,139.5z M44.451,137.5h33.579
			c-1.462-0.709-3.068-1.617-3.871-3.112l0,0c-0.595-1.108-0.94-2.549-1.245-3.821c-0.182-0.754-0.445-1.854-0.67-2.253H50.237
			c-0.226,0.399-0.489,1.5-0.67,2.254c-0.305,1.271-0.65,2.711-1.245,3.82C47.52,135.883,45.913,136.792,44.451,137.5z"/>
	</g>
	<path fill="#4D4E5E" d="M71.604,74.589c-0.539,0-1.054-0.195-1.46-0.557l-3.96-3.518c-0.85-0.755-0.986-2.019-0.319-2.939
		l46.317-63.92c1.485-2.079,3.803-3.4,6.354-3.623s5.062,0.681,6.889,2.476c3.349,3.291,3.511,8.602,0.369,12.091l-52.54,59.248
		c-0.391,0.44-0.929,0.703-1.517,0.737C71.693,74.588,71.649,74.589,71.604,74.589z M119.298,2c-0.195,0-0.391,0.008-0.588,0.025
		c-1.967,0.171-3.755,1.191-4.903,2.798L67.483,68.749c-0.061,0.085-0.048,0.201,0.031,0.271l3.959,3.518
		c0.051,0.046,0.107,0.052,0.146,0.051c0.038-0.002,0.093-0.016,0.14-0.067l52.545-59.254c2.428-2.697,2.303-6.794-0.279-9.332
		C122.755,2.688,121.06,2,119.298,2z"/>
	<path fill="#4D4E5E" d="M52.548,89.124c-3.574,0-7.6-0.27-12.076-0.625c-0.486-0.039-0.873-0.422-0.917-0.906
		c-0.044-0.485,0.268-0.932,0.738-1.057c1.129-0.301,2.291-0.476,3.415-0.645c4.063-0.611,7.272-1.094,8.088-6.71
		c0.494-3.403,1.827-5.842,3.961-7.25c2.808-1.853,5.944-1.219,6.838-0.98c1.715,0.457,6.812,2.931,8.071,6.853
		c0.439,1.367,0.561,3.484-1.355,5.81C65.791,87.887,60.205,89.124,52.548,89.124z M48.121,86.994
		c10.48,0.474,16.208-0.479,19.646-4.652c1.094-1.327,1.419-2.611,0.996-3.927c-0.925-2.882-5.154-5.125-6.682-5.532
		c-1.424-0.379-3.543-0.39-5.223,0.717c-1.637,1.08-2.675,3.054-3.083,5.868C53.088,84.196,50.791,86.081,48.121,86.994z"/>
</g>
</svg>
