<?xml version="1.0" encoding="utf-8"?>
<!-- Generator: Adobe Illustrator 16.0.4, SVG Export Plug-In . SVG Version: 6.00 Build 0)  -->
<!DOCTYPE svg PUBLIC "-//W3C//DTD SVG 1.0//EN" "http://www.w3.org/TR/2001/REC-SVG-20010904/DTD/svg10.dtd">
<svg version="1.0" id="Layer_1" xmlns="http://www.w3.org/2000/svg" xmlns:xlink="http://www.w3.org/1999/xlink" x="0px" y="0px"
	 width="25px" height="59px" viewBox="0 0 25 59" enable-background="new 0 0 25 59" xml:space="preserve">
<path fill="#FFFFFF" d="M12.242,19.453c-5.364,0-9.728-4.363-9.728-9.727S6.878,0,12.242,0s9.727,4.363,9.727,9.727
	S17.605,19.453,12.242,19.453z M12.242,1.5c-4.537,0-8.228,3.689-8.228,8.227s3.691,8.227,8.228,8.227s8.227-3.689,8.227-8.227
	S16.778,1.5,12.242,1.5z M16.041,58.145c-0.589,0-1.183-0.078-1.769-0.234c-1.746-0.467-3.202-1.582-4.1-3.139L0.903,38.719
	c-1.861-3.223-0.752-7.359,2.471-9.221l1.718-0.992c3.223-1.861,7.359-0.752,9.22,2.471l9.269,16.055
	c0.898,1.555,1.135,3.373,0.667,5.119c-0.468,1.746-1.583,3.203-3.138,4.102l-1.717,0.99C18.358,57.84,17.208,58.145,16.041,58.145z
	 M8.457,29.104c-0.89,0-1.791,0.227-2.615,0.701l-1.718,0.992c-2.507,1.447-3.369,4.664-1.922,7.172l9.269,16.053
	c0.698,1.209,1.831,2.076,3.189,2.439c1.36,0.365,2.773,0.182,3.982-0.518l1.717-0.99c1.209-0.699,2.075-1.832,2.439-3.191
	c0.364-1.357,0.18-2.771-0.518-3.98l-9.269-16.055C12.042,30.045,10.272,29.104,8.457,29.104z"/>
</svg>
