<?xml version="1.0" encoding="utf-8"?>
<!-- Generator: Adobe Illustrator 16.0.4, SVG Export Plug-In . SVG Version: 6.00 Build 0)  -->
<!DOCTYPE svg PUBLIC "-//W3C//DTD SVG 1.0//EN" "http://www.w3.org/TR/2001/REC-SVG-20010904/DTD/svg10.dtd">
<svg version="1.0" id="Layer_1" xmlns="http://www.w3.org/2000/svg" xmlns:xlink="http://www.w3.org/1999/xlink" x="0px" y="0px"
	 width="29px" height="29px" viewBox="0 0 29 29" enable-background="new 0 0 29 29" xml:space="preserve">
<path fill="#EC689B" d="M16.565,28.519c-0.809,0-1.569-0.314-2.14-0.885L1.365,14.575c-0.571-0.571-0.886-1.332-0.886-2.141
	c0-0.81,0.314-1.569,0.886-2.141l8.929-8.93c1.18-1.178,3.1-1.178,4.28,0l13.063,13.065c0.571,0.571,0.885,1.332,0.883,2.141
	c-0.001,0.81-0.317,1.569-0.89,2.139l-8.924,8.926C18.135,28.205,17.375,28.519,16.565,28.519z M12.431,1.922
	c-0.425,0-0.824,0.165-1.123,0.466l-8.925,8.923c-0.619,0.62-0.619,1.627-0.001,2.246L15.446,26.62c0.619,0.621,1.627,0.621,2.246,0
	l0.235-0.242l8.686-8.686c0.618-0.619,0.618-1.626,0-2.246L13.553,2.386C13.253,2.087,12.854,1.922,12.431,1.922z M24.922,17.122
	c-0.011,0-0.021,0-0.033,0l-11.671-0.634c-0.175-0.008-0.347-0.082-0.472-0.205c-0.127-0.13-0.201-0.294-0.214-0.467L11.878,4.111
	c-0.011-0.195,0.053-0.382,0.181-0.523c0.127-0.143,0.304-0.227,0.499-0.236c0.208-0.013,0.407,0.062,0.552,0.209
	c0.125,0.126,0.198,0.292,0.209,0.468l0.614,11.058l11.03,0.596c0.179,0.012,0.343,0.085,0.467,0.205
	c0.148,0.15,0.225,0.349,0.216,0.551C25.623,16.824,25.303,17.122,24.922,17.122z"/>
</svg>
