<?xml version="1.0" encoding="utf-8"?>
<!-- Generator: Adobe Illustrator 16.0.4, SVG Export Plug-In . SVG Version: 6.00 Build 0)  -->
<!DOCTYPE svg PUBLIC "-//W3C//DTD SVG 1.0//EN" "http://www.w3.org/TR/2001/REC-SVG-20010904/DTD/svg10.dtd">
<svg version="1.0" id="Layer_1" xmlns="http://www.w3.org/2000/svg" xmlns:xlink="http://www.w3.org/1999/xlink" x="0px" y="0px"
	 width="124px" height="103px" viewBox="0 0 124 103" enable-background="new 0 0 124 103" xml:space="preserve">
<g>
	<path fill="#EC689B" d="M72.479,102.225H39.278C17.62,102.225,0,84.604,0,62.946V13.955C0,7.923,4.908,3.016,10.94,3.016h61.54
		c6.032,0,10.94,4.907,10.94,10.939v4.521c0,0.552-0.447,1-1,1c-0.552,0-1-0.448-1-1v-4.521c0-4.929-4.01-8.939-8.94-8.939H10.94
		C6.011,5.016,2,9.026,2,13.955v48.991c0,20.555,16.723,37.279,37.278,37.279h33.202c4.93,0,8.94-4.011,8.94-8.94V61.866
		c0-0.553,0.448-1,1-1c0.553,0,1,0.447,1,1v29.418C83.419,97.317,78.512,102.225,72.479,102.225z"/>
	<path fill="#EC689B" d="M28.242,100.602c-0.097,0-0.193-0.014-0.288-0.043C15.003,96.666,4.8,86.132,1.324,73.07
		c-0.08-0.3-0.016-0.62,0.174-0.867c0.189-0.246,0.482-0.39,0.793-0.39h19.766c3.962,0,7.186,3.224,7.186,7.186v20.604
		c0,0.316-0.15,0.613-0.403,0.803C28.664,100.535,28.454,100.602,28.242,100.602z M3.615,73.813
		c3.471,11.381,12.363,20.57,23.626,24.418V78.999c0-2.859-2.326-5.186-5.186-5.186H3.615z"/>
	<path fill="#EC689B" d="M114.855,21.216c-0.993,0-1.983-0.388-2.722-1.159l-8.373-8.731c-0.698-0.727-1.07-1.682-1.049-2.689
		c0.021-1.006,0.433-1.945,1.16-2.642l2.057-1.972c0.727-0.698,1.683-1.074,2.688-1.049c1.007,0.021,1.946,0.433,2.643,1.16
		l8.374,8.731c0.697,0.727,1.07,1.682,1.049,2.689c-0.021,1.007-0.434,1.946-1.161,2.643l-2.057,1.972
		C116.734,20.869,115.794,21.216,114.855,21.216z M108.538,4.974c-0.441,0-0.883,0.163-1.226,0.492l-2.057,1.973
		c-0.341,0.328-0.535,0.768-0.544,1.241c-0.01,0.473,0.165,0.921,0.492,1.262l8.373,8.731l0,0c0.676,0.705,1.799,0.729,2.503,0.053
		l2.057-1.972c0.342-0.327,0.535-0.768,0.545-1.241c0.009-0.473-0.166-0.921-0.493-1.263l-8.373-8.731
		C109.469,5.156,109.003,4.974,108.538,4.974z"/>
	<path fill="#EC689B" d="M63.897,74.719c-0.124,0-0.248-0.022-0.367-0.069c-0.363-0.144-0.61-0.485-0.631-0.875l-0.284-5.136
		l-4.549,0c-0.272,0-0.533-0.111-0.722-0.308l-2.674-2.79c-0.162-0.168-0.259-0.388-0.275-0.62l-0.367-5.095l-6.15-1.584
		c-0.352-0.09-0.626-0.364-0.718-0.715s0.014-0.725,0.275-0.976l57.392-55.038c1.049-1.006,2.437-1.542,3.879-1.513
		c1.453,0.03,2.807,0.625,3.813,1.673l9.625,10.037c1.006,1.048,1.543,2.426,1.513,3.879c-0.03,1.453-0.625,2.807-1.673,3.812
		L64.589,74.441C64.399,74.623,64.15,74.719,63.897,74.719z M58.491,66.638l5.069,0c0.53,0,0.968,0.415,0.998,0.945l0.216,3.908
		l55.822-53.532c0.663-0.636,1.039-1.492,1.058-2.411c0.02-0.918-0.32-1.79-0.956-2.453l-9.625-10.036
		c-0.636-0.663-1.492-1.039-2.412-1.059c-0.916-0.023-1.79,0.32-2.453,0.957l0,0L50.114,56.752l5.108,1.315
		c0.416,0.107,0.717,0.468,0.748,0.897l0.392,5.453L58.491,66.638z M105.518,2.235h0.01H105.518z"/>
	<path fill="#EC689B" d="M41.369,81.955c-0.649,0-1.287-0.261-1.748-0.74c-0.635-0.664-0.839-1.648-0.52-2.51l2.066-5.564l0,0
		c0.291-0.783,0.953-1.352,1.772-1.521c0.818-0.169,1.651,0.089,2.23,0.692l3.58,3.733c0.579,0.603,0.802,1.447,0.598,2.257
		s-0.8,1.448-1.595,1.706l-5.646,1.832C41.865,81.917,41.616,81.955,41.369,81.955z M43.042,73.837l-2.066,5.564
		c-0.055,0.147-0.02,0.315,0.089,0.429c0.108,0.113,0.274,0.155,0.424,0.106l5.646-1.832c0.188-0.061,0.251-0.208,0.272-0.29
		c0.021-0.083,0.035-0.243-0.103-0.386l-3.58-3.733c-0.137-0.143-0.297-0.134-0.38-0.119C43.261,73.594,43.111,73.651,43.042,73.837
		L43.042,73.837z"/>
	<path fill="#EC689B" d="M41.369,81.955c-0.649,0-1.287-0.261-1.748-0.74c-0.635-0.664-0.839-1.648-0.52-2.51l8.087-21.779
		c0.179-0.481,0.692-0.748,1.187-0.621l6.847,1.763c0.416,0.107,0.717,0.468,0.748,0.897l0.392,5.453l2.129,2.22l5.069,0
		c0.53,0,0.968,0.415,0.998,0.945l0.337,6.08c0.025,0.453-0.258,0.867-0.69,1.007l-22.099,7.168
		C41.865,81.917,41.616,81.955,41.369,81.955z M48.749,58.466l-7.773,20.935c-0.055,0.147-0.02,0.315,0.089,0.429
		c0.108,0.113,0.274,0.155,0.424,0.106l21.367-6.931l-0.242-4.367l-4.549,0c-0.273,0-0.533-0.111-0.722-0.308l-2.674-2.79
		c-0.162-0.168-0.259-0.387-0.275-0.62l-0.367-5.095L48.749,58.466z"/>
</g>
</svg>
