<?xml version="1.0" encoding="utf-8"?>
<!-- Generator: Adobe Illustrator 16.0.4, SVG Export Plug-In . SVG Version: 6.00 Build 0)  -->
<!DOCTYPE svg PUBLIC "-//W3C//DTD SVG 1.0//EN" "http://www.w3.org/TR/2001/REC-SVG-20010904/DTD/svg10.dtd">
<svg version="1.0" id="Layer_1" xmlns="http://www.w3.org/2000/svg" xmlns:xlink="http://www.w3.org/1999/xlink" x="0px" y="0px"
	 width="100px" height="100px" viewBox="0 0 100 100" enable-background="new 0 0 100 100" xml:space="preserve">
<g>
	<path fill="#EC689B" d="M88.229,99.429c-2.939,0-5.704-1.145-7.782-3.224L58.325,74.083c-0.39-0.39-0.39-1.023,0-1.414
		s1.023-0.391,1.415,0l22.122,22.122c1.701,1.701,3.962,2.638,6.368,2.638c2.406,0,4.667-0.937,6.369-2.638
		c1.701-1.701,2.638-3.963,2.638-6.369c0-2.405-0.937-4.667-2.638-6.368l-22.08-22.079c-0.39-0.39-0.39-1.024,0-1.414
		c0.39-0.391,1.023-0.391,1.414,0l22.079,22.079c2.079,2.078,3.224,4.842,3.224,7.782c0,2.94-1.145,5.704-3.224,7.783
		C93.932,98.284,91.168,99.429,88.229,99.429z"/>
	<path fill="#EC689B" d="M36.036,72.073C16.166,72.073,0,55.907,0,36.037C0,16.166,16.166,0,36.036,0s36.037,16.166,36.037,36.037
		C72.073,55.907,55.907,72.073,36.036,72.073z M36.036,2C17.269,2,2,17.269,2,36.037c0,18.768,15.269,34.036,34.036,34.036
		s34.037-15.269,34.037-34.036C70.073,17.269,54.804,2,36.036,2z"/>
	<path fill="#EC689B" d="M36.036,61.811c-14.212,0-25.774-11.562-25.774-25.774c0-14.212,11.562-25.774,25.774-25.774
		s25.774,11.562,25.774,25.774C61.811,50.248,50.248,61.811,36.036,61.811z M36.036,12.262c-13.109,0-23.774,10.665-23.774,23.774
		s10.666,23.774,23.774,23.774c13.109,0,23.774-10.665,23.774-23.774S49.146,12.262,36.036,12.262z"/>
	<path fill="#EC689B" d="M21.74,37.037h-4.088c-0.553,0-1-0.448-1-1c0-10.689,8.696-19.385,19.385-19.385c0.552,0,1,0.448,1,1v4.087
		c0,0.553-0.448,1-1,1c-7.332,0-13.296,5.965-13.296,13.297C22.74,36.588,22.292,37.037,21.74,37.037z M18.68,35.037h2.092
		c0.496-7.639,6.625-13.769,14.264-14.265V18.68C26.245,19.181,19.181,26.246,18.68,35.037z"/>
</g>
</svg>
