<?xml version="1.0" encoding="utf-8"?>
<!-- Generator: Adobe Illustrator 16.0.4, SVG Export Plug-In . SVG Version: 6.00 Build 0)  -->
<!DOCTYPE svg PUBLIC "-//W3C//DTD SVG 1.0//EN" "http://www.w3.org/TR/2001/REC-SVG-20010904/DTD/svg10.dtd">
<svg version="1.0" id="Layer_1" xmlns="http://www.w3.org/2000/svg" xmlns:xlink="http://www.w3.org/1999/xlink" x="0px" y="0px"
	 width="50px" height="50px" viewBox="0 0 50 50" enable-background="new 0 0 50 50" xml:space="preserve">
<path fill="#FFFFFF" d="M35.747,49.275c-0.204,0-0.426-0.011-0.64-0.021c-3.5-0.224-6.727-1.568-9.146-2.713
	c-6.339-3.065-11.902-7.422-16.527-12.944c-3.792-4.559-6.355-8.831-8.065-13.445c-0.687-1.853-1.572-4.659-1.328-7.633
	c0.155-1.756,0.867-3.281,2.115-4.529l3.642-3.673c0.936-0.9,2.031-1.383,3.151-1.383c1.113,0,2.179,0.473,3.082,1.366
	c0.702,0.648,1.375,1.333,2,1.979c0.305,0.326,0.64,0.662,0.964,0.985l2.961,2.961c1.971,1.973,1.972,4.422,0,6.394l-1.135,1.148
	c-0.726,0.737-1.452,1.475-2.224,2.181l-0.382,0.349l0.214,0.474c0.686,1.519,1.605,2.97,2.98,4.707
	c2.813,3.458,5.75,6.134,8.985,8.188c0.348,0.216,0.724,0.403,1.123,0.604l0.266,0.137c0.177,0.091,0.358,0.184,0.54,0.281
	l0.468,0.251l3.758-3.745c0.941-0.942,2.031-1.439,3.154-1.439c1.124,0,2.197,0.497,3.101,1.438l5.884,5.906
	c0.943,0.934,1.439,2.026,1.439,3.165c0,1.135-0.489,2.244-1.416,3.207c-0.454,0.475-0.917,0.928-1.369,1.358l-0.137,0.133
	c-0.646,0.625-1.25,1.209-1.793,1.866l-0.099,0.114C39.869,48.479,37.987,49.275,35.747,49.275z M8.971,4.391
	c-0.72,0-1.452,0.33-2.117,0.954L3.188,9.01c-1.011,1.011-1.562,2.197-1.684,3.624c-0.172,2.093,0.211,4.254,1.241,7.011
	c1.643,4.44,4.129,8.584,7.825,13.039c4.485,5.354,9.88,9.578,16.036,12.559c2.276,1.088,5.309,2.362,8.613,2.573
	c0.174,0.012,0.362,0.013,0.538,0.013c1.872,0,3.316-0.613,4.547-1.928c0.668-0.786,1.372-1.479,2.037-2.112l0.247-0.24
	c0.379-0.368,0.737-0.718,1.089-1.097c1.348-1.4,1.339-2.987-0.032-4.346l-5.917-5.915c-0.322-0.355-1.05-0.991-2.046-0.991
	c-0.727,0-1.461,0.351-2.123,1.013l-3.66,3.66c-0.145,0.144-0.529,0.528-1.121,0.528c-0.243,0-0.478-0.061-0.739-0.191l-0.141-0.082
	c-0.267-0.17-0.652-0.363-1.024-0.55c-0.423-0.21-0.859-0.428-1.276-0.691c-3.366-2.13-6.418-4.907-9.331-8.494
	c-1.601-2.036-2.64-3.727-3.36-5.473l-0.017-0.053c-0.189-0.601-0.194-1.114,0.385-1.693l0.056-0.056
	c0.885-0.792,1.718-1.621,2.689-2.614c0.195-0.188,0.399-0.395,0.604-0.604l0.31-0.312c0.713-0.713,1.06-1.422,1.06-2.164
	c0-0.743-0.347-1.451-1.06-2.165l-2.922-2.922l-1.008-1.029c-0.579-0.599-1.258-1.293-1.952-1.941
	C10.421,4.733,9.695,4.391,8.971,4.391z M39.289,23.045c-0.357,0-0.659-0.252-0.717-0.601c-0.508-2.957-1.902-5.644-4.031-7.772
	c-2.144-2.144-4.831-3.537-7.772-4.031c-0.188-0.031-0.349-0.132-0.458-0.285c-0.114-0.161-0.158-0.357-0.123-0.553
	c0.063-0.352,0.368-0.606,0.727-0.606c0.04,0,0.08,0.002,0.121,0.01c3.244,0.553,6.2,2.085,8.547,4.434
	c2.348,2.348,3.881,5.304,4.435,8.55c0.032,0.195-0.012,0.387-0.127,0.55c-0.113,0.16-0.275,0.262-0.47,0.293
	C39.365,23.039,39.328,23.045,39.289,23.045z M48.472,22.605c-0.357,0-0.659-0.252-0.717-0.6c-0.872-5.14-3.298-9.822-7.017-13.541
	c-3.733-3.723-8.415-6.148-13.54-7.018c-0.408-0.071-0.667-0.437-0.601-0.849C26.659,0.257,26.955,0,27.302,0
	c0.04,0,0.081,0.004,0.121,0.011c5.446,0.93,10.403,3.5,14.336,7.433c3.934,3.935,6.504,8.89,7.431,14.329
	c0.034,0.193-0.009,0.382-0.121,0.538c-0.112,0.155-0.271,0.254-0.458,0.282C48.553,22.601,48.514,22.605,48.472,22.605z"/>
</svg>
