<?xml version="1.0" encoding="utf-8"?>
<!-- Generator: Adobe Illustrator 16.0.4, SVG Export Plug-In . SVG Version: 6.00 Build 0)  -->
<!DOCTYPE svg PUBLIC "-//W3C//DTD SVG 1.0//EN" "http://www.w3.org/TR/2001/REC-SVG-20010904/DTD/svg10.dtd">
<svg version="1.0" id="Layer_1" xmlns="http://www.w3.org/2000/svg" xmlns:xlink="http://www.w3.org/1999/xlink" x="0px" y="0px"
	 width="100px" height="101px" viewBox="0 0 100 101" enable-background="new 0 0 100 101" xml:space="preserve">
<g>
	<path fill="#4D4E5E" d="M88.941,100.878H13.575c-0.552,0-1-0.448-1-1s0.448-1,1-1h75.367c4.448,0,8.066-3.618,8.066-8.066V10.067
		C97.008,5.619,93.389,2,88.941,2H22.642c-4.449,0-8.067,3.619-8.067,8.067v76.364c0,0.552-0.448,1-1,1s-1-0.448-1-1V10.067
		C12.575,4.517,17.091,0,22.642,0h66.299c5.55,0,10.066,4.517,10.066,10.067v80.745C99.008,96.362,94.492,100.878,88.941,100.878z"
		/>
	<path fill="#4D4E5E" d="M13.575,100.878h-3.508C4.516,100.878,0,96.362,0,90.812V26.74c0-5.551,4.516-10.066,10.067-10.066h3.508
		c0.552,0,1,0.447,1,1c0,0.552-0.448,1-1,1h-3.508C5.619,18.674,2,22.292,2,26.74v64.072c0,4.448,3.619,8.066,8.067,8.066h3.508
		c0.552,0,1,0.448,1,1S14.127,100.878,13.575,100.878z"/>
	
		<path fill="#4D4E5E" stroke="#FFFFFF" stroke-width="2" stroke-linecap="round" stroke-linejoin="round" stroke-miterlimit="10" d="
		M13.575,93.429"/>
	<path fill="#4D4E5E" d="M46.285,40.72H30.041c-3.621,0-6.567-2.945-6.567-6.566V17.909c0-3.621,2.946-6.567,6.567-6.567h16.245
		c3.621,0,6.567,2.946,6.567,6.567v16.244C52.852,37.774,49.906,40.72,46.285,40.72z M30.041,13.342
		c-2.519,0-4.567,2.049-4.567,4.567v16.245c0,2.518,2.048,4.566,4.567,4.566h16.244c2.519,0,4.567-2.049,4.567-4.567V17.909
		c0-2.518-2.048-4.567-4.567-4.567H30.041z"/>
	<path fill="#4D4E5E" d="M46.793,36.229H29.531c-0.864,0-1.567-0.703-1.567-1.567V17.399c0-0.864,0.703-1.566,1.567-1.566h17.263
		c0.864,0,1.567,0.703,1.567,1.567v17.261C48.362,35.526,47.658,36.229,46.793,36.229z M29.964,34.229h16.397V17.833H29.964V34.229z
		"/>
	<path fill="#4D4E5E" d="M88.232,19.842H60.229c-0.552,0-1-0.448-1-1s0.448-1,1-1h28.004c0.552,0,1,0.448,1,1
		S88.785,19.842,88.232,19.842z"/>
	<path fill="#4D4E5E" d="M88.232,29.628H60.229c-0.552,0-1-0.447-1-1c0-0.552,0.448-1,1-1h28.004c0.552,0,1,0.448,1,1
		C89.232,29.181,88.785,29.628,88.232,29.628z"/>
	<path fill="#4D4E5E" d="M88.232,39.413H60.229c-0.552,0-1-0.448-1-1c0-0.552,0.448-1,1-1h28.004c0.552,0,1,0.448,1,1
		C89.232,38.965,88.785,39.413,88.232,39.413z"/>
	<path fill="#4D4E5E" d="M88.232,49.198H24.474c-0.552,0-1-0.448-1-1s0.448-1,1-1h63.759c0.552,0,1,0.448,1,1
		S88.785,49.198,88.232,49.198z"/>
	<path fill="#4D4E5E" d="M88.232,58.984H24.474c-0.552,0-1-0.447-1-1c0-0.552,0.448-1,1-1h63.759c0.552,0,1,0.448,1,1
		C89.232,58.537,88.785,58.984,88.232,58.984z"/>
	<path fill="#4D4E5E" d="M88.232,68.769H60.229c-0.552,0-1-0.448-1-1s0.448-1,1-1h28.004c0.552,0,1,0.448,1,1
		S88.785,68.769,88.232,68.769z M52.165,68.769H24.161c-0.553,0-1-0.448-1-1s0.447-1,1-1h28.004c0.552,0,1,0.448,1,1
		S52.717,68.769,52.165,68.769z"/>
	<path fill="#4D4E5E" d="M51.586,78.746H23.582c-0.552,0-1-0.448-1-1c0-0.553,0.448-1,1-1h28.004c0.552,0,1,0.447,1,1
		C52.586,78.298,52.138,78.746,51.586,78.746z M88.232,78.554H60.229c-0.552,0-1-0.448-1-1s0.448-1,1-1h28.004c0.552,0,1,0.448,1,1
		S88.785,78.554,88.232,78.554z"/>
	<path fill="#4D4E5E" d="M88.232,88.53H60.229c-0.552,0-1-0.448-1-1s0.448-1,1-1h28.004c0.552,0,1,0.448,1,1
		S88.785,88.53,88.232,88.53z M52.165,88.53H24.161c-0.553,0-1-0.448-1-1s0.447-1,1-1h28.004c0.552,0,1,0.448,1,1
		S52.717,88.53,52.165,88.53z"/>
</g>
</svg>
