<svg version="1.0" id="Layer_1" xmlns="http://www.w3.org/2000/svg" xmlns:xlink="http://www.w3.org/1999/xlink" x="0px" y="0px"
	 width="412px" height="101px" viewBox="0 0 412 101" enable-background="new 0 0 412 101" xml:space="preserve">
<path fill="#FFFFFF" d="M223.214,89.155l5.106,11.232h-0.982l-1.665-3.771h-4.721l0.322-0.707h4.092l-2.694-6.11l-4.642,10.588
	h-0.879l5.082-11.232H223.214z M187.401,89.155h-4.712v11.232h0.824V89.885h3.755c1.665,0,2.497,0.808,2.497,2.419
	c0,1.624-1.492,2.643-4.477,3.056l0.142,0.755c3.503-0.555,5.254-1.847,5.254-3.873C190.684,90.184,189.59,89.155,187.401,89.155z
	 M115.75,100.387h0.825V89.155h-0.825V100.387z M264.236,91.849c0-1.796-1.016-2.694-3.048-2.694h-4.634v11.232h0.824V89.885h3.676
	c1.508,0,2.262,0.676,2.262,2.026c0,1.467-1.152,2.37-3.456,2.711v0.557l3.731,5.208h1.13l-3.793-5.231
	C263.133,94.506,264.236,93.404,264.236,91.849z M147.008,95.046h6.284v-0.707h-6.284v-4.477h6.551v-0.708h-7.375v11.232h7.485
	v-0.708h-6.661V95.046z M86.613,94.464c0,3.949-1.859,5.923-5.577,5.923h-3.927V89.155h4.006
	C84.781,89.155,86.613,90.925,86.613,94.464z M85.71,94.464c0-3.068-1.558-4.602-4.674-4.602h-3.102v9.816h3.102
	C84.152,99.679,85.71,97.941,85.71,94.464z M410.97,91.849c0-1.796-1.017-2.694-3.048-2.694h-4.634v11.232h0.824V89.885h3.677
	c1.508,0,2.262,0.676,2.262,2.026c0,1.467-1.152,2.37-3.456,2.711v0.557l3.731,5.208h1.131l-3.795-5.231
	C409.867,94.506,410.97,93.404,410.97,91.849z M5.891,99.421L0.825,89.155H0v11.232h0.746v-9.795l4.76,9.795h0.675l4.462-9.716
	v9.716h0.746V89.155h-0.746L5.891,99.421z M41.43,95.046h6.283v-0.707H41.43v-4.477h6.55v-0.708h-7.375v11.232h7.485v-0.708h-6.66
	V95.046z M291.778,89.863h3.77v10.524h0.825V89.863h3.847v-0.708h-8.442V89.863z M336.821,98.989l-7.501-9.834h-1.061v11.232h0.746
	V90.082l7.894,10.306h0.668V89.155h-0.746V98.989z M367.607,95.046h6.283v-0.707h-6.283v-4.477h6.551v-0.708h-7.375v11.232h7.485
	v-0.708h-6.661V95.046z M41.184,0.252H0v43.597h20.624V13.523h12.983c9.44,0,17.093,7.652,17.093,17.093v9.163
	c0,9.44-7.653,17.093-17.093,17.093H0v13.638h41.184c16.912,0,30.621-13.71,30.621-30.621v-9.016
	C71.805,13.961,58.096,0.252,41.184,0.252z M102.292,30.649l-0.046,9.069c-0.087,17.012,13.635,30.873,30.648,30.959l41.43,0.21
	l0.222-43.857L153.8,26.924l-0.155,30.509l-13.061-0.066c-9.497-0.048-17.156-7.786-17.108-17.283l0.047-9.217
	c0.048-9.497,7.786-17.156,17.282-17.109l33.809,0.172l0.069-13.719L133.252,0C116.239-0.085,102.378,13.636,102.292,30.649z
	 M179.582,70.761h20.644V0.252h-20.644V70.761z M230.71,70.642h20.655V19.808H230.71V70.642z M277.796,0.252h-73.518v13.38h73.518
	V0.252z M354.146,69.542l-38.683-69.29h-0.836h-19.818h-0.836l-39.296,70.39h20.655l29.387-52.64l9.947,17.817h-9.687l-8.348,14.953
	h26.382l11.093,19.869h20.027h0.627h20.027l0.836-70.39h-20.654L354.146,69.542z M380.432,57.261v13.381h31.025V57.261H380.432z
	 M76.935,70.573h20.747V0H76.935V70.573z"/>
</svg>
