<?xml version="1.0" encoding="utf-8"?>
<!-- Generator: Adobe Illustrator 16.0.4, SVG Export Plug-In . SVG Version: 6.00 Build 0)  -->
<!DOCTYPE svg PUBLIC "-//W3C//DTD SVG 1.0//EN" "http://www.w3.org/TR/2001/REC-SVG-20010904/DTD/svg10.dtd">
<svg version="1.0" id="Layer_1" xmlns="http://www.w3.org/2000/svg" xmlns:xlink="http://www.w3.org/1999/xlink" x="0px" y="0px"
	 width="482px" height="118px" viewBox="0 0 482 118" enable-background="new 0 0 482 118" xml:space="preserve">
<g>
	<path fill="#1C2330" d="M48.216,0.422H0.171v50.859h24.059V15.902h15.147c11.012,0,19.941,8.928,19.941,19.941v10.69
		c0,11.013-8.928,19.939-19.941,19.939H0.171v15.91h48.045c19.728,0,35.721-15.994,35.721-35.723V36.143
		C83.938,16.415,67.944,0.422,48.216,0.422z"/>
	<path fill="#1C2330" d="M119.503,35.882l-0.054,10.58c-0.101,19.846,15.907,36.018,35.753,36.117l48.333,0.244l0.259-51.164
		l-24.203-0.122l-0.18,35.59l-15.237-0.077c-11.079-0.057-20.015-9.083-19.959-20.161l0.055-10.754
		c0.056-11.079,9.083-20.015,20.161-19.958l39.44,0.199l0.081-16.004l-48.332-0.245C135.774,0.027,119.604,16.035,119.503,35.882z"
		/>
	<rect x="209.669" y="0.422" fill="#1C2330" width="24.083" height="82.255"/>
	<rect x="269.314" y="23.235" fill="#1C2330" width="24.095" height="59.302"/>
	<rect x="238.479" y="0.422" fill="#1C2330" width="85.765" height="15.608"/>
	<polygon fill="#1C2330" points="438.368,0.422 414.272,0.422 413.312,81.255 368.187,0.422 367.211,0.422 344.091,0.422 
		343.115,0.422 297.272,82.537 321.368,82.537 355.651,21.128 367.255,41.914 355.954,41.914 346.216,59.358 376.993,59.358 
		389.934,82.537 413.298,82.537 414.028,82.537 437.392,82.537 	"/>
	<rect x="443.978" y="66.927" fill="#1C2330" width="36.193" height="15.61"/>
	<rect x="89.922" y="0.128" fill="#1C2330" width="24.204" height="82.329"/>
	<path fill="#1C2330" d="M94.306,103.499H89.08v14.374h5.226c4.758,0,7.137-2.526,7.137-7.579
		C101.443,105.764,99.064,103.499,94.306,103.499z M94.306,116.365h-3.367v-11.358h3.367c3.518,0,5.277,1.761,5.277,5.287
		C99.583,114.342,97.824,116.365,94.306,116.365z"/>
	<polygon fill="#1C2330" points="7.811,115.491 2.534,103.499 0.171,103.499 0.171,117.873 1.83,117.873 1.83,106.083 
		7.016,117.873 8.484,117.873 13.59,106.083 13.59,117.873 15.248,117.873 15.248,103.499 12.987,103.499 	"/>
	<rect x="133.583" y="103.499" fill="#1C2330" width="1.86" height="14.374"/>
	<polygon fill="#1C2330" points="49.249,111.34 56.436,111.34 56.436,109.832 49.249,109.832 49.249,105.007 56.788,105.007 
		56.788,103.499 47.389,103.499 47.389,117.873 56.938,117.873 56.938,116.365 49.249,116.365 	"/>
	<path fill="#1C2330" d="M308.314,106.947c0-2.298-1.368-3.448-4.101-3.448h-6.133v14.374h1.86v-12.835h4.101
		c1.528,0,2.291,0.664,2.291,1.99c0,1.676-1.373,2.732-4.121,3.167v1.216l4.574,6.463h2.452l-4.935-6.774
		C306.978,110.2,308.314,108.816,308.314,106.947z"/>
	<polygon fill="#1C2330" points="169.444,111.34 176.63,111.34 176.63,109.832 169.444,109.832 169.444,105.007 176.982,105.007 
		176.982,103.499 167.584,103.499 167.584,117.873 177.133,117.873 177.133,116.365 169.444,116.365 	"/>
	<polygon fill="#1C2330" points="430.841,111.34 438.027,111.34 438.027,109.832 430.841,109.832 430.841,105.007 438.379,105.007 
		438.379,103.499 428.981,103.499 428.981,117.873 438.53,117.873 438.53,116.365 430.841,116.365 	"/>
	<path fill="#1C2330" d="M476.894,111.099c2.674-0.898,4.01-2.282,4.01-4.152c0-2.298-1.366-3.448-4.101-3.448h-6.132v14.374h1.859
		v-12.835h4.102c1.527,0,2.291,0.664,2.291,1.99c0,1.676-1.373,2.732-4.12,3.167v1.216l4.573,6.463h2.453L476.894,111.099z"/>
	<polygon fill="#1C2330" points="395.081,115.079 386.286,103.499 384.427,103.499 384.427,117.873 386.186,117.873 
		386.186,106.193 394.98,117.873 396.841,117.873 396.841,103.499 395.081,103.499 	"/>
	<path fill="#1C2330" d="M215.103,103.499h-5.829v14.374h1.86v-12.835h3.799c1.729,0,2.593,0.797,2.593,2.392
		c0,1.876-1.475,3.033-4.423,3.468l0.382,1.568c4.014-0.616,6.021-2.322,6.021-5.115
		C219.507,104.783,218.038,103.499,215.103,103.499z"/>
	<polygon fill="#1C2330" points="257.75,103.499 251.647,117.873 253.579,117.873 258.714,105.328 261.398,111.842 257.779,111.842 
		257.266,113.35 262.021,113.35 263.881,117.873 265.941,117.873 259.81,103.499 	"/>
	<polygon fill="#1C2330" points="341.379,105.007 345.903,105.007 345.903,117.873 347.762,117.873 347.762,105.007 
		352.286,105.007 352.286,103.499 341.379,103.499 	"/>
</g>
</svg>
