<?xml version="1.0" encoding="utf-8"?>
<!-- Generator: Adobe Illustrator 16.0.4, SVG Export Plug-In . SVG Version: 6.00 Build 0)  -->
<!DOCTYPE svg PUBLIC "-//W3C//DTD SVG 1.0//EN" "http://www.w3.org/TR/2001/REC-SVG-20010904/DTD/svg10.dtd">
<svg version="1.0" id="Layer_1" xmlns="http://www.w3.org/2000/svg" xmlns:xlink="http://www.w3.org/1999/xlink" x="0px" y="0px"
	 width="28px" height="44px" viewBox="0 0 28 44" enable-background="new 0 0 28 44" xml:space="preserve">
<g>
	<radialGradient id="SVGID_1_" cx="14.4727" cy="14.2812" r="12.8111" gradientUnits="userSpaceOnUse">
		<stop  offset="0" style="stop-color:#010202"/>
		<stop  offset="0.1124" style="stop-color:#130C12"/>
		<stop  offset="0.3517" style="stop-color:#462133"/>
		<stop  offset="0.6955" style="stop-color:#A62F61"/>
		<stop  offset="0.8827" style="stop-color:#E7267A"/>
	</radialGradient>
	<path fill="url(#SVGID_1_)" d="M14.04,0.567C6.656,0.545,0.652,6.513,0.629,13.897c-0.01,3.146,1.067,6.038,2.877,8.325
		c2.44,3.088,8.287,9.064,10.405,21.211c1.469-11.82,8.063-18.07,10.522-21.133c1.83-2.279,2.927-5.174,2.937-8.324
		C27.392,6.592,21.424,0.588,14.04,0.567z M20.564,14.579c0,2.726-2.209,4.935-4.935,4.935H8.994v-2.196h5.416
		c1.521,0,2.754-1.235,2.754-2.757v-1.475c0-1.521-1.233-2.754-2.755-2.754h-2.092v4.886H8.994V8.193h6.636
		c2.726,0,4.935,2.208,4.935,4.933V14.579z"/>
	<path fill="#010202" d="M13.912,43.933c-0.243,0-0.451-0.174-0.493-0.414C11.544,32.768,6.812,27.03,3.985,23.603
		c-0.322-0.391-0.615-0.747-0.871-1.07c-1.962-2.48-2.995-5.467-2.985-8.637C0.153,6.271,6.375,0.067,14,0.067
		c3.746,0.011,7.225,1.464,9.836,4.091s4.044,6.115,4.034,9.819c-0.01,3.133-1.092,6.2-3.047,8.636
		c-0.307,0.382-0.678,0.813-1.094,1.299c-2.814,3.275-8.053,9.373-9.322,19.583c-0.03,0.246-0.236,0.432-0.484,0.438
		C13.92,43.933,13.916,43.933,13.912,43.933z M14.039,1.067c-7.114,0-12.888,5.756-12.909,12.832
		c-0.009,2.941,0.948,5.712,2.769,8.014c0.252,0.319,0.541,0.669,0.858,1.054c2.473,2.999,6.896,8.362,9.099,17.701
		c1.801-8.893,6.488-14.35,9.115-17.407c0.409-0.476,0.772-0.898,1.073-1.273c1.84-2.292,2.818-5.063,2.827-8.013
		c0.01-3.438-1.319-6.673-3.743-9.111C20.704,2.425,17.476,1.077,14.039,1.067z"/>
</g>
</svg>
