<?xml version="1.0" encoding="utf-8"?>
<!-- Generator: Adobe Illustrator 16.0.4, SVG Export Plug-In . SVG Version: 6.00 Build 0)  -->
<!DOCTYPE svg PUBLIC "-//W3C//DTD SVG 1.0//EN" "http://www.w3.org/TR/2001/REC-SVG-20010904/DTD/svg10.dtd">
<svg version="1.0" id="Layer_1" xmlns="http://www.w3.org/2000/svg" xmlns:xlink="http://www.w3.org/1999/xlink" x="0px" y="0px"
	 width="212px" height="199px" viewBox="0 0 212 199" enable-background="new 0 0 212 199" xml:space="preserve">
<g>
	<path fill="#F1F1F1" d="M130.508,73.453c-2.33,7.969-3.493,16.877-3.493,26.724h33.572v70.901H89.684v-44.045
		c0-26.496,2.506-46.684,7.521-60.562c5.011-13.872,12.758-26.631,23.231-38.272C130.911,16.563,144.293,7.162,160.587,0v32.497
		c-8.596,4.833-15.176,10.878-19.741,18.126C136.28,57.876,132.832,65.488,130.508,73.453z M30.75,28.199
		C20.277,39.841,12.532,52.6,7.521,66.472C2.505,80.35,0,100.537,0,127.033v44.045h70.902v-70.901H37.332
		c0-9.847,1.162-18.755,3.492-26.724c2.324-7.965,5.773-15.577,10.339-22.83c4.564-7.248,11.146-13.293,19.74-18.126V0
		C54.608,7.162,41.226,16.563,30.75,28.199z"/>
	<path opacity="0.55" fill="#E72B58" d="M199.723,100.151h-60.667c-0.002,0-0.004,0-0.005,0h-11.995v12v41.97v44.48h22.968v-32.48
		h49.699c6.6,0,12-5.4,12-12v-41.97C211.723,105.552,206.323,100.151,199.723,100.151z M188.723,143.121h-38.667v-19.97h38.667
		V143.121z"/>
</g>
</svg>
