<!-- Generator: Adobe Illustrator 21.0.2, SVG Export Plug-In  -->
<svg version="1.1"
	 xmlns="http://www.w3.org/2000/svg" xmlns:xlink="http://www.w3.org/1999/xlink" xmlns:a="http://ns.adobe.com/AdobeSVGViewerExtensions/3.0/"
	 x="0px" y="0px" width="99.235px" height="99.429px" viewBox="0 0 99.235 99.429"
	 style="enable-background:new 0 0 99.235 99.429;" xml:space="preserve">
<style type="text/css">
	.st0{fill:#FFFFFF;}
</style>
<defs>
</defs>
<g>
	<path class="st0" d="M88.229,99.429c-2.94,0-5.704-1.145-7.782-3.224L58.325,74.084c-0.391-0.39-0.391-1.024,0-1.414
		c0.39-0.391,1.023-0.391,1.414,0l22.122,22.122c1.701,1.701,3.962,2.638,6.368,2.638s4.667-0.937,6.368-2.638
		s2.638-3.963,2.638-6.368s-0.937-4.667-2.638-6.368L72.518,59.976c-0.391-0.39-0.391-1.024,0-1.414c0.39-0.391,1.023-0.391,1.414,0
		l22.079,22.079c2.079,2.078,3.224,4.842,3.224,7.782s-1.145,5.704-3.224,7.782C93.932,98.284,91.168,99.429,88.229,99.429z"/>
	<path class="st0" d="M36.036,72.073C16.166,72.073,0,55.907,0,36.036C0,16.166,16.166,0,36.036,0
		c19.871,0,36.037,16.166,36.037,36.036C72.073,55.907,55.907,72.073,36.036,72.073z M36.036,2C17.269,2,2,17.269,2,36.036
		c0,18.768,15.269,34.036,34.036,34.036c18.768,0,34.037-15.269,34.037-34.036C70.073,17.269,54.804,2,36.036,2z"/>
	<path class="st0" d="M36.036,61.811c-14.212,0-25.774-11.562-25.774-25.774s11.562-25.774,25.774-25.774
		c14.212,0,25.775,11.562,25.775,25.774S50.248,61.811,36.036,61.811z M36.036,12.262c-13.109,0-23.774,10.665-23.774,23.774
		s10.665,23.774,23.774,23.774c13.109,0,23.775-10.665,23.775-23.774S49.146,12.262,36.036,12.262z"/>
	<path class="st0" d="M21.74,37.036h-4.088c-0.552,0-1-0.448-1-1c0-10.689,8.696-19.385,19.385-19.385c0.552,0,1,0.448,1,1v4.088
		c0,0.552-0.448,1-1,1c-7.332,0-13.297,5.965-13.297,13.297C22.74,36.589,22.292,37.036,21.74,37.036z M18.679,35.036h2.092
		c0.496-7.639,6.625-13.769,14.264-14.265V18.68C26.245,19.181,19.181,26.245,18.679,35.036z"/>
</g>
</svg>