<!-- Generator: Adobe Illustrator 21.0.2, SVG Export Plug-In  -->
<svg version="1.1"
	 xmlns="http://www.w3.org/2000/svg" xmlns:xlink="http://www.w3.org/1999/xlink" xmlns:a="http://ns.adobe.com/AdobeSVGViewerExtensions/3.0/"
	 x="0px" y="0px" width="481.658px" height="117.745px" viewBox="0 0 481.658 117.745"
	 style="enable-background:new 0 0 481.658 117.745;" xml:space="preserve">
<style type="text/css">
	.st0{fill:#1C2330;}
</style>
<defs>
</defs>
<g>
	<path class="st0" d="M48.045,0.294H0v50.859h24.059V15.775h15.147c11.012,0,19.941,8.928,19.941,19.941v10.69
		c0,11.013-8.928,19.94-19.941,19.94H0v15.909h48.045c19.728,0,35.722-15.994,35.722-35.722V36.015
		C83.767,16.287,67.773,0.294,48.045,0.294z"/>
	<path class="st0" d="M119.333,35.754l-0.054,10.58c-0.101,19.847,15.907,36.018,35.753,36.117l48.333,0.244l0.259-51.164
		l-24.203-0.122L179.241,67l-15.237-0.078c-11.079-0.056-20.015-9.083-19.959-20.161l0.055-10.753
		c0.056-11.079,9.083-20.015,20.161-19.958l39.44,0.199l0.081-16.004L155.45,0C135.603-0.1,119.433,15.907,119.333,35.754z"/>
	<rect x="209.498" y="0.294" class="st0" width="24.083" height="82.255"/>
	<rect x="269.143" y="23.107" class="st0" width="24.096" height="59.302"/>
	<rect x="238.309" y="0.294" class="st0" width="85.765" height="15.609"/>
	<polygon class="st0" points="413.142,81.127 368.015,0.294 367.04,0.294 343.92,0.294 342.944,0.294 297.102,82.409 
		321.197,82.409 355.48,21 367.084,41.786 355.784,41.786 346.045,59.23 376.823,59.23 389.763,82.409 413.127,82.409 
		413.858,82.409 437.221,82.409 438.198,0.294 414.102,0.294 	"/>
	<rect x="443.807" y="66.8" class="st0" width="36.193" height="15.609"/>
	<rect x="89.751" y="0" class="st0" width="24.204" height="82.328"/>
</g>
<path class="st0" d="M7.64,115.363l-5.277-11.992H0v14.373h1.659v-11.79l5.186,11.79h1.467l5.106-11.79v11.79h1.658v-14.373h-2.261
	L7.64,115.363z M49.078,111.212h7.187v-1.508h-7.187v-4.824h7.539v-1.508h-9.399v14.373h9.55v-1.507h-7.69V111.212z
	 M101.272,110.166c0,5.053-2.379,7.579-7.137,7.579h-5.227v-14.373h5.227C98.893,103.371,101.272,105.636,101.272,110.166z
	 M99.412,110.166c0-3.525-1.759-5.287-5.277-5.287h-3.367v11.358h3.367C97.653,116.238,99.412,114.214,99.412,110.166z
	 M133.413,117.745h1.86v-14.373h-1.86V117.745z M169.273,111.212h7.186v-1.508h-7.186v-4.824h7.538v-1.508h-9.398v14.373h9.549
	v-1.507h-7.689V111.212z M214.932,103.371h-5.829v14.373h1.86v-12.836h3.8c1.728,0,2.593,0.797,2.593,2.392
	c0,1.877-1.474,3.033-4.423,3.468l0.382,1.568c4.014-0.617,6.021-2.322,6.021-5.116
	C219.336,104.655,217.867,103.371,214.932,103.371z M257.579,103.371l-6.102,14.373h1.931l5.136-12.544l2.684,6.513h-3.619
	l-0.513,1.508h4.755l1.86,4.523h2.059l-6.131-14.373H257.579z M308.143,106.819c0-2.299-1.368-3.448-4.101-3.448h-6.132v14.373h1.86
	v-12.836h4.101c1.528,0,2.292,0.664,2.292,1.99c0,1.676-1.374,2.731-4.122,3.166v1.216l4.574,6.463h2.452l-4.935-6.774
	C306.806,110.072,308.143,108.689,308.143,106.819z M341.208,104.879h4.524v12.865h1.859v-12.865h4.524v-1.508h-10.907V104.879z
	 M394.91,114.951l-8.795-11.58h-1.86v14.373h1.759v-11.68l8.795,11.68h1.86v-14.373h-1.759V114.951z M430.67,111.212h7.186v-1.508
	h-7.186v-4.824h7.538v-1.508h-9.398v14.373h9.549v-1.507h-7.689V111.212z M480.733,106.819c0-2.299-1.367-3.448-4.101-3.448H470.5
	v14.373h1.86v-12.836h4.101c1.528,0,2.292,0.664,2.292,1.99c0,1.676-1.374,2.731-4.121,3.166v1.216l4.573,6.463h2.453l-4.935-6.774
	C479.396,110.072,480.733,108.689,480.733,106.819z"/>
</svg>