<!-- Generator: Adobe Illustrator 21.0.2, SVG Export Plug-In  -->
<svg version="1.1"
	 xmlns="http://www.w3.org/2000/svg" xmlns:xlink="http://www.w3.org/1999/xlink" xmlns:a="http://ns.adobe.com/AdobeSVGViewerExtensions/3.0/"
	 x="0px" y="0px" width="198.599px" height="139.939px" viewBox="0 0 198.599 139.939"
	 style="enable-background:new 0 0 198.599 139.939;" xml:space="preserve">
<style type="text/css">
	.st0{fill:#4D4D4D;}
</style>
<defs>
</defs>
<g>
	<path class="st0" d="M189.862,139.939H8.737c-4.818,0-8.737-3.919-8.737-8.736V8.736C0,3.919,3.919,0,8.737,0h181.125
		c4.817,0,8.737,3.919,8.737,8.736v122.467C198.599,136.021,194.68,139.939,189.862,139.939z M8.737,2C5.022,2,2,5.021,2,8.736
		v122.467c0,3.715,3.022,6.736,6.737,6.736h181.125c3.715,0,6.737-3.021,6.737-6.736V8.736c0-3.715-3.022-6.736-6.737-6.736H8.737z"
		/>
	<path class="st0" d="M188.176,133.254H10.423c-2.061,0-3.737-1.676-3.737-3.736V27.076c0-2.061,1.677-3.736,3.737-3.736h177.753
		c2.06,0,3.736,1.676,3.736,3.736v102.441C191.913,131.578,190.237,133.254,188.176,133.254z M10.423,25.34
		c-0.958,0-1.737,0.779-1.737,1.736v102.441c0,0.957,0.779,1.736,1.737,1.736h177.753c0.958,0,1.737-0.779,1.737-1.736V27.076
		c0-0.957-0.779-1.736-1.736-1.736H10.423z"/>
	<path class="st0" d="M181.825,17.637c-2.561,0-4.645-2.084-4.645-4.646s2.084-4.646,4.645-4.646c2.561,0,4.645,2.084,4.645,4.646
		S184.386,17.637,181.825,17.637z M181.825,10.346c-1.458,0-2.645,1.187-2.645,2.646s1.187,2.646,2.645,2.646
		c1.458,0,2.645-1.187,2.645-2.646S183.283,10.346,181.825,10.346z"/>
	<path class="st0" d="M169.633,17.637c-2.561,0-4.645-2.084-4.645-4.646s2.084-4.646,4.645-4.646s4.645,2.084,4.645,4.646
		S172.195,17.637,169.633,17.637z M169.633,10.346c-1.458,0-2.645,1.187-2.645,2.646s1.187,2.646,2.645,2.646
		s2.645-1.187,2.645-2.646S171.092,10.346,169.633,10.346z"/>
	<path class="st0" d="M157.442,17.637c-2.561,0-4.645-2.084-4.645-4.646s2.084-4.646,4.645-4.646s4.645,2.084,4.645,4.646
		S160.004,17.637,157.442,17.637z M157.442,10.346c-1.458,0-2.645,1.187-2.645,2.646s1.187,2.646,2.645,2.646
		s2.645-1.187,2.645-2.646S158.901,10.346,157.442,10.346z"/>
	<path class="st0" d="M83.988,94.045c-0.583,0-1.148-0.123-1.679-0.366L49.849,78.924c-1.453-0.659-2.387-2.117-2.381-3.714
		c0.007-1.595,0.953-3.045,2.411-3.693l31.39-13.951c2.048-0.909,4.452,0.017,5.36,2.062c0.91,2.045-0.014,4.45-2.061,5.361
		L61.433,75.27L85.67,86.287c0.987,0.448,1.741,1.255,2.122,2.271s0.344,2.118-0.105,3.106C87.03,93.11,85.577,94.045,83.988,94.045
		z M82.914,59.216c-0.279,0-0.563,0.058-0.834,0.178l-31.389,13.95c-0.74,0.329-1.22,1.065-1.223,1.874
		c-0.003,0.811,0.471,1.551,1.208,1.886l32.462,14.756c1.012,0.459,2.273-0.021,2.729-1.023c0.227-0.501,0.246-1.061,0.053-1.576
		c-0.193-0.515-0.576-0.925-1.077-1.152L58.58,76.169c-0.358-0.163-0.588-0.521-0.586-0.914s0.234-0.75,0.594-0.91L83.755,63.16
		c0.503-0.224,0.889-0.63,1.086-1.144s0.183-1.074-0.041-1.577C84.46,59.673,83.705,59.216,82.914,59.216z"/>
	<path class="st0" d="M115.683,94.045c-1.604,0-3.061-0.947-3.712-2.412c-0.441-0.991-0.469-2.095-0.08-3.107
		c0.389-1.012,1.149-1.812,2.141-2.254l23.134-10.281l-24.238-11.018c-2.039-0.926-2.944-3.338-2.018-5.377
		c0.449-0.987,1.256-1.741,2.272-2.122s2.119-0.342,3.106,0.106l32.462,14.756c1.452,0.659,2.387,2.116,2.381,3.713
		c-0.006,1.595-0.952,3.045-2.41,3.694l-31.39,13.951C116.804,93.927,116.25,94.045,115.683,94.045z M114.609,59.215
		c-0.244,0-0.489,0.044-0.724,0.132c-0.516,0.193-0.926,0.576-1.154,1.077c-0.47,1.034-0.01,2.258,1.024,2.729l26.263,11.938
		c0.358,0.163,0.588,0.521,0.586,0.914s-0.234,0.75-0.594,0.91L114.844,88.1c-0.503,0.224-0.889,0.63-1.086,1.144
		s-0.183,1.074,0.041,1.577c0.447,1.007,1.689,1.502,2.722,1.045l31.387-13.949c0.74-0.329,1.22-1.065,1.223-1.875
		c0.003-0.811-0.471-1.55-1.208-1.884L115.46,59.4C115.188,59.276,114.899,59.215,114.609,59.215z"/>
	<path class="st0" d="M93.149,103.166c-0.333,0-0.665-0.041-0.988-0.122c-2.171-0.542-3.497-2.752-2.956-4.925l12.073-48.29
		c0.542-2.17,2.747-3.497,4.923-2.956c2.173,0.543,3.499,2.753,2.957,4.926L97.086,100.09
		C96.633,101.901,95.014,103.166,93.149,103.166z M105.222,48.753c-0.925,0-1.769,0.626-2.002,1.561l-12.073,48.29
		c-0.275,1.104,0.398,2.225,1.5,2.501c1.083,0.27,2.228-0.416,2.5-1.5l12.072-48.29c0.275-1.104-0.398-2.225-1.5-2.501
		C105.552,48.772,105.386,48.753,105.222,48.753z"/>
</g>
</svg>