<!-- Generator: Adobe Illustrator 21.0.2, SVG Export Plug-In  -->
<svg version="1.1"
	 xmlns="http://www.w3.org/2000/svg" xmlns:xlink="http://www.w3.org/1999/xlink" xmlns:a="http://ns.adobe.com/AdobeSVGViewerExtensions/3.0/"
	 x="0px" y="0px" width="114.397px" height="114.398px" viewBox="0 0 114.397 114.398"
	 style="enable-background:new 0 0 114.397 114.398;" xml:space="preserve">
<style type="text/css">
	.st0{fill:#FFFFFF;}
</style>
<defs>
</defs>
<path class="st0" d="M57.199,0C25.609,0,0,25.609,0,57.199c0,31.591,25.609,57.199,57.199,57.199
	c31.59,0,57.198-25.608,57.198-57.199C114.397,25.609,88.789,0,57.199,0z M70.611,57.199h-7.598v27.583H51.599V57.199h-5.691v-9.507
	h5.691v-5.724c0-4.062,0.958-7.136,2.88-9.224c1.917-2.086,5.074-3.129,9.472-3.129h7.6v9.508h-4.755
	c-0.87,0-1.566,0.072-2.092,0.217c-0.523,0.146-0.903,0.407-1.138,0.785c-0.234,0.381-0.386,0.766-0.453,1.156
	c-0.066,0.392-0.099,0.943-0.099,1.657v4.753h8.603L70.611,57.199z"/>
</svg>