<!-- Generator: Adobe Illustrator 21.0.2, SVG Export Plug-In  -->
<svg version="1.1"
	 xmlns="http://www.w3.org/2000/svg" xmlns:xlink="http://www.w3.org/1999/xlink" xmlns:a="http://ns.adobe.com/AdobeSVGViewerExtensions/3.0/"
	 x="0px" y="0px" width="101.904px" height="101.904px" viewBox="0 0 101.904 101.904"
	 style="enable-background:new 0 0 101.904 101.904;" xml:space="preserve">
<style type="text/css">
	.st0{fill:#ED669A;}
</style>
<defs>
</defs>
<path class="st0" d="M96.231,101.904h-6.58c-3.019,0-5.503-2.338-5.657-5.321c-1.055-20.503-9.67-39.828-24.258-54.416
	C45.148,27.58,25.823,18.965,5.32,17.91C2.337,17.757,0,15.272,0,12.253V5.674c0-1.55,0.643-3.052,1.765-4.122
	c1.123-1.07,2.588-1.621,4.129-1.545c25.099,1.197,48.727,11.663,66.534,29.47c17.807,17.806,28.272,41.435,29.47,66.534
	c0.073,1.54-0.476,3.006-1.546,4.129C99.282,101.261,97.78,101.904,96.231,101.904z M5.623,2C4.699,2,3.825,2.352,3.145,3
	C2.407,3.704,2,4.654,2,5.674v6.579c0,1.953,1.504,3.561,3.423,3.659c20.998,1.081,40.789,9.903,55.728,24.841
	c14.939,14.938,23.761,34.73,24.841,55.728c0.099,1.919,1.706,3.423,3.66,3.423h6.58c1.02,0,1.969-0.407,2.673-1.145
	c0.689-0.723,1.043-1.665,0.996-2.653c-1.174-24.601-11.432-47.761-28.886-65.215S30.399,3.178,5.798,2.004c0,0,0,0,0,0
	C5.74,2.002,5.681,2,5.623,2z M63.313,101.904h-6.482c-3.396,0-6.217-2.586-6.563-6.016C47.855,71.955,28.694,53.295,4.708,51.52
	C2.068,51.325,0,49.082,0,46.414v-8.271c0-1.255,0.523-2.47,1.435-3.333c0.911-0.862,2.098-1.296,3.341-1.23
	c34.038,1.888,61.343,28.966,63.514,62.985c0.089,1.386-0.404,2.759-1.35,3.768C65.99,101.346,64.702,101.904,63.313,101.904z
	 M4.525,35.573c-0.638,0-1.242,0.242-1.715,0.689C2.295,36.749,2,37.434,2,38.143v8.271c0,1.626,1.254,2.993,2.855,3.112
	c24.956,1.847,44.892,21.261,47.403,46.162c0.242,2.404,2.208,4.216,4.573,4.216h6.482c0.83,0,1.601-0.334,2.169-0.94
	c0.578-0.616,0.867-1.423,0.813-2.272C64.188,63.683,37.693,37.409,4.666,35.577l0,0C4.619,35.574,4.572,35.573,4.525,35.573z
	 M14.448,101.631c-7.925,0-14.372-6.448-14.372-14.373c0-7.925,6.447-14.373,14.372-14.373c7.925,0,14.373,6.448,14.373,14.373
	C28.821,95.184,22.373,101.631,14.448,101.631z M14.448,74.886c-6.822,0-12.372,5.551-12.372,12.373
	c0,6.822,5.55,12.373,12.372,12.373c6.823,0,12.373-5.55,12.373-12.373C26.821,80.436,21.271,74.886,14.448,74.886z"/>
</svg>