<!-- Generator: Adobe Illustrator 21.0.2, SVG Export Plug-In  -->
<svg version="1.1"
	 xmlns="http://www.w3.org/2000/svg" xmlns:xlink="http://www.w3.org/1999/xlink" xmlns:a="http://ns.adobe.com/AdobeSVGViewerExtensions/3.0/"
	 x="0px" y="0px" width="24.482px" height="58.146px" viewBox="0 0 24.482 58.146"
	 style="enable-background:new 0 0 24.482 58.146;" xml:space="preserve">
<style type="text/css">
	.st0{fill:#FFFFFF;}
</style>
<defs>
</defs>
<path class="st0" d="M12.242,19.454c-5.364,0-9.727-4.363-9.727-9.727C2.514,4.363,6.878,0,12.242,0
	c5.364,0,9.727,4.363,9.727,9.727C21.969,15.091,17.605,19.454,12.242,19.454z M12.242,1.5c-4.537,0-8.227,3.69-8.227,8.227
	c0,4.537,3.691,8.227,8.227,8.227s8.227-3.69,8.227-8.227C20.469,5.19,16.778,1.5,12.242,1.5z M16.041,58.146
	c-0.589,0-1.183-0.078-1.768-0.234c-1.746-0.468-3.202-1.583-4.101-3.139L0.903,38.719c-1.861-3.223-0.753-7.359,2.471-9.221
	l1.717-0.991c3.223-1.861,7.36-0.753,9.22,2.471l9.269,16.054c0.898,1.556,1.135,3.374,0.667,5.12
	c-0.468,1.746-1.582,3.202-3.138,4.101l-1.717,0.991C18.358,57.841,17.208,58.146,16.041,58.146z M8.457,29.104
	c-0.89,0-1.791,0.226-2.616,0.702l-1.717,0.991c-2.507,1.448-3.369,4.665-1.922,7.172l9.269,16.054
	c0.698,1.209,1.831,2.075,3.19,2.44c1.36,0.365,2.773,0.181,3.982-0.518l1.717-0.991c1.209-0.698,2.075-1.831,2.439-3.191
	c0.364-1.358,0.18-2.772-0.518-3.981l-9.269-16.054C12.041,30.046,10.273,29.104,8.457,29.104z"/>
</svg>