<!-- Generator: Adobe Illustrator 21.0.2, SVG Export Plug-In  -->
<svg version="1.1"
	 xmlns="http://www.w3.org/2000/svg" xmlns:xlink="http://www.w3.org/1999/xlink" xmlns:a="http://ns.adobe.com/AdobeSVGViewerExtensions/3.0/"
	 x="0px" y="0px" width="138.457px" height="97.743px" viewBox="0 0 138.457 97.743"
	 style="enable-background:new 0 0 138.457 97.743;" xml:space="preserve">
<style type="text/css">
	.st0{fill:#ED669A;}
</style>
<defs>
</defs>
<g>
	<path class="st0" d="M129.72,97.743H8.737C3.919,97.743,0,93.823,0,89.005V8.737C0,3.919,3.919,0,8.737,0H129.72
		c4.817,0,8.737,3.919,8.737,8.737v80.269C138.457,93.823,134.537,97.743,129.72,97.743z M8.737,2C5.022,2,2,5.022,2,8.737v80.269
		c0,3.715,3.022,6.737,6.737,6.737H129.72c3.715,0,6.737-3.022,6.737-6.737V8.737c0-3.715-3.022-6.737-6.737-6.737H8.737z"/>
	<path class="st0" d="M130.079,93.102H8.377c-2.061,0-3.737-1.676-3.737-3.737V19.938c0-2.061,1.676-3.737,3.737-3.737H130.08
		c2.06,0,3.736,1.676,3.736,3.736v69.428C133.816,91.426,132.14,93.102,130.079,93.102z M8.377,18.201
		c-0.958,0-1.737,0.779-1.737,1.737v69.428c0,0.958,0.779,1.737,1.737,1.737h121.702c0.958,0,1.737-0.779,1.737-1.737V19.937
		c0-0.958-0.779-1.736-1.736-1.736H8.377z"/>
	<path class="st0" d="M126.508,12.854c-1.947,0-3.53-1.583-3.53-3.53s1.583-3.53,3.53-3.53c1.946,0,3.53,1.583,3.53,3.53
		S128.454,12.854,126.508,12.854z M126.508,7.794c-0.844,0-1.53,0.686-1.53,1.53s0.686,1.53,1.53,1.53c0.844,0,1.53-0.686,1.53-1.53
		S127.352,7.794,126.508,7.794z"/>
	<path class="st0" d="M118.046,12.854c-1.947,0-3.53-1.583-3.53-3.53s1.583-3.53,3.53-3.53c1.946,0,3.53,1.583,3.53,3.53
		S119.992,12.854,118.046,12.854z M118.046,7.794c-0.844,0-1.53,0.686-1.53,1.53s0.686,1.53,1.53,1.53c0.844,0,1.53-0.686,1.53-1.53
		S118.89,7.794,118.046,7.794z"/>
	<path class="st0" d="M109.584,12.854c-1.946,0-3.53-1.583-3.53-3.53s1.583-3.53,3.53-3.53c1.947,0,3.53,1.583,3.53,3.53
		S111.531,12.854,109.584,12.854z M109.584,7.794c-0.844,0-1.53,0.686-1.53,1.53s0.686,1.53,1.53,1.53c0.844,0,1.53-0.686,1.53-1.53
		S110.428,7.794,109.584,7.794z"/>
	<path class="st0" d="M58.601,65.887c-0.449,0-0.884-0.094-1.292-0.281l-22.53-10.241c-1.118-0.508-1.837-1.63-1.832-2.858
		s0.733-2.344,1.856-2.842l21.786-9.683c1.576-0.699,3.426,0.013,4.125,1.587c0.339,0.762,0.361,1.611,0.062,2.39
		c-0.3,0.779-0.885,1.394-1.647,1.734l-15.435,6.86l16.203,7.365c1.569,0.713,2.265,2.569,1.552,4.137
		C60.941,65.169,59.824,65.887,58.601,65.887z M57.855,41.714c-0.152,0-0.307,0.031-0.455,0.097l-21.786,9.683
		c-0.404,0.179-0.666,0.581-0.668,1.022c-0.002,0.442,0.257,0.846,0.66,1.029l22.531,10.241c0.552,0.252,1.24-0.012,1.489-0.558
		c0.256-0.564,0.005-1.232-0.559-1.489l-18.228-8.286c-0.358-0.163-0.588-0.521-0.586-0.915c0.002-0.394,0.234-0.75,0.594-0.91
		l17.468-7.763c0.274-0.122,0.485-0.344,0.593-0.624c0.108-0.28,0.1-0.585-0.022-0.859C58.699,41.963,58.287,41.714,57.855,41.714z"
		/>
	<path class="st0" d="M80.6,65.887c-1.234,0-2.355-0.729-2.856-1.856c-0.339-0.762-0.361-1.611-0.062-2.39
		c0.3-0.779,0.885-1.395,1.647-1.734l15.435-6.859l-16.204-7.366c-1.568-0.713-2.265-2.569-1.552-4.137
		c0.346-0.761,0.967-1.341,1.75-1.634c0.782-0.292,1.63-0.263,2.389,0.083l22.531,10.241c1.118,0.508,1.837,1.63,1.832,2.858
		c-0.004,1.227-0.732,2.343-1.854,2.842l-21.787,9.683C81.465,65.797,81.038,65.887,80.6,65.887z M79.854,41.713
		c-0.133,0-0.266,0.024-0.395,0.072c-0.282,0.105-0.506,0.314-0.63,0.588c-0.256,0.564-0.006,1.232,0.559,1.489l18.229,8.286
		c0.358,0.163,0.588,0.521,0.586,0.915c-0.002,0.394-0.234,0.75-0.594,0.91l-17.468,7.763c-0.274,0.122-0.485,0.344-0.593,0.624
		c-0.108,0.28-0.1,0.585,0.022,0.86c0.245,0.55,0.927,0.818,1.486,0.571l21.786-9.683c0.404-0.179,0.666-0.581,0.667-1.022
		c0.002-0.443-0.257-0.846-0.659-1.029L80.319,41.814C80.17,41.747,80.012,41.713,79.854,41.713z"/>
	<path class="st0" d="M64.959,72.219c-0.253,0-0.508-0.031-0.757-0.093c-1.673-0.418-2.693-2.117-2.276-3.789l8.38-33.518
		c0.417-1.669,2.115-2.689,3.788-2.274c1.672,0.418,2.692,2.118,2.275,3.789l-8.379,33.518
		C67.64,71.246,66.395,72.219,64.959,72.219z M73.338,34.451c-0.504,0-0.965,0.342-1.093,0.852l-8.38,33.518
		c-0.15,0.602,0.217,1.214,0.818,1.364c0.6,0.149,1.216-0.228,1.364-0.818l8.379-33.518c0.15-0.602-0.217-1.214-0.818-1.364
		C73.519,34.462,73.428,34.451,73.338,34.451z"/>
</g>
</svg>