<!-- Generator: Adobe Illustrator 21.0.2, SVG Export Plug-In  -->
<svg version="1.1"
	 xmlns="http://www.w3.org/2000/svg" xmlns:xlink="http://www.w3.org/1999/xlink" xmlns:a="http://ns.adobe.com/AdobeSVGViewerExtensions/3.0/"
	 x="0px" y="0px" width="49.2px" height="49.275px" viewBox="0 0 49.2 49.275" style="enable-background:new 0 0 49.2 49.275;"
	 xml:space="preserve">
<style type="text/css">
	.st0{fill:#FFFFFF;}
</style>
<defs>
</defs>
<path class="st0" d="M35.747,49.275c-0.203,0-0.426-0.011-0.64-0.021c-3.5-0.224-6.727-1.568-9.146-2.713
	c-6.339-3.065-11.901-7.422-16.527-12.944C5.643,29.038,3.08,24.766,1.37,20.151c-0.687-1.852-1.572-4.659-1.328-7.633
	c0.155-1.756,0.867-3.281,2.115-4.529l3.642-3.673c0.936-0.9,2.031-1.383,3.151-1.383c1.113,0,2.179,0.473,3.082,1.366
	c0.703,0.648,1.375,1.333,2.001,1.98c0.306,0.326,0.64,0.662,0.965,0.985l2.96,2.961c1.971,1.973,1.972,4.422,0,6.394l-1.135,1.148
	c-0.726,0.737-1.452,1.475-2.224,2.181l-0.383,0.349l0.214,0.474c0.686,1.519,1.605,2.97,2.98,4.707
	c2.814,3.458,5.751,6.134,8.985,8.188c0.348,0.216,0.725,0.403,1.124,0.604l0.265,0.137c0.177,0.091,0.358,0.184,0.54,0.281
	l0.468,0.251l3.758-3.745c0.941-0.942,2.031-1.439,3.155-1.439c1.125,0,2.196,0.497,3.101,1.438l5.885,5.906
	c0.942,0.934,1.439,2.026,1.439,3.165c0,1.135-0.489,2.244-1.416,3.207c-0.454,0.475-0.917,0.928-1.369,1.358l-0.137,0.133
	c-0.646,0.625-1.25,1.209-1.793,1.866l-0.099,0.114C39.869,48.479,37.987,49.275,35.747,49.275z M8.971,4.391
	c-0.72,0-1.452,0.33-2.117,0.954L3.188,9.01c-1.011,1.011-1.562,2.197-1.684,3.624c-0.171,2.093,0.211,4.254,1.242,7.011
	c1.643,4.44,4.129,8.584,7.824,13.039c4.486,5.354,9.88,9.578,16.036,12.559c2.276,1.088,5.309,2.362,8.613,2.573
	c0.174,0.012,0.362,0.013,0.538,0.013c1.871,0,3.316-0.613,4.547-1.928c0.668-0.786,1.372-1.478,2.037-2.112l0.247-0.24
	c0.379-0.368,0.738-0.718,1.089-1.097c1.348-1.4,1.339-2.987-0.032-4.346l-5.916-5.915c-0.322-0.355-1.05-0.991-2.047-0.991
	c-0.726,0-1.46,0.351-2.122,1.013l-3.661,3.66c-0.144,0.144-0.529,0.528-1.12,0.528c-0.243,0-0.478-0.06-0.74-0.191l-0.141-0.082
	c-0.267-0.17-0.651-0.363-1.024-0.55c-0.422-0.21-0.858-0.428-1.275-0.691c-3.367-2.13-6.419-4.907-9.331-8.494
	c-1.602-2.036-2.64-3.726-3.361-5.473l-0.016-0.053c-0.189-0.601-0.194-1.114,0.385-1.693l0.056-0.056
	c0.885-0.792,1.718-1.621,2.69-2.614c0.195-0.188,0.399-0.395,0.604-0.604l0.31-0.312c0.713-0.713,1.061-1.422,1.061-2.164
	c0-0.743-0.347-1.451-1.06-2.165l-2.922-2.922l-1.008-1.029c-0.579-0.599-1.258-1.293-1.952-1.941
	C10.42,4.733,9.695,4.391,8.971,4.391z M39.289,23.045c-0.357,0-0.659-0.252-0.717-0.601c-0.508-2.957-1.901-5.644-4.031-7.773
	c-2.144-2.143-4.831-3.537-7.772-4.031c-0.188-0.031-0.349-0.132-0.458-0.285c-0.114-0.161-0.158-0.357-0.123-0.553
	c0.063-0.352,0.369-0.607,0.727-0.607c0.04,0,0.08,0.002,0.122,0.01c3.244,0.553,6.199,2.085,8.546,4.434
	c2.348,2.348,3.882,5.304,4.435,8.55c0.032,0.195-0.012,0.387-0.127,0.55c-0.113,0.16-0.276,0.262-0.471,0.293
	C39.364,23.039,39.329,23.045,39.289,23.045z M48.471,22.605c-0.357,0-0.659-0.252-0.717-0.6c-0.872-5.14-3.298-9.822-7.017-13.541
	c-3.733-3.723-8.415-6.148-13.54-7.018c-0.408-0.071-0.667-0.436-0.601-0.849C26.658,0.257,26.955,0,27.301,0
	c0.04,0,0.081,0.004,0.121,0.011c5.446,0.93,10.403,3.5,14.336,7.433c3.934,3.935,6.503,8.89,7.431,14.329
	c0.034,0.193-0.009,0.382-0.121,0.538c-0.112,0.155-0.271,0.254-0.458,0.282C48.552,22.601,48.514,22.605,48.471,22.605z"/>
</svg>