<!-- Generator: Adobe Illustrator 21.0.2, SVG Export Plug-In  -->
<svg version="1.1"
	 xmlns="http://www.w3.org/2000/svg" xmlns:xlink="http://www.w3.org/1999/xlink" xmlns:a="http://ns.adobe.com/AdobeSVGViewerExtensions/3.0/"
	 x="0px" y="0px" width="156.029px" height="166.221px" viewBox="0 0 156.029 166.221"
	 style="enable-background:new 0 0 156.029 166.221;" xml:space="preserve">
<style type="text/css">
	.st0{opacity:0.08;}
	.st1{fill:#1C2330;}
</style>
<defs>
</defs>
<g class="st0">
	<path class="st1" d="M156.029,0v31.575c-8.351,4.697-14.744,10.569-19.18,17.613c-4.437,7.046-7.788,14.442-10.046,22.182
		c-2.263,7.742-3.393,16.398-3.393,25.964h32.619v68.888h-68.89v-42.794c0-25.745,2.435-45.359,7.307-58.843
		c4.869-13.479,12.395-25.875,22.571-37.185C127.195,16.094,140.197,6.959,156.029,0z"/>
	<path class="st1" d="M68.89,0v31.575c-8.351,4.697-14.745,10.569-19.18,17.613c-4.437,7.046-7.788,14.442-10.046,22.182
		c-2.263,7.742-3.393,16.398-3.393,25.964H68.89v68.888H0v-42.794c0-25.745,2.435-45.359,7.307-58.843
		c4.869-13.479,12.395-25.875,22.571-37.185C40.056,16.094,53.058,6.959,68.89,0z"/>
</g>
</svg>