<!-- Generator: Adobe Illustrator 21.0.2, SVG Export Plug-In  -->
<svg version="1.1"
	 xmlns="http://www.w3.org/2000/svg" xmlns:xlink="http://www.w3.org/1999/xlink" xmlns:a="http://ns.adobe.com/AdobeSVGViewerExtensions/3.0/"
	 x="0px" y="0px" width="128.048px" height="139.5px" viewBox="0 0 128.048 139.5"
	 style="enable-background:new 0 0 128.048 139.5;" xml:space="preserve">
<style type="text/css">
	.st0{fill:#FFFFFF;}
</style>
<defs>
</defs>
<g>
	<g>
		<path class="st0" d="M112.311,108.876H10.169c-1.44,0-2.612-1.172-2.612-2.612V50.662c0-1.44,1.172-2.612,2.612-2.612h65.66
			c0.552,0,1,0.448,1,1s-0.448,1-1,1h-65.66c-0.337,0-0.612,0.275-0.612,0.612v55.602c0,0.337,0.274,0.612,0.612,0.612h102.142
			c0.338,0,0.612-0.274,0.612-0.612V50.662c0-0.338-0.275-0.612-0.612-0.612H99.108c-0.552,0-1-0.448-1-1s0.448-1,1-1h13.203
			c1.44,0,2.612,1.172,2.612,2.612v55.602C114.923,107.704,113.751,108.876,112.311,108.876z"/>
		<path class="st0" d="M115.806,122.263H6.675c-3.68,0-6.675-2.994-6.675-6.674V47.168c0-3.68,2.994-6.674,6.675-6.674h74.63
			c0.552,0,1,0.448,1,1s-0.448,1-1,1H6.675C4.097,42.493,2,44.59,2,47.168v68.421c0,2.577,2.097,4.674,4.675,4.674h109.131
			c2.577,0,4.674-2.097,4.674-4.674V47.168c0-2.577-2.097-4.674-4.674-4.674h-9.996c-0.552,0-1-0.448-1-1s0.448-1,1-1h9.996
			c3.68,0,6.674,2.994,6.674,6.674v68.421C122.48,119.269,119.486,122.263,115.806,122.263z"/>
		<path class="st0" d="M81.303,139.5H41.177c-0.552,0-1-0.448-1-1c0-1.198,1.209-1.766,2.74-2.486
			c1.348-0.634,3.025-1.422,3.642-2.572c0.472-0.88,0.786-2.187,1.062-3.34c0.487-2.033,0.908-3.788,2.386-3.788h22.464
			c1.477,0,1.898,1.755,2.385,3.787c0.276,1.154,0.59,2.461,1.063,3.341l0,0c0.617,1.149,2.295,1.938,3.642,2.572
			c1.531,0.72,2.74,1.288,2.74,2.486C82.303,139.053,81.855,139.5,81.303,139.5z M44.451,137.5h33.579
			c-1.463-0.708-3.069-1.617-3.871-3.112l0,0c-0.595-1.109-0.941-2.55-1.246-3.821c-0.181-0.754-0.444-1.854-0.67-2.253H50.237
			c-0.225,0.399-0.489,1.5-0.67,2.255c-0.305,1.271-0.65,2.712-1.245,3.82C47.519,135.883,45.913,136.792,44.451,137.5z"/>
	</g>
	<path class="st0" d="M71.604,74.589c-0.54,0-1.054-0.195-1.46-0.557l-3.959-3.517c-0.85-0.756-0.988-2.019-0.32-2.939l46.318-63.92
		c1.485-2.078,3.803-3.401,6.354-3.623c2.552-0.223,5.062,0.68,6.889,2.476c3.348,3.291,3.51,8.602,0.369,12.091l-52.54,59.248
		c-0.39,0.44-0.929,0.702-1.517,0.737C71.693,74.587,71.649,74.589,71.604,74.589z M119.297,2c-0.195,0-0.391,0.008-0.587,0.025
		c-1.968,0.171-3.755,1.191-4.904,2.798L67.484,68.749c-0.061,0.085-0.048,0.201,0.03,0.271l3.959,3.518
		c0.052,0.046,0.107,0.052,0.146,0.051c0.038-0.002,0.093-0.016,0.139-0.068l52.545-59.254c2.428-2.697,2.303-6.793-0.28-9.332
		C122.755,2.689,121.059,2,119.297,2z"/>
	<path class="st0" d="M52.548,89.124c-3.574,0-7.599-0.27-12.076-0.626c-0.485-0.039-0.872-0.421-0.917-0.906
		c-0.044-0.485,0.268-0.931,0.738-1.057c1.129-0.301,2.291-0.476,3.414-0.645c4.063-0.612,7.272-1.094,8.088-6.711
		c0.494-3.403,1.827-5.842,3.961-7.25c2.808-1.852,5.945-1.219,6.839-0.98c1.714,0.457,6.812,2.93,8.072,6.853
		c0.439,1.366,0.559,3.483-1.356,5.81C65.791,87.887,60.205,89.124,52.548,89.124z M48.121,86.994
		c10.48,0.474,16.209-0.479,19.646-4.653c1.093-1.327,1.419-2.611,0.996-3.927c-0.925-2.882-5.155-5.125-6.682-5.532
		c-1.423-0.379-3.543-0.39-5.223,0.717c-1.637,1.08-2.674,3.054-3.083,5.868C53.088,84.196,50.791,86.08,48.121,86.994z"/>
</g>
</svg>