<!-- Generator: Adobe Illustrator 21.0.2, SVG Export Plug-In  -->
<svg version="1.1"
	 xmlns="http://www.w3.org/2000/svg" xmlns:xlink="http://www.w3.org/1999/xlink" xmlns:a="http://ns.adobe.com/AdobeSVGViewerExtensions/3.0/"
	 x="0px" y="0px" width="28.042px" height="28.039px" viewBox="0 0 28.042 28.039"
	 style="enable-background:new 0 0 28.042 28.039;" xml:space="preserve">
<style type="text/css">
	.st0{fill:#ED669A;}
</style>
<defs>
</defs>
<path class="st0" d="M16.086,28.039c-0.809,0-1.569-0.314-2.14-0.885L0.886,14.094C0.315,13.523,0,12.762,0,11.954
	c0-0.81,0.315-1.569,0.886-2.141l8.929-8.93c1.18-1.178,3.1-1.178,4.28,0l13.064,13.064c0.571,0.572,0.884,1.332,0.883,2.142
	c-0.001,0.81-0.317,1.569-0.89,2.139l-8.925,8.926C17.656,27.724,16.896,28.039,16.086,28.039z M11.951,1.442
	c-0.425,0-0.824,0.165-1.123,0.465l-8.925,8.924c-0.619,0.619-0.619,1.627,0,2.246l13.064,13.062c0.619,0.621,1.627,0.621,2.246,0
	l0.235-0.242l8.686-8.686c0.619-0.619,0.619-1.626,0-2.246L13.073,1.906C12.774,1.607,12.375,1.442,11.951,1.442z M24.443,16.641
	c-0.011,0-0.022,0-0.033,0l-11.671-0.634c-0.175-0.008-0.347-0.082-0.472-0.205c-0.127-0.13-0.202-0.294-0.214-0.467L11.399,3.63
	c-0.011-0.195,0.053-0.382,0.18-0.523c0.127-0.143,0.304-0.227,0.5-0.236c0.208-0.013,0.407,0.062,0.552,0.209
	c0.125,0.126,0.198,0.292,0.208,0.468l0.614,11.058l11.031,0.596c0.179,0.012,0.342,0.085,0.467,0.205
	c0.148,0.15,0.225,0.349,0.215,0.551C25.144,16.343,24.823,16.641,24.443,16.641z"/>
</svg>