<!-- Generator: Adobe Illustrator 21.0.2, SVG Export Plug-In  -->
<svg version="1.1"
	 xmlns="http://www.w3.org/2000/svg" xmlns:xlink="http://www.w3.org/1999/xlink" xmlns:a="http://ns.adobe.com/AdobeSVGViewerExtensions/3.0/"
	 x="0px" y="0px" width="142.09px" height="142.37px" viewBox="0 0 142.09 142.37"
	 style="enable-background:new 0 0 142.09 142.37;" xml:space="preserve">
<style type="text/css">
	.st0{fill:#ED669A;}
</style>
<defs>
</defs>
<g>
	<path class="st0" d="M126.674,142.37c-4.118,0-7.989-1.604-10.9-4.516l-31.872-31.871c-0.391-0.391-0.391-1.023,0-1.414
		c0.39-0.391,1.023-0.391,1.414,0l31.872,31.871c2.534,2.534,5.903,3.93,9.486,3.93c3.583,0,6.952-1.396,9.487-3.93
		c2.534-2.534,3.929-5.903,3.929-9.486s-1.396-6.952-3.929-9.486L104.35,85.657c-0.391-0.391-0.391-1.023,0-1.414
		c0.39-0.391,1.024-0.391,1.414,0l31.811,31.811c2.912,2.912,4.515,6.783,4.515,10.9s-1.604,7.988-4.515,10.9
		C134.663,140.767,130.792,142.37,126.674,142.37z"/>
	<path class="st0" d="M51.478,102.957C23.093,102.957,0,79.864,0,51.479S23.093,0,51.478,0c28.385,0,51.479,23.093,51.479,51.479
		S79.863,102.957,51.478,102.957z M51.478,2C24.196,2,2,24.196,2,51.479s22.196,49.479,49.478,49.479
		c27.282,0,49.479-22.196,49.479-49.479S78.76,2,51.478,2z"/>
	<path class="st0" d="M51.478,88.172c-20.233,0-36.693-16.461-36.693-36.693s16.46-36.692,36.693-36.692
		c20.233,0,36.694,16.46,36.694,36.692S71.711,88.172,51.478,88.172z M51.478,16.786c-19.13,0-34.693,15.562-34.693,34.692
		s15.563,34.693,34.693,34.693c19.13,0,34.694-15.563,34.694-34.693S70.608,16.786,51.478,16.786z"/>
	<path class="st0" d="M30.88,52.479H24.99c-0.552,0-1-0.447-1-1c0-15.157,12.331-27.488,27.488-27.488c0.552,0,1,0.447,1,1v5.891
		c0,0.553-0.448,1-1,1c-10.806,0-19.598,8.791-19.598,19.598C31.88,52.031,31.433,52.479,30.88,52.479z M26.009,50.479h3.894
		c0.509-11.115,9.459-20.065,20.575-20.575V26.01C37.216,26.523,26.523,37.217,26.009,50.479z"/>
</g>
</svg>