<!-- Generator: Adobe Illustrator 21.0.2, SVG Export Plug-In  -->
<svg version="1.1"
	 xmlns="http://www.w3.org/2000/svg" xmlns:xlink="http://www.w3.org/1999/xlink" xmlns:a="http://ns.adobe.com/AdobeSVGViewerExtensions/3.0/"
	 x="0px" y="0px" width="57.732px" height="57.729px" viewBox="0 0 57.732 57.729"
	 style="enable-background:new 0 0 57.732 57.729;" xml:space="preserve">
<style type="text/css">
	.st0{fill:#FFFFFF;}
</style>
<defs>
</defs>
<path class="st0" d="M1.64,28.46c-2.187-2.188-2.187-5.745-0.001-7.932L20.528,1.64c2.187-2.187,5.745-2.187,7.933,0l27.636,27.637
	c1.057,1.057,1.638,2.465,1.635,3.966c-0.002,1.501-0.587,2.909-1.649,3.965L37.201,56.089c-2.186,2.187-5.745,2.187-7.932,0
	L1.64,28.46z M27.421,2.679c-1.618-1.619-4.251-1.619-5.871,0l-18.88,18.88c-1.618,1.619-1.619,4.253,0,5.871l27.636,27.636
	c1.618,1.619,4.253,1.619,5.87,0l0.507-0.521L55.05,36.178c1.619-1.619,1.619-4.252,0-5.871L27.421,2.679z M26.191,32.278
	c-0.178-0.007-0.358-0.087-0.479-0.207c-0.128-0.129-0.206-0.298-0.217-0.477l-1.384-24.75c-0.024-0.417,0.272-0.75,0.688-0.773
	c0.217-0.013,0.411,0.061,0.562,0.211c0.126,0.127,0.201,0.296,0.211,0.477l1.338,24.099l24.046,1.299
	c0.18,0.011,0.351,0.086,0.478,0.213c0.147,0.147,0.225,0.351,0.215,0.559c-0.023,0.396-0.369,0.708-0.771,0.688L26.191,32.278z"/>
</svg>