<!-- Generator: Adobe Illustrator 21.0.2, SVG Export Plug-In  -->
<svg version="1.1"
	 xmlns="http://www.w3.org/2000/svg" xmlns:xlink="http://www.w3.org/1999/xlink" xmlns:a="http://ns.adobe.com/AdobeSVGViewerExtensions/3.0/"
	 x="0px" y="0px" width="177.275px" height="146.395px" viewBox="0 0 177.275 146.395"
	 style="enable-background:new 0 0 177.275 146.395;" xml:space="preserve">
<style type="text/css">
	.st0{fill:#ED669A;}
</style>
<defs>
</defs>
<g>
	<path class="st0" d="M103.984,146.395H56.149C25.188,146.395,0,121.206,0,90.245V19.661C0,11.214,6.873,4.342,15.321,4.342h88.663
		c8.448,0,15.321,6.872,15.321,15.319v6.513c0,0.553-0.448,1-1,1s-1-0.447-1-1v-6.513c0-7.345-5.976-13.319-13.321-13.319H15.321
		C7.976,6.342,2,12.317,2,19.661v70.584c0,29.858,24.291,54.149,54.149,54.149h47.835c7.345,0,13.321-5.976,13.321-13.321V88.689
		c0-0.553,0.448-1,1-1s1,0.447,1,1v42.385C119.305,139.522,112.432,146.395,103.984,146.395z"/>
	<path class="st0" d="M40.248,144.057c-0.096,0-0.193-0.014-0.288-0.042c-18.512-5.566-33.099-20.625-38.068-39.298
		c-0.08-0.3-0.016-0.62,0.174-0.866c0.189-0.246,0.482-0.391,0.793-0.391h28.477c5.466,0,9.912,4.446,9.912,9.912v29.685
		c0,0.316-0.15,0.614-0.403,0.803C40.67,143.99,40.46,144.057,40.248,144.057z M4.177,105.46
		c4.974,16.993,18.245,30.703,35.072,36.233v-28.321c0-4.362-3.549-7.912-7.912-7.912H4.177z"/>
	<path class="st0" d="M165,30.191c-0.027,0-0.054-0.001-0.081-0.001c-1.007-0.021-1.946-0.434-2.643-1.16l-13.754-14.343
		c-0.697-0.727-1.07-1.682-1.048-2.688c0.021-1.007,0.433-1.945,1.16-2.643l4.726-4.531c0.727-0.696,1.687-1.053,2.689-1.05
		c1.008,0.021,1.946,0.433,2.644,1.161l13.753,14.341c1.439,1.502,1.389,3.895-0.112,5.332l-4.725,4.531
		C166.902,29.819,165.978,30.19,165,30.191z M155.971,5.775c-0.459,0-0.893,0.174-1.226,0.493l-4.726,4.531
		c-0.341,0.327-0.535,0.769-0.545,1.241c-0.01,0.473,0.165,0.921,0.492,1.262l13.754,14.343l0,0
		c0.327,0.342,0.768,0.535,1.241,0.545c0.471,0.013,0.921-0.165,1.262-0.493l4.726-4.531c0.705-0.676,0.728-1.799,0.052-2.505
		L157.249,6.32c-0.327-0.342-0.768-0.535-1.24-0.545C155.996,5.775,155.983,5.775,155.971,5.775z"/>
	<path class="st0" d="M91.618,106.766c-0.123,0-0.248-0.022-0.366-0.069c-0.364-0.144-0.61-0.485-0.632-0.875l-0.433-7.816h-6.971
		c-0.272,0-0.533-0.111-0.722-0.308l-3.853-4.019c-0.162-0.169-0.259-0.388-0.276-0.621l-0.551-7.657l-9.168-2.36
		c-0.351-0.091-0.626-0.364-0.718-0.715c-0.092-0.352,0.013-0.725,0.275-0.976l82.687-79.296c2.943-2.821,7.635-2.725,10.459,0.219
		l13.867,14.461c1.368,1.426,2.098,3.299,2.057,5.274c-0.042,1.976-0.85,3.816-2.276,5.184L92.31,106.488
		C92.121,106.669,91.871,106.766,91.618,106.766z M83.643,96.005h7.49c0.531,0,0.969,0.415,0.999,0.944l0.365,6.589l81.117-77.79
		c1.041-0.997,1.63-2.341,1.66-3.782c0.03-1.441-0.502-2.808-1.5-3.848L159.907,3.658c-2.06-2.147-5.484-2.218-7.632-0.16l0,0
		L70.884,81.551l8.126,2.092c0.416,0.107,0.717,0.469,0.748,0.897l0.576,8.015L83.643,96.005z M151.583,2.776h0.01H151.583z"/>
	<path class="st0" d="M59.158,117.191c-0.816,0-1.618-0.328-2.197-0.932c-0.8-0.833-1.057-2.072-0.654-3.156l2.977-8.017
		c0-0.001,0-0.001,0-0.001c0.366-0.985,1.199-1.7,2.229-1.914c1.029-0.211,2.078,0.112,2.805,0.871l5.157,5.378
		c0.727,0.759,1.009,1.819,0.753,2.839s-1.006,1.822-2.006,2.147l-8.135,2.638C59.784,117.143,59.47,117.191,59.158,117.191z
		 M61.159,105.782l-2.977,8.017c-0.137,0.37-0.05,0.792,0.222,1.076c0.273,0.286,0.691,0.392,1.065,0.268l8.135-2.638
		c0.345-0.112,0.595-0.379,0.683-0.732c0.088-0.353-0.005-0.705-0.256-0.967l-5.158-5.378c-0.251-0.264-0.6-0.373-0.956-0.297
		C61.562,105.203,61.285,105.442,61.159,105.782L61.159,105.782z"/>
	<path class="st0" d="M59.158,117.191c-0.816,0-1.618-0.328-2.197-0.932c-0.8-0.833-1.057-2.072-0.654-3.156l11.651-31.379
		c0.178-0.481,0.692-0.749,1.187-0.621l9.865,2.54c0.416,0.107,0.717,0.469,0.748,0.897l0.576,8.015l3.308,3.45h7.49
		c0.531,0,0.969,0.415,0.999,0.944l0.485,8.761c0.025,0.453-0.258,0.867-0.69,1.007l-31.839,10.327
		C59.784,117.143,59.47,117.191,59.158,117.191z M69.52,83.265l-11.337,30.533c-0.137,0.37-0.05,0.792,0.222,1.076
		c0.273,0.286,0.691,0.392,1.065,0.268l31.108-10.09l-0.39-7.047h-6.971c-0.272,0-0.533-0.111-0.722-0.308l-3.853-4.019
		c-0.161-0.169-0.259-0.388-0.275-0.621l-0.551-7.657L69.52,83.265z"/>
</g>
</svg>