<!-- Generator: Adobe Illustrator 21.0.2, SVG Export Plug-In  -->
<svg version="1.1"
	 xmlns="http://www.w3.org/2000/svg" xmlns:xlink="http://www.w3.org/1999/xlink" xmlns:a="http://ns.adobe.com/AdobeSVGViewerExtensions/3.0/"
	 x="0px" y="0px" width="217.249px" height="198.612px" viewBox="0 0 217.249 198.612"
	 style="enable-background:new 0 0 217.249 198.612;" xml:space="preserve">
<style type="text/css">
	.st0{fill:#F1F1F1;}
	.st1{opacity:0.55;fill:#FF1854;}
</style>
<defs>
</defs>
<g>
	<path class="st0" d="M160.587,0v32.498c-8.596,4.833-15.176,10.877-19.741,18.126c-4.566,7.253-8.015,14.865-10.339,22.829
		c-2.33,7.969-3.493,16.878-3.493,26.725h33.572v70.9H89.684v-44.045c0-26.496,2.506-46.684,7.521-60.561
		c5.011-13.873,12.758-26.631,23.231-38.273C130.911,16.564,144.293,7.163,160.587,0z"/>
	<path class="st0" d="M70.902,0v32.498c-8.594,4.833-15.175,10.877-19.74,18.126c-4.566,7.253-8.015,14.865-10.339,22.829
		c-2.329,7.969-3.492,16.878-3.492,26.725h33.571v70.9H0v-44.045c0-26.496,2.505-46.684,7.521-60.561
		C12.532,52.6,20.277,39.842,30.75,28.199C41.226,16.564,54.608,7.163,70.902,0z"/>
</g>
<path class="st1" d="M217.249,115.099l-16.241-16.241l-5.272,5.273c-5.223-2.723-11.144-4.273-17.413-4.273h-21.901
	c-20.859,0-37.926,17.067-37.926,37.926v21.901c0,6.269,1.55,12.189,4.273,17.413l-5.273,5.273l16.241,16.241l5.272-5.272
	c5.224,2.722,11.144,4.272,17.413,4.272h21.901c20.859,0,37.926-17.067,37.926-37.926v-21.901c0-6.269-1.55-12.189-4.272-17.413
	L217.249,115.099z M141.495,137.785c0-8.091,6.835-14.927,14.926-14.927h20.586l-35.513,35.513V137.785z M193.249,159.685
	c0,8.091-6.835,14.927-14.926,14.927h-20.586l35.513-35.513V159.685z"/>
</svg>