<?xml version="1.0" encoding="utf-8"?>
<!-- Generator: Adobe Illustrator 16.0.4, SVG Export Plug-In . SVG Version: 6.00 Build 0)  -->
<!DOCTYPE svg PUBLIC "-//W3C//DTD SVG 1.0//EN" "http://www.w3.org/TR/2001/REC-SVG-20010904/DTD/svg10.dtd">
<svg version="1.0" id="Layer_1" xmlns="http://www.w3.org/2000/svg" xmlns:xlink="http://www.w3.org/1999/xlink" x="0px" y="0px"
	 width="218px" height="199px" viewBox="0 0 218 199" enable-background="new 0 0 218 199" xml:space="preserve">
<g>
	<path fill="#F1F1F1" d="M160.587,0v32.498c-8.596,4.833-15.176,10.877-19.741,18.126c-4.566,7.253-8.015,14.865-10.339,22.829
		c-2.33,7.969-3.493,16.878-3.493,26.725h33.572v70.9H89.684v-44.045c0-26.496,2.506-46.684,7.521-60.561
		c5.011-13.873,12.758-26.631,23.231-38.273C130.911,16.564,144.293,7.163,160.587,0z M70.902,0v32.498
		c-8.595,4.833-15.176,10.877-19.74,18.126c-4.566,7.253-8.015,14.865-10.339,22.829c-2.33,7.969-3.492,16.878-3.492,26.725h33.571
		v70.9H0v-44.045c0-26.496,2.505-46.684,7.521-60.561C12.532,52.6,20.277,39.842,30.75,28.199C41.226,16.564,54.608,7.163,70.902,0z
		"/>
	<path opacity="0.55" fill="#E72B58" d="M217.249,115.1l-16.241-16.242l-5.272,5.273c-5.223-2.723-11.144-4.273-17.413-4.273
		h-21.901c-20.859,0-37.926,17.067-37.926,37.927v21.901c0,6.269,1.55,12.189,4.273,17.412l-5.273,5.273l16.241,16.24l5.272-5.271
		c5.224,2.722,11.144,4.271,17.413,4.271h21.901c20.859,0,37.926-17.066,37.926-37.926v-21.901c0-6.269-1.551-12.188-4.272-17.413
		L217.249,115.1z M141.495,137.785c0-8.092,6.835-14.928,14.926-14.928h20.586l-35.513,35.514V137.785z M193.249,159.686
		c0,8.09-6.835,14.926-14.926,14.926h-20.586l35.513-35.512V159.686z"/>
</g>
</svg>
